<?xml version="1.0" encoding="utf-8" standalone="no"?>
<!DOCTYPE svg PUBLIC "-//W3C//DTD SVG 1.1//EN"
  "http://www.w3.org/Graphics/SVG/1.1/DTD/svg11.dtd">
<!-- Created with matplotlib (https://matplotlib.org/) -->
<svg height="345.6pt" version="1.1" viewBox="0 0 460.8 345.6" width="460.8pt" xmlns="http://www.w3.org/2000/svg" xmlns:xlink="http://www.w3.org/1999/xlink">
 <defs>
  <style type="text/css">
*{stroke-linecap:butt;stroke-linejoin:round;}
  </style>
 </defs>
 <g id="figure_1">
  <g id="patch_1">
   <path d="M 0 345.6 
L 460.8 345.6 
L 460.8 0 
L 0 0 
z
" style="fill:#ffffff;"/>
  </g>
  <g id="axes_1">
   <g id="patch_2">
    <path d="M 57.6 307.584 
L 414.72 307.584 
L 414.72 41.472 
L 57.6 41.472 
z
" style="fill:#ffffff;"/>
   </g>
   <g id="Quiver_1">
    <path clip-path="url(#p8f56285230)" d="M 57.612716 306.909226 
L 69.873754 307.140276 
L 69.224411 305.778013 
L 75.934 307.92949 
L 69.148118 309.826655 
L 69.848323 308.489823 
L 57.587284 308.258774 
L 57.612716 306.909226 
"/>
    <path clip-path="url(#p8f56285230)" d="M 84.657425 306.909113 
L 92.080581 306.940782 
L 91.411452 305.588128 
L 98.151686 307.641582 
L 91.394177 309.637451 
L 92.074822 308.290556 
L 84.651666 308.258887 
L 84.657425 306.909113 
"/>
    <path clip-path="url(#p8f56285230)" d="M 111.693253 306.909293 
L 115.4328 306.82151 
L 114.726416 305.487933 
L 121.521006 307.353673 
L 114.821445 309.536178 
L 115.464476 308.170925 
L 111.724929 308.258707 
L 111.693253 306.909293 
"/>
    <path clip-path="url(#p8f56285230)" d="M 138.715704 306.910811 
L 139.935324 306.823971 
L 139.166269 305.525526 
L 146.041958 307.065765 
L 139.453866 309.56466 
L 140.031189 308.170349 
L 138.811569 308.257189 
L 138.715704 306.910811 
"/>
    <path clip-path="url(#p8f56285230)" d="M 165.737567 306.994364 
L 166.327204 306.913749 
L 165.576339 305.815091 
L 171.714544 306.777857 
L 166.060025 309.352909 
L 166.488432 308.093022 
L 165.898796 308.173636 
L 165.737567 306.994364 
"/>
    <path clip-path="url(#p8f56285230)" d="M 192.763322 307.017396 
L 193.329926 306.907991 
L 192.544512 305.884189 
L 198.538763 306.489948 
L 193.200943 309.283811 
L 193.548736 308.041198 
L 192.982132 308.150604 
L 192.763322 307.017396 
"/>
    <path clip-path="url(#p8f56285230)" d="M 219.789077 306.925266 
L 220.447811 306.78707 
L 219.512685 305.607797 
L 226.514615 306.20204 
L 220.341861 309.560203 
L 220.724203 308.104538 
L 220.065469 308.242734 
L 219.789077 306.925266 
"/>
    <path clip-path="url(#p8f56285230)" d="M 246.854039 306.921313 
L 249.550141 306.401453 
L 248.631897 305.203859 
L 255.6421 305.914132 
L 249.398569 309.179979 
L 249.805698 307.726827 
L 247.109597 308.246687 
L 246.854039 306.921313 
"/>
    <path clip-path="url(#p8f56285230)" d="M 273.926668 306.918081 
L 279.818253 305.947568 
L 278.932942 304.725426 
L 285.921218 305.626224 
L 279.591118 308.720939 
L 280.037645 307.279406 
L 274.14606 308.249919 
L 273.926668 306.918081 
"/>
    <path clip-path="url(#p8f56285230)" d="M 300.998581 306.915452 
L 311.242708 305.500718 
L 310.389505 304.255949 
L 317.35197 305.338315 
L 310.943472 308.267238 
L 311.427364 306.837814 
L 301.183237 308.252548 
L 300.998581 306.915452 
"/>
    <path clip-path="url(#p8f56285230)" d="M 328.067504 306.913623 
L 343.823015 305.081587 
L 342.996736 303.818785 
L 349.934354 305.050407 
L 343.464441 307.841044 
L 343.978916 306.42234 
L 328.223405 308.254377 
L 328.067504 306.913623 
"/>
    <path clip-path="url(#p8f56285230)" d="M 355.133437 306.912397 
L 377.557383 304.689959 
L 376.752655 303.413316 
L 383.668372 304.762499 
L 377.152031 307.442933 
L 377.690509 306.033165 
L 355.266563 308.255603 
L 355.133437 306.912397 
"/>
    <path clip-path="url(#p8f56285230)" d="M 382.196945 306.911569 
L 412.444545 304.320563 
L 411.656914 303.033301 
L 418.554023 304.47459 
L 412.002516 307.067887 
L 412.559746 305.665424 
L 382.312146 308.256431 
L 382.196945 306.911569 
"/>
    <path clip-path="url(#p8f56285230)" d="M 409.258599 306.910998 
L 448.483798 303.968111 
L 447.709812 302.672599 
L 454.591308 304.186682 
L 448.012765 306.71061 
L 448.584783 305.314114 
L 409.359583 308.257002 
L 409.258599 306.910998 
"/>
    <path clip-path="url(#p8f56285230)" d="M 57.636135 292.126075 
L 68.753175 292.722163 
L 68.15152 291.338177 
L 74.782367 293.721307 
L 67.934708 295.381728 
L 68.680904 294.070013 
L 57.563865 293.473925 
L 57.636135 292.126075 
"/>
    <path clip-path="url(#p8f56285230)" d="M 84.689126 292.125993 
L 90.968572 292.448166 
L 90.363726 291.065572 
L 97.000053 293.433398 
L 90.156243 295.109613 
L 90.899411 293.79618 
L 84.619965 293.474007 
L 84.689126 292.125993 
"/>
    <path clip-path="url(#p8f56285230)" d="M 111.735993 292.125643 
L 114.327062 292.22901 
L 113.70651 290.853394 
L 120.369372 293.14549 
L 113.545095 294.899535 
L 114.273257 293.577724 
L 111.682188 293.474357 
L 111.735993 292.125643 
"/>
    <path clip-path="url(#p8f56285230)" d="M 138.769395 292.187331 
L 139.382063 292.193089 
L 138.780911 290.961993 
L 144.890325 292.857582 
L 138.746362 294.638007 
L 139.370547 293.418427 
L 138.757878 293.412669 
L 138.769395 292.187331 
"/>
    <path clip-path="url(#p8f56285230)" d="M 165.795149 292.325527 
L 166.269622 292.302494 
L 165.749084 291.376581 
L 170.562911 292.569673 
L 165.88728 294.223419 
L 166.315687 293.25144 
L 165.841214 293.274473 
L 165.795149 292.325527 
"/>
    <path clip-path="url(#p8f56285230)" d="M 192.820904 292.34856 
L 193.272344 292.296736 
L 192.717257 291.445679 
L 197.387129 292.281765 
L 193.028198 294.154321 
L 193.375991 293.199617 
L 192.924551 293.25144 
L 192.820904 292.34856 
"/>
    <path clip-path="url(#p8f56285230)" d="M 219.846658 292.256429 
L 220.390229 292.175815 
L 219.68543 291.169287 
L 225.362981 291.993857 
L 220.169116 294.430713 
L 220.551458 293.262957 
L 220.007887 293.343571 
L 219.846658 292.256429 
"/>
    <path clip-path="url(#p8f56285230)" d="M 246.88451 292.132159 
L 248.382586 291.913881 
L 247.520128 290.675506 
L 254.490467 291.705948 
L 248.103977 294.682555 
L 248.577202 293.249564 
L 247.079126 293.467841 
L 246.88451 292.132159 
"/>
    <path clip-path="url(#p8f56285230)" d="M 273.950179 292.130632 
L 278.65909 291.524335 
L 277.817353 290.271784 
L 284.769585 291.41804 
L 278.334461 294.287991 
L 278.831459 292.86307 
L 274.122548 293.469368 
L 273.950179 292.130632 
"/>
    <path clip-path="url(#p8f56285230)" d="M 301.016772 292.129191 
L 310.088918 291.126553 
L 309.269836 289.859071 
L 316.200336 291.130132 
L 309.714656 293.883926 
L 310.237192 292.468171 
L 301.165046 293.470809 
L 301.016772 292.129191 
"/>
    <path clip-path="url(#p8f56285230)" d="M 328.081716 292.128123 
L 342.672091 290.743992 
L 341.872738 289.463976 
L 348.782721 290.842224 
L 342.255168 293.495237 
L 342.799568 292.087745 
L 328.209193 293.471877 
L 328.081716 292.128123 
"/>
    <path clip-path="url(#p8f56285230)" d="M 355.144704 292.127376 
L 376.407825 290.379354 
L 375.624609 289.089401 
L 382.516739 290.554315 
L 375.956384 293.125147 
L 376.518416 291.724602 
L 355.255296 293.472624 
L 355.144704 292.127376 
"/>
    <path clip-path="url(#p8f56285230)" d="M 382.206022 292.126853 
L 411.295546 290.029968 
L 410.525353 288.732197 
L 417.40239 290.266407 
L 410.816492 292.771078 
L 411.392592 291.376261 
L 382.303068 293.473147 
L 382.206022 292.126853 
"/>
    <path clip-path="url(#p8f56285230)" d="M 409.266029 292.126482 
L 447.334949 289.692535 
L 446.575308 288.38856 
L 453.439674 289.978499 
L 446.833677 292.429669 
L 447.421072 291.039571 
L 409.352152 293.473518 
L 409.266029 292.126482 
"/>
    <path clip-path="url(#p8f56285230)" d="M 57.662756 277.344031 
L 67.645766 278.276352 
L 67.099308 276.869658 
L 73.630734 279.513123 
L 66.722773 280.901474 
L 67.520254 279.620291 
L 57.537244 278.687969 
L 57.662756 277.344031 
"/>
    <path clip-path="url(#p8f56285230)" d="M 84.727029 277.34501 
L 89.881996 277.901874 
L 89.355973 276.487411 
L 95.84842 279.225215 
L 88.921072 280.513349 
L 89.737029 279.243853 
L 84.582062 278.68699 
L 84.727029 277.34501 
"/>
    <path clip-path="url(#p8f56285230)" d="M 111.791284 277.34613 
L 113.271104 277.527703 
L 112.76562 276.105771 
L 119.217739 278.937307 
L 112.272464 280.12499 
L 113.106719 278.867443 
L 111.626898 278.68587 
L 111.791284 277.34613 
"/>
    <path clip-path="url(#p8f56285230)" d="M 138.826976 277.518494 
L 139.324482 277.581834 
L 138.953656 276.523483 
L 143.738692 278.649398 
L 138.573617 279.508517 
L 139.197802 278.576845 
L 138.700297 278.513506 
L 138.826976 277.518494 
"/>
    <path clip-path="url(#p8f56285230)" d="M 165.852731 277.65669 
L 166.21204 277.691239 
L 165.921829 276.938071 
L 169.411277 278.36149 
L 165.714535 279.093929 
L 166.142942 278.409859 
L 165.783633 278.37531 
L 165.852731 277.65669 
"/>
    <path clip-path="url(#p8f56285230)" d="M 192.878485 277.679723 
L 193.214762 277.685481 
L 192.890002 277.007169 
L 196.235496 278.073582 
L 192.855453 279.024831 
L 193.203246 278.358035 
L 192.866969 278.352277 
L 192.878485 277.679723 
"/>
    <path clip-path="url(#p8f56285230)" d="M 219.90424 277.587592 
L 220.332648 277.56456 
L 219.858175 276.730777 
L 224.211348 277.785673 
L 219.996371 279.301223 
L 220.378713 278.421375 
L 219.950305 278.444408 
L 219.90424 277.587592 
"/>
    <path clip-path="url(#p8f56285230)" d="M 246.929995 277.380298 
L 247.565696 277.328475 
L 246.826348 276.108895 
L 253.338833 277.497765 
L 247.137289 279.923105 
L 247.669343 278.599878 
L 247.033642 278.651702 
L 246.929995 277.380298 
"/>
    <path clip-path="url(#p8f56285230)" d="M 273.979782 277.343483 
L 277.508714 277.046577 
L 276.723033 275.758125 
L 283.617952 277.209857 
L 277.062525 279.793229 
L 277.621878 278.391612 
L 274.092946 278.688517 
L 273.979782 277.343483 
"/>
    <path clip-path="url(#p8f56285230)" d="M 301.038171 277.34317 
L 308.940498 276.723764 
L 308.162192 275.430843 
L 315.048703 276.921948 
L 308.478622 279.46782 
L 309.045975 278.069423 
L 301.143647 278.68883 
L 301.038171 277.34317 
"/>
    <path clip-path="url(#p8f56285230)" d="M 328.09771 277.342798 
L 341.524521 276.390541 
L 340.755829 275.091881 
L 347.631088 276.63404 
L 341.042298 279.131096 
L 341.620011 277.736946 
L 328.193199 278.689202 
L 328.09771 277.342798 
"/>
    <path clip-path="url(#p8f56285230)" d="M 355.157015 277.342477 
L 375.260413 276.05947 
L 374.500921 274.755408 
L 381.365106 276.346132 
L 374.758828 278.796547 
L 375.346382 277.406516 
L 355.242985 278.689523 
L 355.157015 277.342477 
"/>
    <path clip-path="url(#p8f56285230)" d="M 382.215744 277.342223 
L 410.147962 275.73366 
L 409.396582 274.424908 
L 416.250757 276.058224 
L 409.629391 278.46757 
L 410.225565 277.081214 
L 382.293347 278.689777 
L 382.215744 277.342223 
"/>
    <path clip-path="url(#p8f56285230)" d="M 409.273875 277.342026 
L 446.18706 275.413282 
L 445.442655 274.10055 
L 452.288041 275.770315 
L 445.653949 278.144394 
L 446.257491 276.76123 
L 409.344307 278.689974 
L 409.273875 277.342026 
"/>
    <path clip-path="url(#p8f56285230)" d="M 57.693126 262.563563 
L 66.55629 263.798369 
L 66.074104 262.368368 
L 72.479101 265.30494 
L 65.515348 266.378992 
L 66.370038 265.135244 
L 57.506874 263.900437 
L 57.693126 262.563563 
"/>
    <path clip-path="url(#p8f56285230)" d="M 84.772658 262.567522 
L 88.834601 263.289542 
L 88.406348 261.842474 
L 94.696787 265.017031 
L 87.697673 265.82934 
L 88.598376 264.618497 
L 84.536433 263.896478 
L 84.772658 262.567522 
"/>
    <path clip-path="url(#p8f56285230)" d="M 111.858803 262.596298 
L 112.494505 262.746011 
L 112.158228 261.324895 
L 118.066106 264.729123 
L 111.259954 265.139105 
L 112.19508 264.017414 
L 111.559379 263.867702 
L 111.858803 262.596298 
"/>
    <path clip-path="url(#p8f56285230)" d="M 138.884558 262.849658 
L 139.2669 262.970579 
L 139.126401 262.084973 
L 142.587059 264.441215 
L 138.400872 264.379027 
L 139.025057 263.735264 
L 138.642715 263.614342 
L 138.884558 262.849658 
"/>
    <path clip-path="url(#p8f56285230)" d="M 165.910312 262.987854 
L 166.154459 263.079984 
L 166.094574 262.499561 
L 168.259644 264.153307 
L 165.54179 263.964439 
L 165.970197 263.568277 
L 165.726051 263.476146 
L 165.910312 262.987854 
"/>
    <path clip-path="url(#p8f56285230)" d="M 192.936067 263.010886 
L 193.157181 263.074226 
L 193.062747 262.568659 
L 195.083863 263.865398 
L 192.682708 263.895341 
L 193.030501 263.516453 
L 192.809387 263.453114 
L 192.936067 263.010886 
"/>
    <path clip-path="url(#p8f56285230)" d="M 219.961822 262.918756 
L 220.275066 262.953305 
L 220.03092 262.292267 
L 223.059715 263.57749 
L 219.823626 264.171733 
L 220.205968 263.579793 
L 219.892724 263.545244 
L 219.961822 262.918756 
"/>
    <path clip-path="url(#p8f56285230)" d="M 246.987576 262.711462 
L 247.508115 262.71722 
L 246.999093 261.670385 
L 252.1872 263.289582 
L 246.964544 264.793615 
L 247.496598 263.758296 
L 246.97606 263.752538 
L 246.987576 262.711462 
"/>
    <path clip-path="url(#p8f56285230)" d="M 274.017931 262.557358 
L 276.376111 262.492927 
L 275.664604 261.162077 
L 282.466319 263.001673 
L 275.775201 265.209926 
L 276.412977 263.84221 
L 274.054796 263.906642 
L 274.017931 262.557358 
"/>
    <path clip-path="url(#p8f56285230)" d="M 301.06362 262.557659 
L 307.800708 262.285025 
L 307.071789 260.963631 
L 313.89707 262.713765 
L 307.235523 265.009679 
L 307.855286 263.633707 
L 301.118198 263.906341 
L 301.06362 262.557659 
"/>
    <path clip-path="url(#p8f56285230)" d="M 328.115808 262.557758 
L 340.381631 262.018432 
L 339.648097 260.699594 
L 346.479455 262.425857 
L 339.825975 264.745046 
L 340.440924 263.366916 
L 328.175101 263.906242 
L 328.115808 262.557758 
"/>
    <path clip-path="url(#p8f56285230)" d="M 355.170509 262.557751 
L 374.115744 261.729115 
L 373.382514 260.410108 
L 380.213473 262.137948 
L 373.559457 264.455601 
L 374.174725 263.077613 
L 355.229491 263.906249 
L 355.170509 262.557751 
"/>
    <path clip-path="url(#p8f56285230)" d="M 382.226174 262.557703 
L 409.002082 261.431087 
L 408.271042 260.110865 
L 415.099124 261.85004 
L 408.441271 264.156646 
L 409.058825 262.779681 
L 382.282917 263.906297 
L 382.226174 262.557703 
"/>
    <path clip-path="url(#p8f56285230)" d="M 409.282169 262.557644 
L 445.04028 261.130076 
L 444.31208 259.808286 
L 451.136408 261.562132 
L 444.473613 263.854423 
L 445.094125 262.478788 
L 409.336013 263.906356 
L 409.282169 262.557644 
"/>
    <path clip-path="url(#p8f56285230)" d="M 57.727864 247.78533 
L 65.4913 249.283308 
L 65.084358 247.830104 
L 71.327468 251.096756 
L 64.317173 251.806125 
L 65.235572 250.608649 
L 57.472136 249.11067 
L 57.727864 247.78533 
"/>
    <path clip-path="url(#p8f56285230)" d="M 84.827757 247.795713 
L 87.847777 248.597661 
L 87.541912 247.119875 
L 93.545154 250.808848 
L 86.502645 251.0336 
L 87.501355 249.902236 
L 84.481334 249.100287 
L 84.827757 247.795713 
"/>
    <path clip-path="url(#p8f56285230)" d="M 111.916385 247.927462 
L 112.436923 248.134756 
L 112.330973 246.886385 
L 116.914473 250.52094 
L 111.087209 250.009615 
L 112.022335 249.175832 
L 111.501797 248.968538 
L 111.916385 247.927462 
"/>
    <path clip-path="url(#p8f56285230)" d="M 138.94214 248.180821 
L 139.209318 248.359324 
L 139.299146 247.646463 
L 141.435425 250.233031 
L 138.228127 249.249537 
L 138.852312 248.893682 
L 138.585133 248.715179 
L 138.94214 248.180821 
"/>
    <path clip-path="url(#p8f56285230)" d="M 165.967894 248.319017 
L 166.096877 248.468729 
L 166.267319 248.061051 
L 167.108011 249.945123 
L 165.369045 248.834949 
L 165.797452 248.726695 
L 165.66847 248.576983 
L 165.967894 248.319017 
"/>
    <path clip-path="url(#p8f56285230)" d="M 192.993649 248.34205 
L 193.099599 248.462971 
L 193.235492 248.130149 
L 193.93223 249.657215 
L 192.509963 248.765851 
L 192.857756 248.674872 
L 192.751806 248.55395 
L 192.993649 248.34205 
"/>
    <path clip-path="url(#p8f56285230)" d="M 220.019403 248.249919 
L 220.217484 248.34205 
L 220.203665 247.853757 
L 221.908082 249.369307 
L 219.650881 249.042243 
L 220.033223 248.738212 
L 219.835142 248.646081 
L 220.019403 248.249919 
"/>
    <path clip-path="url(#p8f56285230)" d="M 247.045158 248.042625 
L 247.450533 248.105965 
L 247.171838 247.231875 
L 251.035567 249.081398 
L 246.791799 249.664125 
L 247.323853 248.916715 
L 246.918478 248.853375 
L 247.045158 248.042625 
"/>
    <path clip-path="url(#p8f56285230)" d="M 274.068364 247.773866 
L 275.279477 247.831355 
L 274.669343 246.451087 
L 281.314685 248.79349 
L 274.477342 250.495892 
L 275.215477 249.179624 
L 274.004364 249.122134 
L 274.068364 247.773866 
"/>
    <path clip-path="url(#p8f56285230)" d="M 301.094244 247.773115 
L 306.674805 247.800687 
L 306.006589 246.447582 
L 312.745437 248.505582 
L 305.986582 250.496893 
L 306.668136 249.150457 
L 301.087575 249.122885 
L 301.094244 247.773115 
"/>
    <path clip-path="url(#p8f56285230)" d="M 328.136409 247.773167 
L 339.245281 247.624255 
L 338.552356 246.283635 
L 345.327822 248.217673 
L 338.606632 250.332632 
L 339.263373 248.97392 
L 328.154501 249.122833 
L 328.136409 247.773167 
"/>
    <path clip-path="url(#p8f56285230)" d="M 355.185346 247.773266 
L 372.974577 247.386917 
L 372.270535 246.052102 
L 379.06184 247.929765 
L 372.358459 250.100508 
L 373.003885 248.736385 
L 355.214654 249.122734 
L 355.185346 247.773266 
"/>
    <path clip-path="url(#p8f56285230)" d="M 382.237384 247.773325 
L 407.858253 247.121631 
L 407.149256 245.789442 
L 413.947491 247.641857 
L 407.252222 249.837493 
L 407.892575 248.470982 
L 382.271707 249.122675 
L 382.237384 247.773325 
"/>
    <path clip-path="url(#p8f56285230)" d="M 409.290945 247.773351 
L 443.894785 246.842613 
L 443.183843 245.51146 
L 449.984775 247.353948 
L 443.292719 249.559357 
L 443.931077 248.191912 
L 409.327237 249.122649 
L 409.290945 247.773351 
"/>
    <path clip-path="url(#p8f56285230)" d="M 57.767627 233.010255 
L 64.459758 234.726186 
L 64.141267 233.25107 
L 70.175834 236.888573 
L 63.135506 237.173539 
L 64.124504 236.033676 
L 57.432373 234.317745 
L 57.767627 233.010255 
"/>
    <path clip-path="url(#p8f56285230)" d="M 84.893984 233.033009 
L 86.954036 233.814725 
L 86.801922 232.313303 
L 92.39352 236.600665 
L 85.36529 236.099252 
L 86.475159 235.076708 
L 84.415107 234.294991 
L 84.893984 233.033009 
"/>
    <path clip-path="url(#p8f56285230)" d="M 111.973967 233.258625 
L 112.379341 233.523501 
L 112.503718 232.447875 
L 115.76284 236.312756 
L 110.914464 234.880125 
L 111.84959 234.334251 
L 111.444215 234.069375 
L 111.973967 233.258625 
"/>
    <path clip-path="url(#p8f56285230)" d="M 138.999721 233.511984 
L 139.151737 233.748069 
L 139.471891 233.207953 
L 140.283792 236.024848 
L 138.055382 234.120047 
L 138.679567 234.0521 
L 138.527552 233.816016 
L 138.999721 233.511984 
"/>
    <path clip-path="url(#p8f56285230)" d="M 166.025476 233.65018 
L 166.039295 233.857474 
L 166.440064 233.622541 
L 165.956378 235.73694 
L 165.1963 233.705459 
L 165.624707 233.885114 
L 165.610888 233.67782 
L 166.025476 233.65018 
"/>
    <path clip-path="url(#p8f56285230)" d="M 193.05123 233.673213 
L 193.042017 233.851716 
L 193.408237 233.691639 
L 192.780597 235.449031 
L 192.337218 233.636361 
L 192.685011 233.83329 
L 192.694224 233.654787 
L 193.05123 233.673213 
"/>
    <path clip-path="url(#p8f56285230)" d="M 220.076985 233.581082 
L 220.159903 233.730795 
L 220.37641 233.415247 
L 220.756449 235.161123 
L 219.478136 233.912753 
L 219.860478 233.89663 
L 219.77756 233.746918 
L 220.076985 233.581082 
"/>
    <path clip-path="url(#p8f56285230)" d="M 247.10274 233.373788 
L 247.392951 233.49471 
L 247.344583 232.793365 
L 249.883934 234.873215 
L 246.619054 234.534635 
L 247.151108 234.075133 
L 246.860897 233.954212 
L 247.10274 233.373788 
"/>
    <path clip-path="url(#p8f56285230)" d="M 274.128494 233.051331 
L 274.741163 233.143462 
L 274.312756 231.825993 
L 280.163052 234.585307 
L 273.759972 235.502007 
L 274.556902 234.3688 
L 273.944233 234.276669 
L 274.128494 233.051331 
"/>
    <path clip-path="url(#p8f56285230)" d="M 301.131536 232.990331 
L 305.571406 233.258086 
L 304.97899 231.87012 
L 311.593804 234.297398 
L 304.735228 235.912137 
L 305.490152 234.605425 
L 301.050282 234.337669 
L 301.131536 232.990331 
"/>
    <path clip-path="url(#p8f56285230)" d="M 328.159996 232.989263 
L 338.1181 233.203878 
L 337.472447 231.839863 
L 344.176188 234.00949 
L 337.385196 235.888283 
L 338.089017 234.553351 
L 328.130913 234.338737 
L 328.159996 232.989263 
"/>
    <path clip-path="url(#p8f56285230)" d="M 355.201711 232.989109 
L 371.837897 233.03129 
L 371.166428 231.679796 
L 377.910206 233.721582 
L 371.156161 235.729143 
L 371.834474 234.381072 
L 355.198289 234.338891 
L 355.201711 232.989109 
"/>
    <path clip-path="url(#p8f56285230)" d="M 382.249456 232.989126 
L 406.7169 232.804605 
L 406.031847 231.459946 
L 412.795857 233.433673 
L 406.062384 235.509191 
L 406.727079 234.154353 
L 382.259635 234.338874 
L 382.249456 232.989126 
"/>
    <path clip-path="url(#p8f56285230)" d="M 409.300243 232.989165 
L 442.750775 232.550565 
L 442.058243 231.209743 
L 448.833142 233.145765 
L 442.111333 235.258755 
L 442.768472 233.900236 
L 409.317939 234.338835 
L 409.300243 232.989165 
"/>
    <path clip-path="url(#p8f56285230)" d="M 57.813033 218.239611 
L 63.473732 220.122707 
L 63.259409 218.628896 
L 69.024201 222.68039 
L 61.981213 222.47123 
L 63.047667 221.403485 
L 57.386967 219.520389 
L 57.813033 218.239611 
"/>
    <path clip-path="url(#p8f56285230)" d="M 84.972088 218.284477 
L 86.199723 218.939073 
L 86.239286 217.430484 
L 91.241887 222.392481 
L 84.334029 221.003622 
L 85.564638 220.130119 
L 84.337003 219.475523 
L 84.972088 218.284477 
"/>
    <path clip-path="url(#p8f56285230)" d="M 112.031548 218.589788 
L 112.32176 218.912246 
L 112.676463 218.009365 
L 114.611207 222.104573 
L 110.741719 219.750635 
L 111.676845 219.492669 
L 111.386634 219.170212 
L 112.031548 218.589788 
"/>
    <path clip-path="url(#p8f56285230)" d="M 139.057303 218.843148 
L 139.094155 219.136814 
L 139.644636 218.769443 
L 139.132159 221.816665 
L 137.882637 218.990557 
L 138.506822 219.210519 
L 138.46997 218.916852 
L 139.057303 218.843148 
"/>
    <path clip-path="url(#p8f56285230)" d="M 166.083057 218.981344 
L 165.981714 219.246219 
L 166.612809 219.184031 
L 164.804745 221.528756 
L 165.023555 218.575969 
L 165.451962 219.043532 
L 165.553306 218.778656 
L 166.083057 218.981344 
"/>
    <path clip-path="url(#p8f56285230)" d="M 193.108812 219.004376 
L 192.984436 219.240461 
L 193.580982 219.253129 
L 191.628963 221.240848 
L 192.164473 218.506871 
L 192.512266 218.991708 
L 192.636642 218.755624 
L 193.108812 219.004376 
"/>
    <path clip-path="url(#p8f56285230)" d="M 220.134567 218.912246 
L 220.102321 219.11954 
L 220.549155 218.976737 
L 219.604815 220.95294 
L 219.305391 218.783263 
L 219.687733 219.055048 
L 219.719979 218.847754 
L 220.134567 218.912246 
"/>
    <path clip-path="url(#p8f56285230)" d="M 247.160321 218.704952 
L 247.33537 218.883455 
L 247.517328 218.354855 
L 248.732301 220.665031 
L 246.446309 219.405145 
L 246.978363 219.233551 
L 246.803315 219.055048 
L 247.160321 218.704952 
"/>
    <path clip-path="url(#p8f56285230)" d="M 274.186076 218.382494 
L 274.683581 218.532207 
L 274.485501 217.387483 
L 279.011419 220.377123 
L 273.587227 220.372517 
L 274.384157 219.527218 
L 273.886651 219.377506 
L 274.186076 218.382494 
"/>
    <path clip-path="url(#p8f56285230)" d="M 301.177459 218.210679 
L 304.504835 218.640943 
L 304.008614 217.215752 
L 310.442171 220.089215 
L 303.489314 221.231676 
L 304.331735 219.979585 
L 301.004359 219.549321 
L 301.177459 218.210679 
"/>
    <path clip-path="url(#p8f56285230)" d="M 328.187164 218.206397 
L 337.003835 218.752321 
L 336.41365 217.363405 
L 343.024555 219.801307 
L 336.163395 221.405025 
L 336.920416 220.099527 
L 328.103745 219.553603 
L 328.187164 218.206397 
"/>
    <path clip-path="url(#p8f56285230)" d="M 355.21982 218.205398 
L 370.706973 218.660416 
L 370.072011 217.291391 
L 376.758573 219.513398 
L 369.95309 221.339005 
L 370.667333 220.00962 
L 355.18018 219.554602 
L 355.21982 218.205398 
"/>
    <path clip-path="url(#p8f56285230)" d="M 382.262479 218.205153 
L 405.578537 218.479245 
L 404.919556 217.121618 
L 411.644224 219.22549 
L 404.871957 221.170699 
L 405.562671 219.828938 
L 382.246612 219.554847 
L 382.262479 218.205153 
"/>
    <path clip-path="url(#p8f56285230)" d="M 409.310104 218.205107 
L 441.608488 218.253574 
L 440.935621 216.902776 
L 447.681509 218.937582 
L 440.929544 220.952132 
L 441.606462 219.60336 
L 409.308078 219.554893 
L 409.310104 218.205107 
"/>
    <path clip-path="url(#p8f56285230)" d="M 57.864509 203.475101 
L 62.548981 205.470728 
L 62.457099 203.96442 
L 67.872568 208.472206 
L 60.870047 207.689817 
L 62.019964 206.712527 
L 57.335491 204.716899 
L 57.864509 203.475101 
"/>
    <path clip-path="url(#p8f56285230)" d="M 85.060212 203.556634 
L 85.64163 203.993929 
L 85.913598 202.509531 
L 90.090254 208.184298 
L 83.479596 205.745725 
L 84.830296 205.072661 
L 84.248878 204.635366 
L 85.060212 203.556634 
"/>
    <path clip-path="url(#p8f56285230)" d="M 112.08913 203.920952 
L 112.264178 204.300991 
L 112.849208 203.570855 
L 113.459573 207.89639 
L 110.568974 204.621145 
L 111.5041 204.651087 
L 111.329052 204.271048 
L 112.08913 203.920952 
"/>
    <path clip-path="url(#p8f56285230)" d="M 139.114884 204.174311 
L 139.036573 204.525559 
L 139.817381 204.330933 
L 137.980526 207.608481 
L 137.709892 203.861067 
L 138.334077 204.368937 
L 138.412388 204.017689 
L 139.114884 204.174311 
"/>
    <path clip-path="url(#p8f56285230)" d="M 166.140639 204.312507 
L 165.924132 204.634964 
L 166.785554 204.745521 
L 163.653111 207.320573 
L 164.85081 203.446479 
L 165.279217 204.20195 
L 165.495725 203.879493 
L 166.140639 204.312507 
"/>
    <path clip-path="url(#p8f56285230)" d="M 193.166394 204.33554 
L 192.926854 204.629206 
L 193.753727 204.814619 
L 190.47733 207.032665 
L 191.991728 203.377381 
L 192.339521 204.150127 
L 192.579061 203.85646 
L 193.166394 204.33554 
"/>
    <path clip-path="url(#p8f56285230)" d="M 220.192148 204.243409 
L 220.044739 204.508285 
L 220.7219 204.538227 
L 218.453182 206.744756 
L 219.132646 203.653773 
L 219.514988 204.213467 
L 219.662397 203.948591 
L 220.192148 204.243409 
"/>
    <path clip-path="url(#p8f56285230)" d="M 247.217903 204.036115 
L 247.277788 204.2722 
L 247.690073 203.916345 
L 247.580667 206.456848 
L 246.273564 204.275655 
L 246.805618 204.39197 
L 246.745733 204.155885 
L 247.217903 204.036115 
"/>
    <path clip-path="url(#p8f56285230)" d="M 274.243658 203.713658 
L 274.626 203.920952 
L 274.658246 202.948973 
L 277.859786 206.16894 
L 273.414482 205.243027 
L 274.211412 204.685636 
L 273.82907 204.478342 
L 274.243658 203.713658 
"/>
    <path clip-path="url(#p8f56285230)" d="M 301.234469 203.436552 
L 303.499065 203.929547 
L 303.126736 202.467091 
L 309.290537 205.881031 
L 302.265378 206.423779 
L 303.211946 205.248443 
L 300.947349 204.755448 
L 301.234469 203.436552 
"/>
    <path clip-path="url(#p8f56285230)" d="M 328.218625 203.425085 
L 335.907856 204.263675 
L 335.383281 202.848675 
L 341.872922 205.593123 
L 334.94426 206.874166 
L 335.761515 205.605506 
L 328.072284 204.766915 
L 328.218625 203.425085 
"/>
    <path clip-path="url(#p8f56285230)" d="M 355.239921 203.422288 
L 369.583456 204.272216 
L 368.989586 202.884872 
L 375.60694 205.305215 
L 368.750061 206.927141 
L 369.503614 205.619639 
L 355.160079 204.769712 
L 355.239921 203.422288 
"/>
    <path clip-path="url(#p8f56285230)" d="M 382.276553 203.421466 
L 404.443789 204.144703 
L 403.81327 202.773627 
L 410.492591 205.017307 
L 403.681224 206.820833 
L 404.399773 205.493772 
L 382.232538 204.770534 
L 382.276553 203.421466 
"/>
    <path clip-path="url(#p8f56285230)" d="M 409.320574 203.421204 
L 440.468198 203.951254 
L 439.816368 202.590179 
L 446.529875 204.729398 
L 439.747469 206.638953 
L 440.445231 205.300845 
L 409.297608 204.770796 
L 409.320574 203.421204 
"/>
    <path clip-path="url(#p8f56285230)" d="M 57.922019 188.718886 
L 61.704924 190.772736 
L 61.755848 189.264488 
L 66.720935 194.264023 
L 59.823733 192.823174 
L 61.060886 191.958964 
L 57.277981 189.905114 
L 57.922019 188.718886 
"/>
    <path clip-path="url(#p8f56285230)" d="M 85.120957 188.883592 
L 85.549364 189.350004 
L 86.05378 188.026777 
L 88.938621 193.976114 
L 83.255311 190.597223 
L 84.616542 190.206819 
L 84.188134 189.740408 
L 85.120957 188.883592 
"/>
    <path clip-path="url(#p8f56285230)" d="M 112.146712 189.252115 
L 112.206596 189.689736 
L 113.021953 189.132345 
L 112.30794 193.688206 
L 110.396229 189.491655 
L 111.331355 189.809506 
L 111.27147 189.371885 
L 112.146712 189.252115 
"/>
    <path clip-path="url(#p8f56285230)" d="M 139.172466 189.505474 
L 138.978992 189.914304 
L 139.990126 189.892423 
L 136.828893 193.400298 
L 137.537147 188.731577 
L 138.161332 189.527355 
L 138.354807 189.118526 
L 139.172466 189.505474 
"/>
    <path clip-path="url(#p8f56285230)" d="M 166.198221 189.64367 
L 165.86655 190.023709 
L 166.958299 190.307011 
L 162.501478 193.11239 
L 164.678065 188.316989 
L 165.106473 189.360369 
L 165.438143 188.98033 
L 166.198221 189.64367 
"/>
    <path clip-path="url(#p8f56285230)" d="M 193.223975 189.666703 
L 192.869272 190.017951 
L 193.926472 190.376109 
L 189.325697 192.824481 
L 191.818983 188.247891 
L 192.166776 189.308545 
L 192.521479 188.957297 
L 193.223975 189.666703 
"/>
    <path clip-path="url(#p8f56285230)" d="M 220.24973 189.574572 
L 219.987158 189.89703 
L 220.894645 190.099717 
L 217.301549 192.536573 
L 218.959901 188.524283 
L 219.342243 189.371885 
L 219.604815 189.049428 
L 220.24973 189.574572 
"/>
    <path clip-path="url(#p8f56285230)" d="M 247.275485 189.367278 
L 247.220206 189.660945 
L 247.862818 189.477835 
L 246.429034 192.248665 
L 246.100819 189.146165 
L 246.632873 189.550388 
L 246.688152 189.256722 
L 247.275485 189.367278 
"/>
    <path clip-path="url(#p8f56285230)" d="M 274.301239 189.044821 
L 274.568418 189.309697 
L 274.830991 188.510463 
L 276.708153 191.960756 
L 273.241737 190.113537 
L 274.038667 189.844055 
L 273.771488 189.579179 
L 274.301239 189.044821 
"/>
    <path clip-path="url(#p8f56285230)" d="M 301.30527 188.672054 
L 302.593754 189.103654 
L 302.38253 187.609402 
L 308.138904 191.672848 
L 301.096365 191.449076 
L 302.165032 190.383546 
L 300.876548 189.951946 
L 301.30527 188.672054 
"/>
    <path clip-path="url(#p8f56285230)" d="M 328.25522 188.646093 
L 334.837887 189.731148 
L 334.391509 188.289568 
L 340.721289 191.38494 
L 333.73292 192.285012 
L 334.618357 191.062963 
L 328.03569 189.977907 
L 328.25522 188.646093 
"/>
    <path clip-path="url(#p8f56285230)" d="M 355.262298 188.639988 
L 368.469497 189.86434 
L 367.922081 188.458018 
L 374.455307 191.097031 
L 367.548294 192.49009 
L 368.344902 191.208364 
L 355.137702 189.984012 
L 355.262298 188.639988 
"/>
    <path clip-path="url(#p8f56285230)" d="M 382.291791 188.638135 
L 403.31342 189.800045 
L 402.714048 188.415069 
L 409.340958 190.809123 
L 402.490572 192.458258 
L 403.238929 191.147775 
L 382.2173 189.985865 
L 382.291791 188.638135 
"/>
    <path clip-path="url(#p8f56285230)" d="M 409.331704 188.637486 
L 439.330225 189.643183 
L 438.700937 188.271541 
L 445.378242 190.521215 
L 438.565259 192.318628 
L 439.284999 190.992212 
L 409.286478 189.986514 
L 409.331704 188.637486 
"/>
    <path clip-path="url(#p8f56285230)" d="M 57.984656 173.973454 
L 60.963047 176.03939 
L 61.177813 174.545643 
L 65.569302 180.055839 
L 58.869877 177.872917 
L 60.193735 177.148482 
L 57.215344 175.082546 
L 57.984656 173.973454 
"/>
    <path clip-path="url(#p8f56285230)" d="M 85.178539 174.214756 
L 85.491783 174.738749 
L 86.226525 173.588267 
L 87.786988 179.767931 
L 83.082566 175.467733 
L 84.443797 175.365237 
L 84.130552 174.841244 
L 85.178539 174.214756 
"/>
    <path clip-path="url(#p8f56285230)" d="M 112.204293 174.583278 
L 112.149015 175.078481 
L 113.194698 174.693835 
L 111.156307 179.480023 
L 110.223484 174.362165 
L 111.15861 174.967924 
L 111.213889 174.472722 
L 112.204293 174.583278 
"/>
    <path clip-path="url(#p8f56285230)" d="M 139.230048 174.836638 
L 138.92141 175.303049 
L 140.162871 175.453913 
L 135.677259 179.192114 
L 137.364402 173.602087 
L 137.988587 174.685774 
L 138.297225 174.219362 
L 139.230048 174.836638 
"/>
    <path clip-path="url(#p8f56285230)" d="M 166.255802 174.974834 
L 165.808969 175.412454 
L 167.131044 175.868501 
L 161.349845 178.904206 
L 164.50532 173.187499 
L 164.933728 174.518787 
L 165.380561 174.081166 
L 166.255802 174.974834 
"/>
    <path clip-path="url(#p8f56285230)" d="M 193.281557 174.997866 
L 192.811691 175.406696 
L 194.099217 175.937599 
L 188.174064 178.616298 
L 191.646238 173.118401 
L 191.994031 174.466963 
L 192.463897 174.058134 
L 193.281557 174.997866 
"/>
    <path clip-path="url(#p8f56285230)" d="M 220.307312 174.905736 
L 219.929576 175.285775 
L 221.06739 175.661207 
L 216.149916 178.32839 
L 218.787156 173.394793 
L 219.169498 174.530303 
L 219.547234 174.150264 
L 220.307312 174.905736 
"/>
    <path clip-path="url(#p8f56285230)" d="M 247.333066 174.698442 
L 247.162625 175.04969 
L 248.035563 175.039325 
L 245.277401 178.040481 
L 245.928074 174.016675 
L 246.460128 174.708806 
L 246.63057 174.357558 
L 247.333066 174.698442 
"/>
    <path clip-path="url(#p8f56285230)" d="M 274.358821 174.375984 
L 274.510837 174.698442 
L 275.003736 174.071953 
L 275.556519 177.752573 
L 273.068992 174.984047 
L 273.865922 175.002473 
L 273.713906 174.680016 
L 274.358821 174.375984 
"/>
    <path clip-path="url(#p8f56285230)" d="M 301.384576 173.938364 
L 301.974212 174.23203 
L 301.971908 172.759091 
L 306.987271 177.464665 
L 300.20991 176.296909 
L 301.386879 175.411303 
L 300.797243 175.117636 
L 301.384576 173.938364 
"/>
    <path clip-path="url(#p8f56285230)" d="M 328.297888 173.870547 
L 333.805009 175.147399 
L 333.452423 173.680058 
L 339.569656 177.176756 
L 332.53782 177.624779 
L 333.500141 176.462306 
L 327.993021 175.185453 
L 328.297888 173.870547 
"/>
    <path clip-path="url(#p8f56285230)" d="M 355.287272 173.858773 
L 367.367903 175.434174 
L 366.87322 174.008448 
L 373.303674 176.888848 
L 366.349589 178.023809 
L 367.193359 176.772627 
L 355.112728 175.197227 
L 355.287272 173.858773 
"/>
    <path clip-path="url(#p8f56285230)" d="M 382.308317 173.855252 
L 402.188366 175.444244 
L 401.623163 174.044976 
L 408.189325 176.60094 
L 401.300531 178.081463 
L 402.080822 176.789739 
L 382.200773 175.200748 
L 382.308317 173.855252 
"/>
    <path clip-path="url(#p8f56285230)" d="M 409.343547 173.853987 
L 438.194947 175.32891 
L 437.589846 173.946427 
L 444.226609 176.313031 
L 437.383108 177.990506 
L 438.126034 176.676936 
L 409.274634 175.202013 
L 409.343547 173.853987 
"/>
    <path clip-path="url(#p8f56285230)" d="M 58.050164 159.241175 
L 60.342407 161.293351 
L 60.73991 159.837537 
L 64.417668 165.847656 
L 58.038924 162.854487 
L 59.442078 162.299002 
L 57.149836 160.246825 
L 58.050164 159.241175 
"/>
    <path clip-path="url(#p8f56285230)" d="M 85.23612 159.545919 
L 85.434201 160.127494 
L 86.39927 159.149757 
L 86.635355 165.559748 
L 82.909821 160.338243 
L 84.271052 160.523656 
L 84.072971 159.942081 
L 85.23612 159.545919 
"/>
    <path clip-path="url(#p8f56285230)" d="M 112.261875 159.914442 
L 112.091433 160.467226 
L 113.367443 160.255325 
L 110.004674 165.271839 
L 110.050739 159.232675 
L 110.985865 160.126342 
L 111.156307 159.573558 
L 112.261875 159.914442 
"/>
    <path clip-path="url(#p8f56285230)" d="M 139.287629 160.167801 
L 138.863828 160.691794 
L 140.335616 161.015403 
L 134.525626 164.983931 
L 137.191657 158.472597 
L 137.815842 159.844192 
L 138.239643 159.320199 
L 139.287629 160.167801 
"/>
    <path clip-path="url(#p8f56285230)" d="M 166.264363 160.250363 
L 165.201662 161.186759 
L 166.600387 161.753305 
L 160.198212 164.696023 
L 163.923302 158.715125 
L 164.309301 160.174033 
L 165.372001 159.237637 
L 166.264363 160.250363 
"/>
    <path clip-path="url(#p8f56285230)" d="M 193.293442 160.271712 
L 192.192553 161.14939 
L 193.561695 161.784098 
L 187.022431 164.408114 
L 191.037404 158.617827 
L 191.351122 160.093966 
L 192.452012 159.216288 
L 193.293442 160.271712 
"/>
    <path clip-path="url(#p8f56285230)" d="M 220.364893 160.236899 
L 219.871994 160.67452 
L 221.240135 161.222697 
L 214.998283 164.120206 
L 218.614411 158.265303 
L 218.996753 159.688722 
L 219.489652 159.251101 
L 220.364893 160.236899 
"/>
    <path clip-path="url(#p8f56285230)" d="M 247.390648 160.029605 
L 247.105043 160.438435 
L 248.208308 160.600815 
L 244.125768 163.832298 
L 245.755329 158.887185 
L 246.287383 159.867225 
L 246.572988 159.458395 
L 247.390648 160.029605 
"/>
    <path clip-path="url(#p8f56285230)" d="M 274.416403 159.707148 
L 274.453255 160.087187 
L 275.17648 159.633443 
L 274.404886 163.54439 
L 272.896247 159.854557 
L 273.693177 160.160891 
L 273.656325 159.780852 
L 274.416403 159.707148 
"/>
    <path clip-path="url(#p8f56285230)" d="M 301.442157 159.269527 
L 301.91663 159.620775 
L 302.144653 158.320581 
L 305.835638 163.256481 
L 300.037165 161.167419 
L 301.214134 160.569721 
L 300.739661 160.218473 
L 301.442157 159.269527 
"/>
    <path clip-path="url(#p8f56285230)" d="M 328.34758 159.100085 
L 332.824915 160.505527 
L 332.585252 159.015571 
L 338.418023 162.968573 
L 331.372498 162.87906 
L 332.420664 161.793356 
L 327.943329 160.387915 
L 328.34758 159.100085 
"/>
    <path clip-path="url(#p8f56285230)" d="M 355.315199 159.079011 
L 366.282338 160.978889 
L 365.847746 159.533713 
L 372.15204 162.680665 
L 365.156555 163.523647 
L 366.051941 162.308867 
L 355.084801 160.408989 
L 355.315199 159.079011 
"/>
    <path clip-path="url(#p8f56285230)" d="M 382.326268 159.072928 
L 401.06977 161.076184 
L 400.542144 159.662319 
L 407.037692 162.392756 
L 400.11181 163.688748 
L 400.926326 162.418327 
L 382.182823 160.415072 
L 382.326268 159.072928 
"/>
    <path clip-path="url(#p8f56285230)" d="M 409.356163 159.07075 
L 437.0628 161.007947 
L 436.483695 159.614375 
L 443.074976 162.104848 
L 436.201261 163.653874 
L 436.968656 162.354446 
L 409.262019 160.41725 
L 409.356163 159.07075 
"/>
    <path clip-path="url(#p8f56285230)" d="M 58.114665 144.523422 
L 59.851496 146.570906 
L 60.444249 145.183084 
L 63.266035 151.639472 
L 57.356257 147.802553 
L 58.822166 147.444062 
L 57.085335 145.396578 
L 58.114665 144.523422 
"/>
    <path clip-path="url(#p8f56285230)" d="M 85.293702 144.877082 
L 85.376619 145.516239 
L 86.572015 144.711247 
L 85.483721 151.351564 
L 82.737076 145.208753 
L 84.098307 145.682074 
L 84.015389 145.042918 
L 85.293702 144.877082 
"/>
    <path clip-path="url(#p8f56285230)" d="M 112.319456 145.245605 
L 112.033851 145.855971 
L 113.540188 145.816815 
L 108.853041 151.063656 
L 109.877994 144.103185 
L 110.81312 145.284761 
L 111.098725 144.674395 
L 112.319456 145.245605 
"/>
    <path clip-path="url(#p8f56285230)" d="M 139.258647 145.418743 
L 137.997691 146.779391 
L 139.446456 147.201866 
L 133.373993 150.775748 
L 136.476389 144.449408 
L 137.007668 145.861905 
L 138.268625 144.501257 
L 139.258647 145.418743 
"/>
    <path clip-path="url(#p8f56285230)" d="M 166.244969 145.482814 
L 164.178689 147.169573 
L 165.555076 147.788413 
L 159.046579 150.487839 
L 162.994356 144.651531 
L 163.325115 146.123945 
L 165.391395 144.437186 
L 166.244969 145.482814 
"/>
    <path clip-path="url(#p8f56285230)" d="M 193.277094 145.500341 
L 191.138233 147.100969 
L 192.487308 147.777284 
L 185.870798 150.199931 
L 190.061106 144.535238 
L 190.329499 146.020287 
L 192.46836 144.419659 
L 193.277094 145.500341 
"/>
    <path clip-path="url(#p8f56285230)" d="M 220.353452 145.483309 
L 218.982608 146.599716 
L 220.358276 147.220154 
L 213.84665 149.912023 
L 217.801199 144.080301 
L 218.130249 145.553098 
L 219.501093 144.436691 
L 220.353452 145.483309 
"/>
    <path clip-path="url(#p8f56285230)" d="M 247.44823 145.360768 
L 247.047461 145.82718 
L 248.381052 146.162305 
L 242.974135 149.624114 
L 245.582584 143.757695 
L 246.114638 145.025643 
L 246.515407 144.559232 
L 247.44823 145.360768 
"/>
    <path clip-path="url(#p8f56285230)" d="M 274.473984 145.038311 
L 274.395673 145.475932 
L 275.349225 145.194933 
L 273.253253 149.336206 
L 272.723502 144.725067 
L 273.520432 145.31931 
L 273.598743 144.881689 
L 274.473984 145.038311 
"/>
    <path clip-path="url(#p8f56285230)" d="M 301.499739 144.60069 
L 301.859048 145.00952 
L 302.317398 143.882071 
L 304.684005 149.048298 
L 299.86442 146.037929 
L 301.041389 145.728139 
L 300.682079 145.31931 
L 301.499739 144.60069 
"/>
    <path clip-path="url(#p8f56285230)" d="M 328.405029 144.337022 
L 331.919157 145.801242 
L 331.815328 144.29571 
L 337.266389 148.76039 
L 330.257881 148.033581 
L 331.400009 147.047199 
L 327.88588 145.582978 
L 328.405029 144.337022 
"/>
    <path clip-path="url(#p8f56285230)" d="M 355.346456 144.301189 
L 365.217565 146.495568 
L 364.851666 145.031491 
L 371.000407 148.472481 
L 363.972931 148.984356 
L 364.924654 147.81319 
L 355.053544 145.618811 
L 355.346456 144.301189 
"/>
    <path clip-path="url(#p8f56285230)" d="M 382.345791 144.291303 
L 399.959033 146.69467 
L 399.472826 145.266031 
L 405.886058 148.184573 
L 398.925355 149.278211 
L 399.776542 148.032063 
L 382.1633 145.628697 
L 382.345791 144.291303 
"/>
    <path clip-path="url(#p8f56285230)" d="M 409.369615 144.287826 
L 435.934301 146.679773 
L 435.383175 145.274901 
L 441.923343 147.896665 
L 435.02003 149.307945 
L 435.813253 148.024121 
L 409.248567 145.632174 
L 409.369615 144.287826 
"/>
    <path clip-path="url(#p8f56285230)" d="M 58.173023 129.819453 
L 59.478498 131.917538 
L 60.267996 130.63142 
L 62.114402 137.431289 
L 56.82986 132.770705 
L 58.332452 132.630632 
L 57.026977 130.532547 
L 58.173023 129.819453 
"/>
    <path clip-path="url(#p8f56285230)" d="M 85.328717 130.207201 
L 85.287072 131.107036 
L 86.666617 130.495267 
L 84.332088 137.143381 
L 82.621586 130.308059 
L 83.938728 131.044634 
L 83.980374 130.144799 
L 85.328717 130.207201 
"/>
    <path clip-path="url(#p8f56285230)" d="M 112.287807 130.52323 
L 111.405192 131.994256 
L 112.909854 132.109999 
L 107.701407 136.855472 
L 109.437556 130.02662 
L 110.247759 131.299796 
L 111.130375 129.82877 
L 112.287807 130.52323 
"/>
    <path clip-path="url(#p8f56285230)" d="M 139.235302 130.658714 
L 137.038449 132.805287 
L 138.464494 133.299048 
L 132.22236 136.567564 
L 135.6345 130.402766 
L 136.095118 131.839859 
L 138.291971 129.693286 
L 139.235302 130.658714 
"/>
    <path clip-path="url(#p8f56285230)" d="M 166.230047 130.710648 
L 163.11864 133.107517 
L 164.477018 133.764947 
L 157.894946 136.279656 
L 162.005826 130.557061 
L 162.294909 132.038221 
L 165.406317 129.641352 
L 166.230047 130.710648 
"/>
    <path clip-path="url(#p8f56285230)" d="M 193.264634 130.725445 
L 190.056079 133.014033 
L 191.389338 133.721017 
L 184.719164 135.991748 
L 189.037898 130.424345 
L 189.272266 131.915142 
L 192.480821 129.626555 
L 193.264634 130.725445 
"/>
    <path clip-path="url(#p8f56285230)" d="M 220.33711 130.712204 
L 217.930687 132.551508 
L 219.286566 133.214078 
L 212.695016 135.703839 
L 216.827542 129.996855 
L 217.111013 131.4791 
L 219.517435 129.639796 
L 220.33711 130.712204 
"/>
    <path clip-path="url(#p8f56285230)" d="M 247.462725 130.649508 
L 246.564981 131.561279 
L 248.000302 132.027389 
L 241.822502 135.415931 
L 245.114862 129.186341 
L 245.603167 130.614263 
L 246.500912 129.702492 
L 247.462725 130.649508 
"/>
    <path clip-path="url(#p8f56285230)" d="M 274.531566 130.369474 
L 274.338092 130.864677 
L 275.52197 130.756423 
L 272.10162 135.128023 
L 272.550757 129.595577 
L 273.347687 130.477728 
L 273.541161 129.982526 
L 274.531566 130.369474 
"/>
    <path clip-path="url(#p8f56285230)" d="M 301.557321 129.931854 
L 301.801467 130.398265 
L 302.490143 129.443561 
L 303.532371 134.840114 
L 299.691675 130.908439 
L 300.868644 130.886558 
L 300.624498 130.420146 
L 301.557321 129.931854 
"/>
    <path clip-path="url(#p8f56285230)" d="M 328.470304 129.584431 
L 331.115487 131.036988 
L 331.173618 129.529001 
L 336.114756 134.552206 
L 329.224519 133.078413 
L 330.465787 132.220126 
L 327.820605 130.767569 
L 328.470304 129.584431 
"/>
    <path clip-path="url(#p8f56285230)" d="M 355.381422 129.525948 
L 364.17973 131.981451 
L 363.892522 130.499926 
L 369.848774 134.264298 
L 362.803992 134.400236 
L 363.816887 133.281555 
L 355.018578 130.826052 
L 355.381422 129.525948 
"/>
    <path clip-path="url(#p8f56285230)" d="M 382.367045 129.510549 
L 398.857866 132.298444 
L 398.417414 130.855043 
L 404.734425 133.97639 
L 397.742418 134.847748 
L 398.632867 133.629346 
L 382.142046 130.841451 
L 382.367045 129.510549 
"/>
    <path clip-path="url(#p8f56285230)" d="M 409.383971 129.505273 
L 434.810051 132.343837 
L 434.289084 130.927504 
L 440.771709 133.688481 
L 433.839805 134.951863 
L 434.660291 133.68529 
L 409.234211 130.846727 
L 409.383971 129.505273 
"/>
    <path clip-path="url(#p8f56285230)" d="M 58.220136 115.125706 
L 59.186262 117.375588 
L 60.16024 116.222864 
L 60.962769 123.223106 
L 56.439424 117.820626 
L 57.945989 117.908175 
L 56.979864 115.658294 
L 58.220136 115.125706 
"/>
    <path clip-path="url(#p8f56285230)" d="M 85.31691 115.521439 
L 85.007772 117.103357 
L 86.46194 116.699871 
L 83.180455 122.935197 
L 82.487753 115.923236 
L 83.683043 116.844479 
L 83.992181 115.262561 
L 85.31691 115.521439 
"/>
    <path clip-path="url(#p8f56285230)" d="M 112.259099 115.783117 
L 110.619833 118.088334 
L 112.110966 118.32056 
L 106.549774 122.647289 
L 108.810918 115.973859 
L 109.519817 117.306101 
L 111.159083 115.000883 
L 112.259099 115.783117 
"/>
    <path clip-path="url(#p8f56285230)" d="M 139.216686 115.892227 
L 136.025818 118.782159 
L 137.432145 119.329563 
L 131.070727 122.359381 
L 134.713846 116.328202 
L 135.119719 117.781706 
L 138.310587 114.891773 
L 139.216686 115.892227 
"/>
    <path clip-path="url(#p8f56285230)" d="M 166.218246 115.935535 
L 162.035189 119.014434 
L 163.378852 119.70144 
L 156.743312 122.071472 
L 160.978469 116.440231 
L 161.235062 117.927364 
L 165.418118 114.848465 
L 166.218246 115.935535 
"/>
    <path clip-path="url(#p8f56285230)" d="M 193.25484 115.948301 
L 188.956354 118.90085 
L 190.27688 119.63134 
L 183.567531 121.783564 
L 187.984204 116.293533 
L 188.192128 117.788248 
L 192.490615 114.835699 
L 193.25484 115.948301 
"/>
    <path clip-path="url(#p8f56285230)" d="M 220.324493 115.937616 
L 216.851148 118.466287 
L 218.191206 119.160299 
L 211.543383 121.495656 
L 215.807883 115.886603 
L 216.056707 117.375055 
L 219.530052 114.846384 
L 220.324493 115.937616 
"/>
    <path clip-path="url(#p8f56285230)" d="M 247.439171 115.888296 
L 245.594883 117.587868 
L 247.005884 118.123107 
L 240.670868 121.207748 
L 244.261767 115.145332 
L 244.680177 116.595276 
L 246.524465 114.895704 
L 247.439171 115.888296 
"/>
    <path clip-path="url(#p8f56285230)" d="M 274.589148 115.700638 
L 274.28051 116.253422 
L 275.694715 116.317913 
L 270.949987 120.919839 
L 272.378012 114.466087 
L 273.174942 115.636146 
L 273.48358 115.083362 
L 274.589148 115.700638 
"/>
    <path clip-path="url(#p8f56285230)" d="M 301.614902 115.263017 
L 301.743885 115.78701 
L 302.662888 115.005051 
L 302.380738 120.631931 
L 299.51893 115.778949 
L 300.695899 116.044976 
L 300.566916 115.520983 
L 301.614902 115.263017 
"/>
    <path clip-path="url(#p8f56285230)" d="M 328.542079 114.84595 
L 330.445298 116.228357 
L 330.692497 114.739633 
L 334.963123 120.344023 
L 328.312753 118.015932 
L 329.65205 117.320456 
L 327.748831 115.93805 
L 328.542079 114.84595 
"/>
    <path clip-path="url(#p8f56285230)" d="M 355.420428 114.754119 
L 363.176638 117.434379 
L 362.979613 115.938188 
L 368.697141 120.056114 
L 361.657044 119.765476 
L 362.735782 118.710141 
L 354.979572 116.029881 
L 355.420428 114.754119 
"/>
    <path clip-path="url(#p8f56285230)" d="M 382.390196 114.73088 
L 397.768362 117.886227 
L 397.378543 116.428336 
L 403.582792 119.768206 
L 396.564637 120.395057 
L 397.49706 119.208467 
L 382.118894 116.05312 
L 382.390196 114.73088 
"/>
    <path clip-path="url(#p8f56285230)" d="M 409.399303 114.723163 
L 433.690755 117.999556 
L 433.202342 116.57167 
L 439.620076 119.480298 
L 432.661071 120.584692 
L 433.510332 119.33723 
L 409.218879 116.060837 
L 409.399303 114.723163 
"/>
    <path clip-path="url(#p8f56285230)" d="M 58.252695 100.436332 
L 58.918821 102.968996 
L 60.052544 101.972965 
L 59.811136 109.014922 
L 56.136372 103.002972 
L 57.61343 103.312332 
L 56.947305 100.779668 
L 58.252695 100.436332 
"/>
    <path clip-path="url(#p8f56285230)" d="M 85.296693 100.815673 
L 84.540027 103.155363 
L 86.031994 102.928562 
L 82.028822 108.727014 
L 82.179112 101.682523 
L 83.255733 102.740017 
L 84.012398 100.400327 
L 85.296693 100.815673 
"/>
    <path clip-path="url(#p8f56285230)" d="M 112.234583 101.031485 
L 109.734995 104.133163 
L 111.209464 104.45464 
L 105.398141 108.439106 
L 108.056512 101.913732 
L 108.684011 103.286194 
L 111.183599 100.184515 
L 112.234583 101.031485 
"/>
    <path clip-path="url(#p8f56285230)" d="M 139.201583 101.121501 
L 134.978551 104.723176 
L 136.367947 105.312231 
L 129.919094 108.151197 
L 133.740265 102.231224 
L 134.102657 103.696173 
L 138.325689 100.094499 
L 139.201583 101.121501 
"/>
    <path clip-path="url(#p8f56285230)" d="M 166.208695 101.158437 
L 160.936125 104.899112 
L 162.267587 105.609473 
L 155.591679 107.863289 
L 159.924511 102.306851 
L 160.155099 103.798238 
L 165.427669 100.057563 
L 166.208695 101.158437 
"/>
    <path clip-path="url(#p8f56285230)" d="M 193.246948 101.16964 
L 187.844882 104.769035 
L 189.154964 105.518095 
L 182.415898 107.575381 
L 186.909639 102.148252 
L 187.096441 103.645754 
L 192.498507 100.04636 
L 193.246948 101.16964 
"/>
    <path clip-path="url(#p8f56285230)" d="M 220.314478 101.160769 
L 215.753873 104.355395 
L 217.081052 105.073727 
L 210.39175 107.287472 
L 214.757822 101.757115 
L 214.979463 103.249858 
L 219.540068 100.055231 
L 220.314478 101.160769 
"/>
    <path clip-path="url(#p8f56285230)" d="M 247.420837 101.120585 
L 244.571517 103.560975 
L 245.96214 104.147125 
L 239.519235 106.999564 
L 243.328024 101.071617 
L 243.693478 102.535806 
L 246.542799 100.095415 
L 247.420837 101.120585 
"/>
    <path clip-path="url(#p8f56285230)" d="M 274.590728 100.992917 
L 273.816972 102.107294 
L 275.310618 102.322764 
L 269.798354 106.711656 
L 271.984432 100.013261 
L 272.708243 101.337459 
L 273.481999 100.223083 
L 274.590728 100.992917 
"/>
    <path clip-path="url(#p8f56285230)" d="M 301.672484 100.59418 
L 301.686303 101.175755 
L 302.835633 100.566541 
L 301.229105 106.423748 
L 299.346185 100.649459 
L 300.523154 101.203394 
L 300.509334 100.62182 
L 301.672484 100.59418 
"/>
    <path clip-path="url(#p8f56285230)" d="M 328.616749 100.124924 
L 329.935096 101.411116 
L 330.394607 99.973668 
L 333.81149 106.135839 
L 327.566843 102.872127 
L 328.992507 102.377269 
L 327.67416 101.091076 
L 328.616749 100.124924 
"/>
    <path clip-path="url(#p8f56285230)" d="M 355.463684 99.98675 
L 362.217938 102.853528 
L 362.124055 101.347343 
L 367.545508 105.847931 
L 360.541953 105.074845 
L 361.690571 104.096028 
L 354.936316 101.22925 
L 355.463684 99.98675 
"/>
    <path clip-path="url(#p8f56285230)" d="M 382.415413 99.952559 
L 396.693058 103.456776 
L 396.359352 101.985027 
L 402.431159 105.560023 
L 395.394148 105.917672 
L 396.371324 104.767658 
L 382.093678 101.263441 
L 382.415413 99.952559 
"/>
    <path clip-path="url(#p8f56285230)" d="M 409.415687 99.941578 
L 432.577241 103.646329 
L 432.12401 102.206889 
L 438.468443 105.272114 
L 431.484435 106.205421 
L 432.364049 104.979173 
L 409.202495 101.274422 
L 409.415687 99.941578 
"/>
    <path clip-path="url(#p8f56285230)" d="M 58.270247 85.744945 
L 58.618257 88.695459 
L 59.879696 87.867102 
L 58.659503 94.806739 
L 55.858213 88.341431 
L 57.277762 88.853568 
L 56.929753 85.903055 
L 58.270247 85.744945 
"/>
    <path clip-path="url(#p8f56285230)" d="M 85.273548 86.092918 
L 83.916451 89.216724 
L 85.423374 89.135557 
L 80.877189 94.518831 
L 81.709358 87.522051 
L 82.678445 88.678889 
L 84.035543 85.555082 
L 85.273548 86.092918 
"/>
    <path clip-path="url(#p8f56285230)" d="M 112.213818 86.272031 
L 108.783516 90.136414 
L 110.241001 90.52775 
L 104.246508 94.230922 
L 107.212641 87.839562 
L 107.774063 89.240351 
L 111.204364 85.375969 
L 112.213818 86.272031 
"/>
    <path clip-path="url(#p8f56285230)" d="M 139.189128 86.347868 
L 133.907764 90.637455 
L 135.282616 91.259699 
L 128.76746 93.943014 
L 132.729665 88.116491 
L 133.056781 89.589719 
L 138.338144 85.300132 
L 139.189128 86.347868 
"/>
    <path clip-path="url(#p8f56285230)" d="M 166.200815 86.379943 
L 159.826169 90.767351 
L 161.147378 91.496605 
L 154.440046 93.655106 
L 158.85158 88.160945 
L 159.060903 89.655465 
L 165.435549 85.268057 
L 166.200815 86.379943 
"/>
    <path clip-path="url(#p8f56285230)" d="M 193.240457 86.389911 
L 186.725197 90.623538 
L 188.026568 91.387631 
L 181.264265 93.367197 
L 185.820188 87.992163 
L 185.989737 89.491715 
L 192.504997 85.258089 
L 193.240457 86.389911 
"/>
    <path clip-path="url(#p8f56285230)" d="M 220.306344 86.382378 
L 214.64459 90.226026 
L 215.961111 90.96371 
L 209.240117 93.079289 
L 213.686683 87.613442 
L 213.886448 89.109269 
L 219.548201 85.265622 
L 220.306344 86.382378 
"/>
    <path clip-path="url(#p8f56285230)" d="M 247.406238 86.348737 
L 243.514655 89.496341 
L 244.888232 90.121395 
L 238.367602 92.791381 
L 242.341714 86.972973 
L 242.665816 88.446867 
L 246.557398 85.299263 
L 247.406238 86.348737 
"/>
    <path clip-path="url(#p8f56285230)" d="M 274.561595 86.247808 
L 272.98622 88.200196 
L 274.460491 88.522579 
L 268.64672 92.503472 
L 271.309101 85.979734 
L 271.935757 87.352581 
L 273.511132 85.400192 
L 274.561595 86.247808 
"/>
    <path clip-path="url(#p8f56285230)" d="M 301.730066 85.925344 
L 301.628722 86.5645 
L 303.008378 86.128031 
L 300.077472 92.215564 
L 299.17344 85.519969 
L 300.350409 86.361813 
L 300.451753 85.722656 
L 301.730066 85.925344 
"/>
    <path clip-path="url(#p8f56285230)" d="M 328.68806 85.422677 
L 329.590553 86.642884 
L 330.27444 85.297632 
L 332.659857 91.927656 
L 327.018807 87.705571 
L 328.505342 87.44553 
L 327.602849 86.225323 
L 328.68806 85.422677 
"/>
    <path clip-path="url(#p8f56285230)" d="M 355.51115 85.225112 
L 361.315036 88.240506 
L 361.338449 86.73158 
L 366.393875 91.639748 
L 359.471546 90.324906 
L 360.692735 89.438281 
L 354.88885 86.422888 
L 355.51115 85.225112 
"/>
    <path clip-path="url(#p8f56285230)" d="M 382.442853 85.175909 
L 395.635017 89.008984 
L 395.363541 87.524495 
L 401.279526 91.351839 
L 394.233698 91.413039 
L 395.258403 90.305165 
L 382.066238 86.472091 
L 382.442853 85.175909 
"/>
    <path clip-path="url(#p8f56285230)" d="M 409.433202 85.160617 
L 431.470472 89.283543 
L 431.055312 87.832665 
L 437.31681 91.063931 
L 430.310642 91.812965 
L 431.222249 90.61031 
L 409.184979 86.487383 
L 409.433202 85.160617 
"/>
    <path clip-path="url(#p8f56285230)" d="M 58.274862 71.046505 
L 58.241274 74.531302 
L 59.597502 73.869449 
L 57.507869 80.598555 
L 55.54833 73.830421 
L 56.89155 74.518293 
L 56.925138 71.033495 
L 58.274862 71.046505 
"/>
    <path clip-path="url(#p8f56285230)" d="M 85.250449 71.356828 
L 83.172913 75.264344 
L 84.681548 75.302097 
L 79.725555 80.310647 
L 81.106127 73.401128 
L 81.981106 74.630688 
L 84.058642 70.723172 
L 85.250449 71.356828 
"/>
    <path clip-path="url(#p8f56285230)" d="M 112.1962 71.507125 
L 107.786109 76.105883 
L 109.227453 76.553024 
L 103.094875 80.022739 
L 106.304798 73.750273 
L 106.811891 75.171632 
L 111.221982 70.572875 
L 112.1962 71.507125 
"/>
    <path clip-path="url(#p8f56285230)" d="M 139.178704 71.572166 
L 132.820385 76.531391 
L 134.182685 77.180655 
L 127.615827 79.734831 
L 131.692282 73.987662 
L 131.990251 75.46706 
L 138.348569 70.507834 
L 139.178704 71.572166 
"/>
    <path clip-path="url(#p8f56285230)" d="M 166.194208 71.600433 
L 158.708339 76.623121 
L 160.020824 77.367962 
L 153.288413 79.446922 
L 157.764668 74.005362 
L 157.956286 75.502255 
L 165.442156 70.479567 
L 166.194208 71.600433 
"/>
    <path clip-path="url(#p8f56285230)" d="M 193.235028 71.609403 
L 185.599556 76.467713 
L 186.89356 77.244218 
L 180.112632 79.159014 
L 184.719757 73.827801 
L 184.874955 75.328907 
L 192.510427 70.470597 
L 193.235028 71.609403 
"/>
    <path clip-path="url(#p8f56285230)" d="M 220.299612 71.602889 
L 213.526828 76.082941 
L 214.834396 76.836381 
L 208.088484 78.871106 
L 212.60036 73.459044 
L 212.782149 74.957163 
L 219.554933 70.477111 
L 220.299612 71.602889 
"/>
    <path clip-path="url(#p8f56285230)" d="M 247.394372 71.574116 
L 242.435568 75.404325 
L 243.794793 76.060003 
L 237.215969 78.583197 
L 241.319467 72.855306 
L 241.610459 74.336093 
L 246.569264 70.505884 
L 247.394372 71.574116 
"/>
    <path clip-path="url(#p8f56285230)" d="M 274.537612 71.491919 
L 272.063609 74.235972 
L 273.518025 74.638562 
L 267.495087 78.295289 
L 270.510534 71.927047 
L 271.061112 73.332134 
L 273.535115 70.588081 
L 274.537612 71.491919 
"/>
    <path clip-path="url(#p8f56285230)" d="M 301.735403 71.240272 
L 301.372784 72.407211 
L 302.862044 72.163262 
L 298.925839 78.007381 
L 298.995082 70.961627 
L 300.083797 72.006666 
L 300.446415 70.839728 
L 301.735403 71.240272 
"/>
    <path clip-path="url(#p8f56285230)" d="M 328.748264 70.736517 
L 329.379683 71.990706 
L 330.281818 70.78093 
L 331.508223 77.719472 
L 326.664963 72.60183 
L 328.174065 72.597673 
L 327.542645 71.343483 
L 328.748264 70.736517 
"/>
    <path clip-path="url(#p8f56285230)" d="M 355.562376 70.470645 
L 360.480425 73.600826 
L 360.635823 72.099741 
L 365.242241 77.431564 
L 358.461567 75.515869 
L 359.755674 74.739535 
L 354.837624 71.609355 
L 355.562376 70.470645 
"/>
    <path clip-path="url(#p8f56285230)" d="M 382.472651 70.401321 
L 394.597886 74.542026 
L 394.395418 73.046562 
L 400.127892 77.143656 
L 393.086785 76.878637 
L 394.161675 75.819384 
L 382.03644 71.678679 
L 382.472651 70.401321 
"/>
    <path clip-path="url(#p8f56285230)" d="M 409.45193 70.380395 
L 430.371575 74.910593 
L 429.997648 73.448545 
L 436.165177 76.855748 
L 429.140615 77.406172 
L 430.085897 76.229802 
L 409.166252 71.699605 
L 409.45193 70.380395 
"/>
    <path clip-path="url(#p8f56285230)" d="M 58.269867 56.338211 
L 57.766003 60.443776 
L 59.187949 59.938331 
L 56.356236 66.390372 
L 55.168744 59.445064 
L 56.426268 60.279354 
L 56.930133 56.173789 
L 58.269867 56.338211 
"/>
    <path clip-path="url(#p8f56285230)" d="M 85.22877 56.610609 
L 82.339626 61.289053 
L 83.842683 61.424046 
L 78.573922 66.102464 
L 80.397337 59.296393 
L 81.191177 60.579835 
L 84.080321 55.901391 
L 85.22877 56.610609 
"/>
    <path clip-path="url(#p8f56285230)" d="M 112.181166 56.738313 
L 106.756135 62.048191 
L 108.182599 62.540741 
L 101.943242 65.814555 
L 105.350147 59.646863 
L 105.811984 61.083564 
L 111.237016 55.773687 
L 112.181166 56.738313 
"/>
    <path clip-path="url(#p8f56285230)" d="M 139.169863 56.794944 
L 131.720919 62.409551 
L 133.072317 63.081213 
L 126.464194 65.526647 
L 130.634956 59.847547 
L 130.908466 61.331662 
L 138.35741 55.717056 
L 139.169863 56.794944 
"/>
    <path clip-path="url(#p8f56285230)" d="M 166.188591 56.820161 
L 157.584642 62.469219 
L 158.889622 63.227133 
L 152.13678 65.238739 
L 156.667167 59.842164 
L 156.843824 61.340896 
L 165.447773 55.691839 
L 166.188591 56.820161 
"/>
    <path clip-path="url(#p8f56285230)" d="M 193.23042 56.828308 
L 184.469467 62.303904 
L 185.757161 63.090828 
L 178.960998 64.950831 
L 183.611004 59.656978 
L 183.754081 61.159287 
L 192.515035 55.683692 
L 193.23042 56.828308 
"/>
    <path clip-path="url(#p8f56285230)" d="M 220.293951 56.822593 
L 212.402869 61.929411 
L 213.702819 62.695919 
L 206.93685 64.662922 
L 211.502749 59.296359 
L 211.669512 60.796224 
L 219.560594 55.689407 
L 220.293951 56.822593 
"/>
    <path clip-path="url(#p8f56285230)" d="M 247.384557 56.797555 
L 241.341074 61.291918 
L 242.688107 61.97229 
L 236.064336 64.375014 
L 240.271673 58.722957 
L 240.535596 60.208807 
L 246.579079 55.714445 
L 247.384557 56.797555 
"/>
    <path clip-path="url(#p8f56285230)" d="M 274.517814 56.728955 
L 271.081497 60.227003 
L 272.517353 60.691461 
L 266.343454 64.087106 
L 269.628648 57.853733 
L 270.118595 59.281093 
L 273.554913 55.783045 
L 274.517814 56.728955 
"/>
    <path clip-path="url(#p8f56285230)" d="M 301.708719 56.527648 
L 300.836843 58.510559 
L 302.34411 58.436044 
L 297.774206 63.799197 
L 298.637252 56.806159 
L 299.601224 57.967264 
L 300.4731 55.984352 
L 301.708719 56.527648 
"/>
    <path clip-path="url(#p8f56285230)" d="M 328.791033 56.059252 
L 329.231439 57.504336 
L 330.325848 56.465263 
L 330.35659 63.511289 
L 326.452378 57.645749 
L 327.940283 57.897832 
L 327.499876 56.452748 
L 328.791033 56.059252 
"/>
    <path clip-path="url(#p8f56285230)" d="M 355.616295 55.724794 
L 359.72605 58.945522 
L 360.027434 57.466815 
L 364.090608 63.223381 
L 357.529665 60.654051 
L 358.89346 60.007934 
L 354.783705 56.787206 
L 355.616295 55.724794 
"/>
    <path clip-path="url(#p8f56285230)" d="M 382.504897 55.629258 
L 393.585935 60.055568 
L 393.459896 58.551733 
L 398.976259 62.935472 
L 391.957788 62.312184 
L 393.085232 61.309052 
L 382.004194 56.882742 
L 382.504897 55.629258 
"/>
    <path clip-path="url(#p8f56285230)" d="M 409.471948 55.601051 
L 429.281857 60.526902 
L 428.952621 59.054146 
L 435.013544 62.647564 
L 427.975479 62.983842 
L 428.956142 61.8368 
L 409.146234 56.910949 
L 409.471948 55.601051 
"/>
   </g>
   <g id="matplotlib.axis_1">
    <g id="xtick_1">
     <g id="line2d_1">
      <defs>
       <path d="M 0 0 
L 0 3.5 
" id="m9ed27db86b" style="stroke:#000000;stroke-width:0.8;"/>
      </defs>
      <g>
       <use style="stroke:#000000;stroke-width:0.8;" x="90.065455" xlink:href="#m9ed27db86b" y="307.584"/>
      </g>
     </g>
     <g id="text_1">
      <!-- 80 -->
      <defs>
       <path d="M 10.59375 35.5 
L 73.1875 35.5 
L 73.1875 27.203125 
L 10.59375 27.203125 
z
" id="DejaVuSans-8722"/>
       <path d="M 31.78125 34.625 
Q 24.75 34.625 20.71875 30.859375 
Q 16.703125 27.09375 16.703125 20.515625 
Q 16.703125 13.921875 20.71875 10.15625 
Q 24.75 6.390625 31.78125 6.390625 
Q 38.8125 6.390625 42.859375 10.171875 
Q 46.921875 13.96875 46.921875 20.515625 
Q 46.921875 27.09375 42.890625 30.859375 
Q 38.875 34.625 31.78125 34.625 
z
M 21.921875 38.8125 
Q 15.578125 40.375 12.03125 44.71875 
Q 8.5 49.078125 8.5 55.328125 
Q 8.5 64.0625 14.71875 69.140625 
Q 20.953125 74.21875 31.78125 74.21875 
Q 42.671875 74.21875 48.875 69.140625 
Q 55.078125 64.0625 55.078125 55.328125 
Q 55.078125 49.078125 51.53125 44.71875 
Q 48 40.375 41.703125 38.8125 
Q 48.828125 37.15625 52.796875 32.3125 
Q 56.78125 27.484375 56.78125 20.515625 
Q 56.78125 9.90625 50.3125 4.234375 
Q 43.84375 -1.421875 31.78125 -1.421875 
Q 19.734375 -1.421875 13.25 4.234375 
Q 6.78125 9.90625 6.78125 20.515625 
Q 6.78125 27.484375 10.78125 32.3125 
Q 14.796875 37.15625 21.921875 38.8125 
z
M 18.3125 54.390625 
Q 18.3125 48.734375 21.84375 45.5625 
Q 25.390625 42.390625 31.78125 42.390625 
Q 38.140625 42.390625 41.71875 45.5625 
Q 45.3125 48.734375 45.3125 54.390625 
Q 45.3125 60.0625 41.71875 63.234375 
Q 38.140625 66.40625 31.78125 66.40625 
Q 25.390625 66.40625 21.84375 63.234375 
Q 18.3125 60.0625 18.3125 54.390625 
z
" id="DejaVuSans-56"/>
       <path d="M 31.78125 66.40625 
Q 24.171875 66.40625 20.328125 58.90625 
Q 16.5 51.421875 16.5 36.375 
Q 16.5 21.390625 20.328125 13.890625 
Q 24.171875 6.390625 31.78125 6.390625 
Q 39.453125 6.390625 43.28125 13.890625 
Q 47.125 21.390625 47.125 36.375 
Q 47.125 51.421875 43.28125 58.90625 
Q 39.453125 66.40625 31.78125 66.40625 
z
M 31.78125 74.21875 
Q 44.046875 74.21875 50.515625 64.515625 
Q 56.984375 54.828125 56.984375 36.375 
Q 56.984375 17.96875 50.515625 8.265625 
Q 44.046875 -1.421875 31.78125 -1.421875 
Q 19.53125 -1.421875 13.0625 8.265625 
Q 6.59375 17.96875 6.59375 36.375 
Q 6.59375 54.828125 13.0625 64.515625 
Q 19.53125 74.21875 31.78125 74.21875 
z
" id="DejaVuSans-48"/>
      </defs>
      <g transform="translate(79.513111 322.182437)scale(0.1 -0.1)">
       <use xlink:href="#DejaVuSans-8722"/>
       <use x="83.789062" xlink:href="#DejaVuSans-56"/>
       <use x="147.412109" xlink:href="#DejaVuSans-48"/>
      </g>
     </g>
    </g>
    <g id="xtick_2">
     <g id="line2d_2">
      <g>
       <use style="stroke:#000000;stroke-width:0.8;" x="144.174545" xlink:href="#m9ed27db86b" y="307.584"/>
      </g>
     </g>
     <g id="text_2">
      <!-- 70 -->
      <defs>
       <path d="M 8.203125 72.90625 
L 55.078125 72.90625 
L 55.078125 68.703125 
L 28.609375 0 
L 18.3125 0 
L 43.21875 64.59375 
L 8.203125 64.59375 
z
" id="DejaVuSans-55"/>
      </defs>
      <g transform="translate(133.622202 322.182437)scale(0.1 -0.1)">
       <use xlink:href="#DejaVuSans-8722"/>
       <use x="83.789062" xlink:href="#DejaVuSans-55"/>
       <use x="147.412109" xlink:href="#DejaVuSans-48"/>
      </g>
     </g>
    </g>
    <g id="xtick_3">
     <g id="line2d_3">
      <g>
       <use style="stroke:#000000;stroke-width:0.8;" x="198.283636" xlink:href="#m9ed27db86b" y="307.584"/>
      </g>
     </g>
     <g id="text_3">
      <!-- 60 -->
      <defs>
       <path d="M 33.015625 40.375 
Q 26.375 40.375 22.484375 35.828125 
Q 18.609375 31.296875 18.609375 23.390625 
Q 18.609375 15.53125 22.484375 10.953125 
Q 26.375 6.390625 33.015625 6.390625 
Q 39.65625 6.390625 43.53125 10.953125 
Q 47.40625 15.53125 47.40625 23.390625 
Q 47.40625 31.296875 43.53125 35.828125 
Q 39.65625 40.375 33.015625 40.375 
z
M 52.59375 71.296875 
L 52.59375 62.3125 
Q 48.875 64.0625 45.09375 64.984375 
Q 41.3125 65.921875 37.59375 65.921875 
Q 27.828125 65.921875 22.671875 59.328125 
Q 17.53125 52.734375 16.796875 39.40625 
Q 19.671875 43.65625 24.015625 45.921875 
Q 28.375 48.1875 33.59375 48.1875 
Q 44.578125 48.1875 50.953125 41.515625 
Q 57.328125 34.859375 57.328125 23.390625 
Q 57.328125 12.15625 50.6875 5.359375 
Q 44.046875 -1.421875 33.015625 -1.421875 
Q 20.359375 -1.421875 13.671875 8.265625 
Q 6.984375 17.96875 6.984375 36.375 
Q 6.984375 53.65625 15.1875 63.9375 
Q 23.390625 74.21875 37.203125 74.21875 
Q 40.921875 74.21875 44.703125 73.484375 
Q 48.484375 72.75 52.59375 71.296875 
z
" id="DejaVuSans-54"/>
      </defs>
      <g transform="translate(187.731293 322.182437)scale(0.1 -0.1)">
       <use xlink:href="#DejaVuSans-8722"/>
       <use x="83.789062" xlink:href="#DejaVuSans-54"/>
       <use x="147.412109" xlink:href="#DejaVuSans-48"/>
      </g>
     </g>
    </g>
    <g id="xtick_4">
     <g id="line2d_4">
      <g>
       <use style="stroke:#000000;stroke-width:0.8;" x="252.392727" xlink:href="#m9ed27db86b" y="307.584"/>
      </g>
     </g>
     <g id="text_4">
      <!-- 50 -->
      <defs>
       <path d="M 10.796875 72.90625 
L 49.515625 72.90625 
L 49.515625 64.59375 
L 19.828125 64.59375 
L 19.828125 46.734375 
Q 21.96875 47.46875 24.109375 47.828125 
Q 26.265625 48.1875 28.421875 48.1875 
Q 40.625 48.1875 47.75 41.5 
Q 54.890625 34.8125 54.890625 23.390625 
Q 54.890625 11.625 47.5625 5.09375 
Q 40.234375 -1.421875 26.90625 -1.421875 
Q 22.3125 -1.421875 17.546875 -0.640625 
Q 12.796875 0.140625 7.71875 1.703125 
L 7.71875 11.625 
Q 12.109375 9.234375 16.796875 8.0625 
Q 21.484375 6.890625 26.703125 6.890625 
Q 35.15625 6.890625 40.078125 11.328125 
Q 45.015625 15.765625 45.015625 23.390625 
Q 45.015625 31 40.078125 35.4375 
Q 35.15625 39.890625 26.703125 39.890625 
Q 22.75 39.890625 18.8125 39.015625 
Q 14.890625 38.140625 10.796875 36.28125 
z
" id="DejaVuSans-53"/>
      </defs>
      <g transform="translate(241.840384 322.182437)scale(0.1 -0.1)">
       <use xlink:href="#DejaVuSans-8722"/>
       <use x="83.789062" xlink:href="#DejaVuSans-53"/>
       <use x="147.412109" xlink:href="#DejaVuSans-48"/>
      </g>
     </g>
    </g>
    <g id="xtick_5">
     <g id="line2d_5">
      <g>
       <use style="stroke:#000000;stroke-width:0.8;" x="306.501818" xlink:href="#m9ed27db86b" y="307.584"/>
      </g>
     </g>
     <g id="text_5">
      <!-- 40 -->
      <defs>
       <path d="M 37.796875 64.3125 
L 12.890625 25.390625 
L 37.796875 25.390625 
z
M 35.203125 72.90625 
L 47.609375 72.90625 
L 47.609375 25.390625 
L 58.015625 25.390625 
L 58.015625 17.1875 
L 47.609375 17.1875 
L 47.609375 0 
L 37.796875 0 
L 37.796875 17.1875 
L 4.890625 17.1875 
L 4.890625 26.703125 
z
" id="DejaVuSans-52"/>
      </defs>
      <g transform="translate(295.949474 322.182437)scale(0.1 -0.1)">
       <use xlink:href="#DejaVuSans-8722"/>
       <use x="83.789062" xlink:href="#DejaVuSans-52"/>
       <use x="147.412109" xlink:href="#DejaVuSans-48"/>
      </g>
     </g>
    </g>
    <g id="xtick_6">
     <g id="line2d_6">
      <g>
       <use style="stroke:#000000;stroke-width:0.8;" x="360.610909" xlink:href="#m9ed27db86b" y="307.584"/>
      </g>
     </g>
     <g id="text_6">
      <!-- 30 -->
      <defs>
       <path d="M 40.578125 39.3125 
Q 47.65625 37.796875 51.625 33 
Q 55.609375 28.21875 55.609375 21.1875 
Q 55.609375 10.40625 48.1875 4.484375 
Q 40.765625 -1.421875 27.09375 -1.421875 
Q 22.515625 -1.421875 17.65625 -0.515625 
Q 12.796875 0.390625 7.625 2.203125 
L 7.625 11.71875 
Q 11.71875 9.328125 16.59375 8.109375 
Q 21.484375 6.890625 26.8125 6.890625 
Q 36.078125 6.890625 40.9375 10.546875 
Q 45.796875 14.203125 45.796875 21.1875 
Q 45.796875 27.640625 41.28125 31.265625 
Q 36.765625 34.90625 28.71875 34.90625 
L 20.21875 34.90625 
L 20.21875 43.015625 
L 29.109375 43.015625 
Q 36.375 43.015625 40.234375 45.921875 
Q 44.09375 48.828125 44.09375 54.296875 
Q 44.09375 59.90625 40.109375 62.90625 
Q 36.140625 65.921875 28.71875 65.921875 
Q 24.65625 65.921875 20.015625 65.03125 
Q 15.375 64.15625 9.8125 62.3125 
L 9.8125 71.09375 
Q 15.4375 72.65625 20.34375 73.4375 
Q 25.25 74.21875 29.59375 74.21875 
Q 40.828125 74.21875 47.359375 69.109375 
Q 53.90625 64.015625 53.90625 55.328125 
Q 53.90625 49.265625 50.4375 45.09375 
Q 46.96875 40.921875 40.578125 39.3125 
z
" id="DejaVuSans-51"/>
      </defs>
      <g transform="translate(350.058565 322.182437)scale(0.1 -0.1)">
       <use xlink:href="#DejaVuSans-8722"/>
       <use x="83.789062" xlink:href="#DejaVuSans-51"/>
       <use x="147.412109" xlink:href="#DejaVuSans-48"/>
      </g>
     </g>
    </g>
    <g id="xtick_7">
     <g id="line2d_7">
      <g>
       <use style="stroke:#000000;stroke-width:0.8;" x="414.72" xlink:href="#m9ed27db86b" y="307.584"/>
      </g>
     </g>
     <g id="text_7">
      <!-- 20 -->
      <defs>
       <path d="M 19.1875 8.296875 
L 53.609375 8.296875 
L 53.609375 0 
L 7.328125 0 
L 7.328125 8.296875 
Q 12.9375 14.109375 22.625 23.890625 
Q 32.328125 33.6875 34.8125 36.53125 
Q 39.546875 41.84375 41.421875 45.53125 
Q 43.3125 49.21875 43.3125 52.78125 
Q 43.3125 58.59375 39.234375 62.25 
Q 35.15625 65.921875 28.609375 65.921875 
Q 23.96875 65.921875 18.8125 64.3125 
Q 13.671875 62.703125 7.8125 59.421875 
L 7.8125 69.390625 
Q 13.765625 71.78125 18.9375 73 
Q 24.125 74.21875 28.421875 74.21875 
Q 39.75 74.21875 46.484375 68.546875 
Q 53.21875 62.890625 53.21875 53.421875 
Q 53.21875 48.921875 51.53125 44.890625 
Q 49.859375 40.875 45.40625 35.40625 
Q 44.1875 33.984375 37.640625 27.21875 
Q 31.109375 20.453125 19.1875 8.296875 
z
" id="DejaVuSans-50"/>
      </defs>
      <g transform="translate(404.167656 322.182437)scale(0.1 -0.1)">
       <use xlink:href="#DejaVuSans-8722"/>
       <use x="83.789062" xlink:href="#DejaVuSans-50"/>
       <use x="147.412109" xlink:href="#DejaVuSans-48"/>
      </g>
     </g>
    </g>
    <g id="text_8">
     <!-- Time-dependent Variable 1 -->
     <defs>
      <path d="M -0.296875 72.90625 
L 61.375 72.90625 
L 61.375 64.59375 
L 35.5 64.59375 
L 35.5 0 
L 25.59375 0 
L 25.59375 64.59375 
L -0.296875 64.59375 
z
" id="DejaVuSans-84"/>
      <path d="M 9.421875 54.6875 
L 18.40625 54.6875 
L 18.40625 0 
L 9.421875 0 
z
M 9.421875 75.984375 
L 18.40625 75.984375 
L 18.40625 64.59375 
L 9.421875 64.59375 
z
" id="DejaVuSans-105"/>
      <path d="M 52 44.1875 
Q 55.375 50.25 60.0625 53.125 
Q 64.75 56 71.09375 56 
Q 79.640625 56 84.28125 50.015625 
Q 88.921875 44.046875 88.921875 33.015625 
L 88.921875 0 
L 79.890625 0 
L 79.890625 32.71875 
Q 79.890625 40.578125 77.09375 44.375 
Q 74.3125 48.1875 68.609375 48.1875 
Q 61.625 48.1875 57.5625 43.546875 
Q 53.515625 38.921875 53.515625 30.90625 
L 53.515625 0 
L 44.484375 0 
L 44.484375 32.71875 
Q 44.484375 40.625 41.703125 44.40625 
Q 38.921875 48.1875 33.109375 48.1875 
Q 26.21875 48.1875 22.15625 43.53125 
Q 18.109375 38.875 18.109375 30.90625 
L 18.109375 0 
L 9.078125 0 
L 9.078125 54.6875 
L 18.109375 54.6875 
L 18.109375 46.1875 
Q 21.1875 51.21875 25.484375 53.609375 
Q 29.78125 56 35.6875 56 
Q 41.65625 56 45.828125 52.96875 
Q 50 49.953125 52 44.1875 
z
" id="DejaVuSans-109"/>
      <path d="M 56.203125 29.59375 
L 56.203125 25.203125 
L 14.890625 25.203125 
Q 15.484375 15.921875 20.484375 11.0625 
Q 25.484375 6.203125 34.421875 6.203125 
Q 39.59375 6.203125 44.453125 7.46875 
Q 49.3125 8.734375 54.109375 11.28125 
L 54.109375 2.78125 
Q 49.265625 0.734375 44.1875 -0.34375 
Q 39.109375 -1.421875 33.890625 -1.421875 
Q 20.796875 -1.421875 13.15625 6.1875 
Q 5.515625 13.8125 5.515625 26.8125 
Q 5.515625 40.234375 12.765625 48.109375 
Q 20.015625 56 32.328125 56 
Q 43.359375 56 49.78125 48.890625 
Q 56.203125 41.796875 56.203125 29.59375 
z
M 47.21875 32.234375 
Q 47.125 39.59375 43.09375 43.984375 
Q 39.0625 48.390625 32.421875 48.390625 
Q 24.90625 48.390625 20.390625 44.140625 
Q 15.875 39.890625 15.1875 32.171875 
z
" id="DejaVuSans-101"/>
      <path d="M 4.890625 31.390625 
L 31.203125 31.390625 
L 31.203125 23.390625 
L 4.890625 23.390625 
z
" id="DejaVuSans-45"/>
      <path d="M 45.40625 46.390625 
L 45.40625 75.984375 
L 54.390625 75.984375 
L 54.390625 0 
L 45.40625 0 
L 45.40625 8.203125 
Q 42.578125 3.328125 38.25 0.953125 
Q 33.9375 -1.421875 27.875 -1.421875 
Q 17.96875 -1.421875 11.734375 6.484375 
Q 5.515625 14.40625 5.515625 27.296875 
Q 5.515625 40.1875 11.734375 48.09375 
Q 17.96875 56 27.875 56 
Q 33.9375 56 38.25 53.625 
Q 42.578125 51.265625 45.40625 46.390625 
z
M 14.796875 27.296875 
Q 14.796875 17.390625 18.875 11.75 
Q 22.953125 6.109375 30.078125 6.109375 
Q 37.203125 6.109375 41.296875 11.75 
Q 45.40625 17.390625 45.40625 27.296875 
Q 45.40625 37.203125 41.296875 42.84375 
Q 37.203125 48.484375 30.078125 48.484375 
Q 22.953125 48.484375 18.875 42.84375 
Q 14.796875 37.203125 14.796875 27.296875 
z
" id="DejaVuSans-100"/>
      <path d="M 18.109375 8.203125 
L 18.109375 -20.796875 
L 9.078125 -20.796875 
L 9.078125 54.6875 
L 18.109375 54.6875 
L 18.109375 46.390625 
Q 20.953125 51.265625 25.265625 53.625 
Q 29.59375 56 35.59375 56 
Q 45.5625 56 51.78125 48.09375 
Q 58.015625 40.1875 58.015625 27.296875 
Q 58.015625 14.40625 51.78125 6.484375 
Q 45.5625 -1.421875 35.59375 -1.421875 
Q 29.59375 -1.421875 25.265625 0.953125 
Q 20.953125 3.328125 18.109375 8.203125 
z
M 48.6875 27.296875 
Q 48.6875 37.203125 44.609375 42.84375 
Q 40.53125 48.484375 33.40625 48.484375 
Q 26.265625 48.484375 22.1875 42.84375 
Q 18.109375 37.203125 18.109375 27.296875 
Q 18.109375 17.390625 22.1875 11.75 
Q 26.265625 6.109375 33.40625 6.109375 
Q 40.53125 6.109375 44.609375 11.75 
Q 48.6875 17.390625 48.6875 27.296875 
z
" id="DejaVuSans-112"/>
      <path d="M 54.890625 33.015625 
L 54.890625 0 
L 45.90625 0 
L 45.90625 32.71875 
Q 45.90625 40.484375 42.875 44.328125 
Q 39.84375 48.1875 33.796875 48.1875 
Q 26.515625 48.1875 22.3125 43.546875 
Q 18.109375 38.921875 18.109375 30.90625 
L 18.109375 0 
L 9.078125 0 
L 9.078125 54.6875 
L 18.109375 54.6875 
L 18.109375 46.1875 
Q 21.34375 51.125 25.703125 53.5625 
Q 30.078125 56 35.796875 56 
Q 45.21875 56 50.046875 50.171875 
Q 54.890625 44.34375 54.890625 33.015625 
z
" id="DejaVuSans-110"/>
      <path d="M 18.3125 70.21875 
L 18.3125 54.6875 
L 36.8125 54.6875 
L 36.8125 47.703125 
L 18.3125 47.703125 
L 18.3125 18.015625 
Q 18.3125 11.328125 20.140625 9.421875 
Q 21.96875 7.515625 27.59375 7.515625 
L 36.8125 7.515625 
L 36.8125 0 
L 27.59375 0 
Q 17.1875 0 13.234375 3.875 
Q 9.28125 7.765625 9.28125 18.015625 
L 9.28125 47.703125 
L 2.6875 47.703125 
L 2.6875 54.6875 
L 9.28125 54.6875 
L 9.28125 70.21875 
z
" id="DejaVuSans-116"/>
      <path id="DejaVuSans-32"/>
      <path d="M 28.609375 0 
L 0.78125 72.90625 
L 11.078125 72.90625 
L 34.1875 11.53125 
L 57.328125 72.90625 
L 67.578125 72.90625 
L 39.796875 0 
z
" id="DejaVuSans-86"/>
      <path d="M 34.28125 27.484375 
Q 23.390625 27.484375 19.1875 25 
Q 14.984375 22.515625 14.984375 16.5 
Q 14.984375 11.71875 18.140625 8.90625 
Q 21.296875 6.109375 26.703125 6.109375 
Q 34.1875 6.109375 38.703125 11.40625 
Q 43.21875 16.703125 43.21875 25.484375 
L 43.21875 27.484375 
z
M 52.203125 31.203125 
L 52.203125 0 
L 43.21875 0 
L 43.21875 8.296875 
Q 40.140625 3.328125 35.546875 0.953125 
Q 30.953125 -1.421875 24.3125 -1.421875 
Q 15.921875 -1.421875 10.953125 3.296875 
Q 6 8.015625 6 15.921875 
Q 6 25.140625 12.171875 29.828125 
Q 18.359375 34.515625 30.609375 34.515625 
L 43.21875 34.515625 
L 43.21875 35.40625 
Q 43.21875 41.609375 39.140625 45 
Q 35.0625 48.390625 27.6875 48.390625 
Q 23 48.390625 18.546875 47.265625 
Q 14.109375 46.140625 10.015625 43.890625 
L 10.015625 52.203125 
Q 14.9375 54.109375 19.578125 55.046875 
Q 24.21875 56 28.609375 56 
Q 40.484375 56 46.34375 49.84375 
Q 52.203125 43.703125 52.203125 31.203125 
z
" id="DejaVuSans-97"/>
      <path d="M 41.109375 46.296875 
Q 39.59375 47.171875 37.8125 47.578125 
Q 36.03125 48 33.890625 48 
Q 26.265625 48 22.1875 43.046875 
Q 18.109375 38.09375 18.109375 28.8125 
L 18.109375 0 
L 9.078125 0 
L 9.078125 54.6875 
L 18.109375 54.6875 
L 18.109375 46.1875 
Q 20.953125 51.171875 25.484375 53.578125 
Q 30.03125 56 36.53125 56 
Q 37.453125 56 38.578125 55.875 
Q 39.703125 55.765625 41.0625 55.515625 
z
" id="DejaVuSans-114"/>
      <path d="M 48.6875 27.296875 
Q 48.6875 37.203125 44.609375 42.84375 
Q 40.53125 48.484375 33.40625 48.484375 
Q 26.265625 48.484375 22.1875 42.84375 
Q 18.109375 37.203125 18.109375 27.296875 
Q 18.109375 17.390625 22.1875 11.75 
Q 26.265625 6.109375 33.40625 6.109375 
Q 40.53125 6.109375 44.609375 11.75 
Q 48.6875 17.390625 48.6875 27.296875 
z
M 18.109375 46.390625 
Q 20.953125 51.265625 25.265625 53.625 
Q 29.59375 56 35.59375 56 
Q 45.5625 56 51.78125 48.09375 
Q 58.015625 40.1875 58.015625 27.296875 
Q 58.015625 14.40625 51.78125 6.484375 
Q 45.5625 -1.421875 35.59375 -1.421875 
Q 29.59375 -1.421875 25.265625 0.953125 
Q 20.953125 3.328125 18.109375 8.203125 
L 18.109375 0 
L 9.078125 0 
L 9.078125 75.984375 
L 18.109375 75.984375 
z
" id="DejaVuSans-98"/>
      <path d="M 9.421875 75.984375 
L 18.40625 75.984375 
L 18.40625 0 
L 9.421875 0 
z
" id="DejaVuSans-108"/>
      <path d="M 12.40625 8.296875 
L 28.515625 8.296875 
L 28.515625 63.921875 
L 10.984375 60.40625 
L 10.984375 69.390625 
L 28.421875 72.90625 
L 38.28125 72.90625 
L 38.28125 8.296875 
L 54.390625 8.296875 
L 54.390625 0 
L 12.40625 0 
z
" id="DejaVuSans-49"/>
     </defs>
     <g transform="translate(167.931875 335.860562)scale(0.1 -0.1)">
      <use xlink:href="#DejaVuSans-84"/>
      <use x="61.037109" xlink:href="#DejaVuSans-105"/>
      <use x="88.820312" xlink:href="#DejaVuSans-109"/>
      <use x="186.232422" xlink:href="#DejaVuSans-101"/>
      <use x="247.755859" xlink:href="#DejaVuSans-45"/>
      <use x="283.839844" xlink:href="#DejaVuSans-100"/>
      <use x="347.316406" xlink:href="#DejaVuSans-101"/>
      <use x="408.839844" xlink:href="#DejaVuSans-112"/>
      <use x="472.316406" xlink:href="#DejaVuSans-101"/>
      <use x="533.839844" xlink:href="#DejaVuSans-110"/>
      <use x="597.21875" xlink:href="#DejaVuSans-100"/>
      <use x="660.695312" xlink:href="#DejaVuSans-101"/>
      <use x="722.21875" xlink:href="#DejaVuSans-110"/>
      <use x="785.597656" xlink:href="#DejaVuSans-116"/>
      <use x="824.806641" xlink:href="#DejaVuSans-32"/>
      <use x="856.59375" xlink:href="#DejaVuSans-86"/>
      <use x="924.892578" xlink:href="#DejaVuSans-97"/>
      <use x="986.171875" xlink:href="#DejaVuSans-114"/>
      <use x="1027.285156" xlink:href="#DejaVuSans-105"/>
      <use x="1055.068359" xlink:href="#DejaVuSans-97"/>
      <use x="1116.347656" xlink:href="#DejaVuSans-98"/>
      <use x="1179.824219" xlink:href="#DejaVuSans-108"/>
      <use x="1207.607422" xlink:href="#DejaVuSans-101"/>
      <use x="1269.130859" xlink:href="#DejaVuSans-32"/>
      <use x="1300.917969" xlink:href="#DejaVuSans-49"/>
     </g>
    </g>
   </g>
   <g id="matplotlib.axis_2">
    <g id="ytick_1">
     <g id="line2d_8">
      <defs>
       <path d="M 0 0 
L -3.5 0 
" id="m176af03dbb" style="stroke:#000000;stroke-width:0.8;"/>
      </defs>
      <g>
       <use style="stroke:#000000;stroke-width:0.8;" x="57.6" xlink:href="#m176af03dbb" y="300.192"/>
      </g>
     </g>
     <g id="text_9">
      <!-- 15 -->
      <g transform="translate(29.495313 303.991219)scale(0.1 -0.1)">
       <use xlink:href="#DejaVuSans-8722"/>
       <use x="83.789062" xlink:href="#DejaVuSans-49"/>
       <use x="147.412109" xlink:href="#DejaVuSans-53"/>
      </g>
     </g>
    </g>
    <g id="ytick_2">
     <g id="line2d_9">
      <g>
       <use style="stroke:#000000;stroke-width:0.8;" x="57.6" xlink:href="#m176af03dbb" y="263.232"/>
      </g>
     </g>
     <g id="text_10">
      <!-- 10 -->
      <g transform="translate(29.495313 267.031219)scale(0.1 -0.1)">
       <use xlink:href="#DejaVuSans-8722"/>
       <use x="83.789062" xlink:href="#DejaVuSans-49"/>
       <use x="147.412109" xlink:href="#DejaVuSans-48"/>
      </g>
     </g>
    </g>
    <g id="ytick_3">
     <g id="line2d_10">
      <g>
       <use style="stroke:#000000;stroke-width:0.8;" x="57.6" xlink:href="#m176af03dbb" y="226.272"/>
      </g>
     </g>
     <g id="text_11">
      <!-- 5 -->
      <g transform="translate(35.857813 230.071219)scale(0.1 -0.1)">
       <use xlink:href="#DejaVuSans-8722"/>
       <use x="83.789062" xlink:href="#DejaVuSans-53"/>
      </g>
     </g>
    </g>
    <g id="ytick_4">
     <g id="line2d_11">
      <g>
       <use style="stroke:#000000;stroke-width:0.8;" x="57.6" xlink:href="#m176af03dbb" y="189.312"/>
      </g>
     </g>
     <g id="text_12">
      <!-- 0 -->
      <g transform="translate(44.2375 193.111219)scale(0.1 -0.1)">
       <use xlink:href="#DejaVuSans-48"/>
      </g>
     </g>
    </g>
    <g id="ytick_5">
     <g id="line2d_12">
      <g>
       <use style="stroke:#000000;stroke-width:0.8;" x="57.6" xlink:href="#m176af03dbb" y="152.352"/>
      </g>
     </g>
     <g id="text_13">
      <!-- 5 -->
      <g transform="translate(44.2375 156.151219)scale(0.1 -0.1)">
       <use xlink:href="#DejaVuSans-53"/>
      </g>
     </g>
    </g>
    <g id="ytick_6">
     <g id="line2d_13">
      <g>
       <use style="stroke:#000000;stroke-width:0.8;" x="57.6" xlink:href="#m176af03dbb" y="115.392"/>
      </g>
     </g>
     <g id="text_14">
      <!-- 10 -->
      <g transform="translate(37.875 119.191219)scale(0.1 -0.1)">
       <use xlink:href="#DejaVuSans-49"/>
       <use x="63.623047" xlink:href="#DejaVuSans-48"/>
      </g>
     </g>
    </g>
    <g id="ytick_7">
     <g id="line2d_14">
      <g>
       <use style="stroke:#000000;stroke-width:0.8;" x="57.6" xlink:href="#m176af03dbb" y="78.432"/>
      </g>
     </g>
     <g id="text_15">
      <!-- 15 -->
      <g transform="translate(37.875 82.231219)scale(0.1 -0.1)">
       <use xlink:href="#DejaVuSans-49"/>
       <use x="63.623047" xlink:href="#DejaVuSans-53"/>
      </g>
     </g>
    </g>
    <g id="ytick_8">
     <g id="line2d_15">
      <g>
       <use style="stroke:#000000;stroke-width:0.8;" x="57.6" xlink:href="#m176af03dbb" y="41.472"/>
      </g>
     </g>
     <g id="text_16">
      <!-- 20 -->
      <g transform="translate(37.875 45.271219)scale(0.1 -0.1)">
       <use xlink:href="#DejaVuSans-50"/>
       <use x="63.623047" xlink:href="#DejaVuSans-48"/>
      </g>
     </g>
    </g>
    <g id="text_17">
     <!-- Time-dependent Variable 2 -->
     <g transform="translate(23.415625 242.756125)rotate(-90)scale(0.1 -0.1)">
      <use xlink:href="#DejaVuSans-84"/>
      <use x="61.037109" xlink:href="#DejaVuSans-105"/>
      <use x="88.820312" xlink:href="#DejaVuSans-109"/>
      <use x="186.232422" xlink:href="#DejaVuSans-101"/>
      <use x="247.755859" xlink:href="#DejaVuSans-45"/>
      <use x="283.839844" xlink:href="#DejaVuSans-100"/>
      <use x="347.316406" xlink:href="#DejaVuSans-101"/>
      <use x="408.839844" xlink:href="#DejaVuSans-112"/>
      <use x="472.316406" xlink:href="#DejaVuSans-101"/>
      <use x="533.839844" xlink:href="#DejaVuSans-110"/>
      <use x="597.21875" xlink:href="#DejaVuSans-100"/>
      <use x="660.695312" xlink:href="#DejaVuSans-101"/>
      <use x="722.21875" xlink:href="#DejaVuSans-110"/>
      <use x="785.597656" xlink:href="#DejaVuSans-116"/>
      <use x="824.806641" xlink:href="#DejaVuSans-32"/>
      <use x="856.59375" xlink:href="#DejaVuSans-86"/>
      <use x="924.892578" xlink:href="#DejaVuSans-97"/>
      <use x="986.171875" xlink:href="#DejaVuSans-114"/>
      <use x="1027.285156" xlink:href="#DejaVuSans-105"/>
      <use x="1055.068359" xlink:href="#DejaVuSans-97"/>
      <use x="1116.347656" xlink:href="#DejaVuSans-98"/>
      <use x="1179.824219" xlink:href="#DejaVuSans-108"/>
      <use x="1207.607422" xlink:href="#DejaVuSans-101"/>
      <use x="1269.130859" xlink:href="#DejaVuSans-32"/>
      <use x="1300.917969" xlink:href="#DejaVuSans-50"/>
     </g>
    </g>
   </g>
   <g id="line2d_16">
    <path clip-path="url(#p8f56285230)" d="M 57.6 72.22272 
L 84.654545 134.31552 
L 111.709091 181.62432 
L 138.763636 214.14912 
L 165.818182 231.88992 
L 192.872727 234.84672 
L 219.927273 223.01952 
L 246.981818 196.40832 
L 274.036364 155.01312 
L 301.090909 98.83392 
L 328.145455 27.87072 
L 337.254606 -1 
" style="fill:none;stroke:#ff0000;stroke-linecap:square;stroke-width:1.5;"/>
   </g>
   <g id="line2d_17">
    <path clip-path="url(#p8f56285230)" d="M 57.6 316.4544 
L 84.654545 309.0624 
L 111.709091 301.6704 
L 138.763636 294.2784 
L 165.818182 286.8864 
L 192.872727 279.4944 
L 219.927273 272.1024 
L 246.981818 264.7104 
L 274.036364 257.3184 
L 301.090909 249.9264 
L 328.145455 242.5344 
L 355.2 235.1424 
L 382.254545 227.7504 
L 409.309091 220.3584 
" style="fill:none;stroke:#0000ff;stroke-linecap:square;stroke-width:1.5;"/>
   </g>
   <g id="patch_3">
    <path d="M 57.6 307.584 
L 57.6 41.472 
" style="fill:none;stroke:#000000;stroke-linecap:square;stroke-linejoin:miter;stroke-width:0.8;"/>
   </g>
   <g id="patch_4">
    <path d="M 414.72 307.584 
L 414.72 41.472 
" style="fill:none;stroke:#000000;stroke-linecap:square;stroke-linejoin:miter;stroke-width:0.8;"/>
   </g>
   <g id="patch_5">
    <path d="M 57.6 307.584 
L 414.72 307.584 
" style="fill:none;stroke:#000000;stroke-linecap:square;stroke-linejoin:miter;stroke-width:0.8;"/>
   </g>
   <g id="patch_6">
    <path d="M 57.6 41.472 
L 414.72 41.472 
" style="fill:none;stroke:#000000;stroke-linecap:square;stroke-linejoin:miter;stroke-width:0.8;"/>
   </g>
  </g>
 </g>
 <defs>
  <clipPath id="p8f56285230">
   <rect height="266.112" width="357.12" x="57.6" y="41.472"/>
  </clipPath>
 </defs>
</svg>
