<?xml version="1.0" encoding="utf-8" standalone="no"?>
<!DOCTYPE svg PUBLIC "-//W3C//DTD SVG 1.1//EN"
  "http://www.w3.org/Graphics/SVG/1.1/DTD/svg11.dtd">
<!-- Created with matplotlib (https://matplotlib.org/) -->
<svg height="345.6pt" version="1.1" viewBox="0 0 460.8 345.6" width="460.8pt" xmlns="http://www.w3.org/2000/svg" xmlns:xlink="http://www.w3.org/1999/xlink">
 <defs>
  <style type="text/css">
*{stroke-linecap:butt;stroke-linejoin:round;}
  </style>
 </defs>
 <g id="figure_1">
  <g id="patch_1">
   <path d="M 0 345.6 
L 460.8 345.6 
L 460.8 0 
L 0 0 
z
" style="fill:#ffffff;"/>
  </g>
  <g id="axes_1">
   <g id="patch_2">
    <path d="M 57.6 307.584 
L 414.72 307.584 
L 414.72 41.472 
L 57.6 41.472 
z
" style="fill:#ffffff;"/>
   </g>
   <g id="Quiver_1">
    <path clip-path="url(#pfc778fcbbe)" d="M 57.612376 306.927224 
L 69.386297 307.149094 
L 68.754273 305.823165 
L 75.284908 307.917258 
L 68.680015 309.763823 
L 69.361544 308.462647 
L 57.587624 308.240776 
L 57.612376 306.927224 
"/>
    <path clip-path="url(#pfc778fcbbe)" d="M 84.657348 306.927113 
L 91.764656 306.957434 
L 91.113374 305.640858 
L 97.673837 307.639543 
L 91.09656 309.58218 
L 91.759051 308.271208 
L 84.651743 308.240887 
L 84.657348 306.927113 
"/>
    <path clip-path="url(#pfc778fcbbe)" d="M 111.693675 306.927288 
L 115.247803 306.843858 
L 114.560259 305.545849 
L 121.173627 307.361828 
L 114.652754 309.486122 
L 115.278634 308.157282 
L 111.724507 308.240712 
L 111.693675 306.927288 
"/>
    <path clip-path="url(#pfc778fcbbe)" d="M 138.716982 306.928766 
L 139.840517 306.848767 
L 139.091974 305.584953 
L 145.784278 307.084113 
L 139.3719 309.516358 
L 139.933825 308.159236 
L 138.810291 308.239234 
L 138.716982 306.928766 
"/>
    <path clip-path="url(#pfc778fcbbe)" d="M 165.740422 307.015239 
L 166.309182 306.937479 
L 165.584901 305.877717 
L 171.50579 306.806397 
L 166.051463 309.290283 
L 166.464703 308.075001 
L 165.895942 308.152761 
L 165.740422 307.015239 
"/>
    <path clip-path="url(#pfc778fcbbe)" d="M 192.767195 307.037456 
L 193.313739 306.931925 
L 192.556132 305.944369 
L 198.338164 306.528682 
L 193.189323 309.223631 
L 193.524803 308.025012 
L 192.978259 308.130544 
L 192.767195 307.037456 
"/>
    <path clip-path="url(#pfc778fcbbe)" d="M 219.793969 306.948587 
L 220.429382 306.815284 
L 219.527363 305.677762 
L 226.281398 306.250967 
L 220.327183 309.490238 
L 220.695989 308.086109 
L 220.060576 308.219413 
L 219.793969 306.948587 
"/>
    <path clip-path="url(#pfc778fcbbe)" d="M 246.857448 306.938988 
L 249.406016 306.447575 
L 248.512263 305.281922 
L 255.335493 305.973252 
L 249.258486 309.151993 
L 249.654757 307.737599 
L 247.106189 308.229012 
L 246.857448 306.938988 
"/>
    <path clip-path="url(#pfc778fcbbe)" d="M 273.929593 306.935842 
L 279.560259 306.00831 
L 278.698561 304.818765 
L 285.50045 305.695536 
L 279.339182 308.707711 
L 279.7738 307.304626 
L 274.143134 308.232158 
L 273.929593 306.935842 
"/>
    <path clip-path="url(#pfc778fcbbe)" d="M 301.001044 306.933283 
L 310.829949 305.575892 
L 309.999501 304.364323 
L 316.776267 305.417821 
L 310.538693 308.268625 
L 311.009679 306.877326 
L 301.180774 308.234717 
L 301.001044 306.933283 
"/>
    <path clip-path="url(#pfc778fcbbe)" d="M 328.069583 306.931503 
L 343.214604 305.170454 
L 342.410364 303.941333 
L 349.162945 305.140106 
L 342.865594 307.856313 
L 343.366347 306.475448 
L 328.221326 308.236497 
L 328.069583 306.931503 
"/>
    <path clip-path="url(#pfc778fcbbe)" d="M 355.135213 306.93031 
L 376.712485 304.791786 
L 375.92922 303.549192 
L 382.660485 304.86239 
L 376.317944 307.471334 
L 376.84206 306.099166 
L 355.264787 308.23769 
L 355.135213 306.93031 
"/>
    <path clip-path="url(#pfc778fcbbe)" d="M 382.198481 306.929504 
L 411.322356 304.434756 
L 410.555732 303.181828 
L 417.268885 304.584675 
L 410.892116 307.108804 
L 411.434484 305.743748 
L 382.31061 308.238496 
L 382.198481 306.929504 
"/>
    <path clip-path="url(#pfc778fcbbe)" d="M 409.259945 306.928948 
L 447.043534 304.094218 
L 446.29019 302.83326 
L 452.988147 304.30696 
L 446.585064 306.763571 
L 447.141825 305.404322 
L 409.358236 308.239052 
L 409.259945 306.928948 
"/>
    <path clip-path="url(#pfc778fcbbe)" d="M 57.635172 292.14409 
L 68.305662 292.716235 
L 67.720054 291.369162 
L 74.174047 293.68873 
L 67.509025 295.304866 
L 68.235319 294.028136 
L 57.564828 293.455992 
L 57.635172 292.14409 
"/>
    <path clip-path="url(#pfc778fcbbe)" d="M 84.688204 292.144011 
L 90.692363 292.45206 
L 90.10365 291.106342 
L 96.562976 293.411015 
L 89.9017 295.042522 
L 90.625047 293.76412 
L 84.620887 293.456071 
L 84.688204 292.144011 
"/>
    <path clip-path="url(#pfc778fcbbe)" d="M 111.735276 292.14367 
L 114.181613 292.241263 
L 113.577612 290.902337 
L 120.062766 293.133299 
L 113.420502 294.840562 
L 114.129243 293.554005 
L 111.682906 293.456412 
L 111.735276 292.14367 
"/>
    <path clip-path="url(#pfc778fcbbe)" d="M 138.769191 292.209063 
L 139.360169 292.214617 
L 138.780299 291.027107 
L 144.673417 292.855584 
L 138.746973 294.572975 
L 139.34906 293.396573 
L 138.758082 293.391019 
L 138.769191 292.209063 
"/>
    <path clip-path="url(#pfc778fcbbe)" d="M 165.795965 292.342366 
L 166.253639 292.320149 
L 165.75153 291.427017 
L 170.394929 292.577869 
L 165.884833 294.173065 
L 166.298074 293.235499 
L 165.840399 293.257716 
L 165.795965 292.342366 
"/>
    <path clip-path="url(#pfc778fcbbe)" d="M 192.822739 292.364584 
L 193.258196 292.314595 
L 192.722761 291.493668 
L 197.227303 292.300154 
L 193.022694 294.106414 
L 193.358174 293.18551 
L 192.922716 293.235499 
L 192.822739 292.364584 
"/>
    <path clip-path="url(#pfc778fcbbe)" d="M 219.849512 292.275715 
L 220.373839 292.197954 
L 219.693992 291.227062 
L 225.170537 292.022438 
L 220.160554 294.37302 
L 220.529359 293.246607 
L 220.005033 293.324367 
L 219.849512 292.275715 
"/>
    <path clip-path="url(#pfc778fcbbe)" d="M 246.887105 292.150012 
L 248.279657 291.947109 
L 247.440203 290.741764 
L 254.224632 291.744723 
L 248.00848 294.641939 
L 248.469083 293.247168 
L 247.076531 293.45007 
L 246.887105 292.150012 
"/>
    <path clip-path="url(#pfc778fcbbe)" d="M 273.952478 292.148526 
L 278.442069 291.570467 
L 277.622783 290.351324 
L 284.389588 291.467008 
L 278.126099 294.260412 
L 278.609842 292.873497 
L 274.12025 293.451556 
L 273.952478 292.148526 
"/>
    <path clip-path="url(#pfc778fcbbe)" d="M 301.01875 292.147123 
L 309.716988 291.185809 
L 308.919752 289.952133 
L 315.665406 291.189293 
L 309.352708 293.869639 
L 309.861307 292.491644 
L 301.163068 293.452959 
L 301.01875 292.147123 
"/>
    <path clip-path="url(#pfc778fcbbe)" d="M 328.083416 292.146084 
L 342.104434 290.815965 
L 341.3264 289.57009 
L 348.052084 290.911577 
L 341.69863 293.493831 
L 342.228511 292.123879 
L 328.207493 293.453998 
L 328.083416 292.146084 
"/>
    <path clip-path="url(#pfc778fcbbe)" d="M 355.146179 292.145357 
L 375.603643 290.463567 
L 374.841317 289.208019 
L 381.549624 290.633862 
L 375.164243 293.136125 
L 375.711285 291.772936 
L 355.253821 293.454725 
L 355.146179 292.145357 
"/>
    <path clip-path="url(#pfc778fcbbe)" d="M 382.207317 292.144848 
L 410.214059 290.126013 
L 409.464408 288.862856 
L 416.158024 290.356147 
L 409.747781 292.794014 
L 410.308517 291.436399 
L 382.301774 293.455234 
L 382.207317 292.144848 
"/>
    <path clip-path="url(#pfc778fcbbe)" d="M 409.267178 292.144487 
L 445.935382 289.800095 
L 445.196002 288.530899 
L 451.877286 290.078432 
L 445.44748 292.464226 
L 446.019209 291.111204 
L 409.351004 293.455596 
L 409.267178 292.144487 
"/>
    <path clip-path="url(#pfc778fcbbe)" d="M 57.661082 277.362035 
L 67.237845 278.256417 
L 66.705962 276.887241 
L 73.063186 279.460201 
L 66.339471 280.811523 
L 67.115681 279.564511 
L 57.538918 278.670129 
L 57.661082 277.362035 
"/>
    <path clip-path="url(#pfc778fcbbe)" d="M 84.725096 277.362989 
L 89.644824 277.894441 
L 89.132831 276.517704 
L 95.452115 279.182486 
L 88.70953 280.436264 
L 89.503724 279.200628 
L 84.583995 278.669176 
L 84.725096 277.362989 
"/>
    <path clip-path="url(#pfc778fcbbe)" d="M 111.789091 277.364079 
L 113.163876 277.532764 
L 112.671873 276.148757 
L 118.951905 278.904771 
L 112.191871 280.060777 
L 113.003875 278.836771 
L 111.629091 278.668085 
L 111.789091 277.364079 
"/>
    <path clip-path="url(#pfc778fcbbe)" d="M 138.824734 277.53619 
L 139.304626 277.597288 
L 138.946928 276.576406 
L 143.562556 278.627056 
L 138.580344 279.455758 
L 139.182431 278.557071 
L 138.702539 278.495974 
L 138.824734 277.53619 
"/>
    <path clip-path="url(#pfc778fcbbe)" d="M 165.851508 277.669493 
L 166.198096 277.702819 
L 165.918159 276.976316 
L 169.284068 278.34934 
L 165.718204 279.055848 
L 166.131445 278.395997 
L 165.784856 278.362671 
L 165.851508 277.669493 
"/>
    <path clip-path="url(#pfc778fcbbe)" d="M 192.878282 277.691711 
L 193.202653 277.697265 
L 192.88939 277.042968 
L 196.116441 278.071625 
L 192.856064 278.989196 
L 193.191544 278.346008 
L 192.867173 278.340454 
L 192.878282 277.691711 
"/>
    <path clip-path="url(#pfc778fcbbe)" d="M 219.905056 277.602842 
L 220.318296 277.580625 
L 219.860621 276.776361 
L 224.059676 277.79391 
L 219.993924 279.255803 
L 220.36273 278.407105 
L 219.94949 278.429322 
L 219.905056 277.602842 
"/>
    <path clip-path="url(#pfc778fcbbe)" d="M 246.931829 277.402887 
L 247.545025 277.352898 
L 246.831852 276.176496 
L 253.113771 277.516195 
L 247.131784 279.855668 
L 247.645002 278.579289 
L 247.031807 278.629277 
L 246.931829 277.402887 
"/>
    <path clip-path="url(#pfc778fcbbe)" d="M 273.981291 277.361502 
L 277.332432 277.079555 
L 276.567706 275.825467 
L 283.278727 277.238479 
L 276.898143 279.752949 
L 277.442578 278.388715 
L 274.091436 278.670662 
L 273.981291 277.361502 
"/>
    <path clip-path="url(#pfc778fcbbe)" d="M 301.039577 277.361198 
L 308.609255 276.767865 
L 307.851707 275.509428 
L 314.554545 276.960764 
L 308.159697 279.438734 
L 308.711918 278.077634 
L 301.142241 278.670966 
L 301.039577 277.361198 
"/>
    <path clip-path="url(#pfc778fcbbe)" d="M 328.098983 277.360835 
L 340.997528 276.446045 
L 340.249338 275.182022 
L 346.941223 276.683049 
L 340.528166 279.113504 
L 341.090471 277.756539 
L 328.191926 278.671329 
L 328.098983 277.360835 
"/>
    <path clip-path="url(#pfc778fcbbe)" d="M 355.158162 277.360523 
L 374.496891 276.126317 
L 373.757656 274.857037 
L 380.438763 276.405334 
L 374.008684 278.790392 
L 374.580567 277.437436 
L 355.241838 278.671641 
L 355.158162 277.360523 
"/>
    <path clip-path="url(#pfc778fcbbe)" d="M 382.216779 277.360276 
L 409.107139 275.811712 
L 408.375799 274.537865 
L 415.047163 276.127618 
L 408.602399 278.472704 
L 409.182672 277.123324 
L 382.292312 278.671889 
L 382.216779 277.360276 
"/>
    <path clip-path="url(#pfc778fcbbe)" d="M 409.274814 277.360084 
L 444.828165 275.502393 
L 444.103615 274.224673 
L 450.766425 275.849903 
L 444.309273 278.160662 
L 444.896718 276.814389 
L 409.343367 278.67208 
L 409.274814 277.360084 
"/>
    <path clip-path="url(#pfc778fcbbe)" d="M 57.690642 262.581514 
L 66.187484 263.765284 
L 65.718159 262.373424 
L 71.952325 265.231673 
L 65.174306 266.277079 
L 66.006199 265.066503 
L 57.509358 263.882732 
L 57.690642 262.581514 
"/>
    <path clip-path="url(#pfc778fcbbe)" d="M 84.769508 262.585368 
L 88.635421 263.272543 
L 88.21859 261.864071 
L 94.341254 264.953958 
L 87.528817 265.744601 
L 88.405496 264.566053 
L 84.539583 263.878878 
L 84.769508 262.585368 
"/>
    <path clip-path="url(#pfc778fcbbe)" d="M 111.853503 262.618928 
L 112.466698 262.76334 
L 112.142327 261.392537 
L 117.841044 264.676243 
L 111.275855 265.071709 
L 112.177874 263.98973 
L 111.564679 263.845318 
L 111.853503 262.618928 
"/>
    <path clip-path="url(#pfc778fcbbe)" d="M 138.880277 262.863317 
L 139.249083 262.979958 
L 139.113558 262.125706 
L 142.451695 264.398527 
L 138.413715 264.338541 
L 139.015802 263.717569 
L 138.646996 263.600929 
L 138.880277 262.863317 
"/>
    <path clip-path="url(#pfc778fcbbe)" d="M 165.907051 262.996621 
L 166.142553 263.08549 
L 166.084788 262.525616 
L 168.173207 264.120812 
L 165.551575 263.938631 
L 165.964815 263.556495 
L 165.729313 263.467626 
L 165.907051 262.996621 
"/>
    <path clip-path="url(#pfc778fcbbe)" d="M 192.933825 263.018838 
L 193.14711 263.079935 
L 193.056019 262.592267 
L 195.00558 263.843097 
L 192.689435 263.871979 
L 193.024915 263.506506 
L 192.81163 263.445409 
L 192.933825 263.018838 
"/>
    <path clip-path="url(#pfc778fcbbe)" d="M 219.960599 262.929969 
L 220.262753 262.963295 
L 220.02725 262.325661 
L 222.948815 263.565382 
L 219.827295 264.138586 
L 220.196101 263.567603 
L 219.893947 263.534277 
L 219.960599 262.929969 
"/>
    <path clip-path="url(#pfc778fcbbe)" d="M 246.987372 262.730014 
L 247.489482 262.735568 
L 246.998481 261.725796 
L 252.00291 263.287666 
L 246.965155 264.738451 
L 247.478373 263.739787 
L 246.976264 263.734232 
L 246.987372 262.730014 
"/>
    <path clip-path="url(#pfc778fcbbe)" d="M 274.018422 262.575475 
L 276.240094 262.514774 
L 275.547564 261.219419 
L 282.167866 263.009951 
L 275.655211 265.159307 
L 276.275976 263.82807 
L 274.054305 263.888771 
L 274.018422 262.575475 
"/>
    <path clip-path="url(#pfc778fcbbe)" d="M 301.064348 262.575767 
L 307.509921 262.31493 
L 306.800443 261.02878 
L 313.443684 262.732236 
L 306.95981 264.966915 
L 307.563043 263.627642 
L 301.11747 263.888479 
L 301.064348 262.575767 
"/>
    <path clip-path="url(#pfc778fcbbe)" d="M 328.116599 262.575864 
L 339.895177 262.057962 
L 339.181207 260.7743 
L 345.830362 262.45452 
L 339.35434 264.711853 
L 339.952888 263.37048 
L 328.17431 263.888382 
L 328.116599 262.575864 
"/>
    <path clip-path="url(#pfc778fcbbe)" d="M 355.171296 262.575858 
L 373.392808 261.778876 
L 372.679134 260.495049 
L 379.327902 262.176805 
L 372.851359 264.432642 
L 373.450216 263.091407 
L 355.228704 263.888389 
L 355.171296 262.575858 
"/>
    <path clip-path="url(#pfc778fcbbe)" d="M 382.226931 262.575811 
L 408.001877 261.491311 
L 407.290335 260.206301 
L 413.936302 261.89909 
L 407.456024 264.144175 
L 408.057107 262.803936 
L 382.28216 263.888435 
L 382.226931 262.575811 
"/>
    <path clip-path="url(#pfc778fcbbe)" d="M 409.282887 262.575753 
L 443.722029 261.200842 
L 443.01325 259.914306 
L 449.655564 261.621375 
L 443.170475 263.852527 
L 443.774437 262.513583 
L 409.335295 263.888493 
L 409.282887 262.575753 
"/>
    <path clip-path="url(#pfc778fcbbe)" d="M 57.724454 247.803168 
L 65.160955 249.238064 
L 64.764867 247.823618 
L 70.841464 251.003145 
L 64.018144 251.693593 
L 64.912047 250.528055 
L 57.475546 249.09316 
L 57.724454 247.803168 
"/>
    <path clip-path="url(#pfc778fcbbe)" d="M 84.823137 247.813274 
L 87.684974 248.573218 
L 87.387266 247.134847 
L 93.230393 250.725429 
L 86.375719 250.944187 
L 87.347791 249.842998 
L 84.485954 249.083054 
L 84.823137 247.813274 
"/>
    <path clip-path="url(#pfc778fcbbe)" d="M 111.909046 247.946055 
L 112.411155 248.14601 
L 112.308956 246.941837 
L 116.730183 250.447714 
L 111.109226 249.954492 
L 112.011245 249.150228 
L 111.509136 248.950273 
L 111.909046 247.946055 
"/>
    <path clip-path="url(#pfc778fcbbe)" d="M 138.93582 248.190445 
L 139.19354 248.362628 
L 139.280187 247.675005 
L 141.340834 250.169999 
L 138.247086 249.221324 
L 138.849173 248.878067 
L 138.591453 248.705884 
L 138.93582 248.190445 
"/>
    <path clip-path="url(#pfc778fcbbe)" d="M 165.962594 248.323748 
L 166.08701 248.46816 
L 166.251418 248.074915 
L 167.062346 249.892284 
L 165.384946 248.821414 
L 165.798186 248.716993 
L 165.67377 248.572581 
L 165.962594 248.323748 
"/>
    <path clip-path="url(#pfc778fcbbe)" d="M 192.989368 248.345965 
L 193.091567 248.462605 
L 193.222648 248.141567 
L 193.894719 249.614568 
L 192.522806 248.754762 
L 192.858286 248.667004 
L 192.756087 248.550363 
L 192.989368 248.345965 
"/>
    <path clip-path="url(#pfc778fcbbe)" d="M 220.016142 248.257096 
L 220.20721 248.345965 
L 220.193879 247.87496 
L 221.837954 249.336853 
L 219.660666 249.021369 
L 220.029472 248.728101 
L 219.838404 248.639232 
L 220.016142 248.257096 
"/>
    <path clip-path="url(#pfc778fcbbe)" d="M 247.042916 248.057141 
L 247.433939 248.118239 
L 247.16511 247.275095 
L 250.892049 249.059138 
L 246.798526 249.621234 
L 247.311744 248.900285 
L 246.920721 248.839187 
L 247.042916 248.057141 
"/>
    <path clip-path="url(#pfc778fcbbe)" d="M 274.06751 247.79201 
L 275.182765 247.844949 
L 274.588904 246.501495 
L 281.057005 248.781423 
L 274.402024 250.438419 
L 275.120472 249.157258 
L 274.005217 249.104318 
L 274.06751 247.79201 
"/>
    <path clip-path="url(#pfc778fcbbe)" d="M 301.094155 247.791279 
L 306.424104 247.817613 
L 305.77371 246.500598 
L 312.332823 248.503707 
L 305.754237 250.441907 
L 306.417613 249.131383 
L 301.087664 249.105049 
L 301.094155 247.791279 
"/>
    <path clip-path="url(#pfc778fcbbe)" d="M 328.13665 247.79133 
L 338.799191 247.648401 
L 338.124747 246.343538 
L 344.719501 248.225992 
L 338.177576 250.284541 
L 338.8168 248.962069 
L 328.154259 249.104998 
L 328.13665 247.79133 
"/>
    <path clip-path="url(#pfc778fcbbe)" d="M 355.185737 247.791426 
L 372.292135 247.419907 
L 371.60687 246.120694 
L 378.217041 247.948277 
L 371.692449 250.061122 
L 372.320661 248.733383 
L 355.214263 249.104902 
L 355.185737 247.791426 
"/>
    <path clip-path="url(#pfc778fcbbe)" d="M 382.237842 247.791484 
L 406.898613 247.164211 
L 406.208525 245.867553 
L 412.825441 247.670562 
L 406.308746 249.807637 
L 406.932019 248.477572 
L 382.271249 249.104845 
L 382.237842 247.791484 
"/>
    <path clip-path="url(#pfc778fcbbe)" d="M 409.291429 247.791509 
L 442.617141 246.895149 
L 441.925162 245.5995 
L 448.544703 247.392846 
L 442.031134 249.539433 
L 442.652465 248.20846 
L 409.326753 249.10482 
L 409.291429 247.791509 
"/>
    <path clip-path="url(#pfc778fcbbe)" d="M 57.763156 233.027897 
L 64.166982 234.669904 
L 63.856986 233.234131 
L 69.730602 236.774616 
L 62.87805 237.051981 
L 63.84067 235.942521 
L 57.436844 234.300514 
L 57.763156 233.027897 
"/>
    <path clip-path="url(#pfc778fcbbe)" d="M 84.887598 233.050043 
L 86.825127 233.785266 
L 86.67707 232.32389 
L 92.119532 236.496901 
L 85.278755 236.008862 
L 86.359022 235.01359 
L 84.421493 234.278367 
L 84.887598 233.050043 
"/>
    <path clip-path="url(#pfc778fcbbe)" d="M 111.964589 233.273182 
L 112.355612 233.52868 
L 112.475585 232.491136 
L 115.619322 236.219186 
L 110.942597 234.837275 
L 111.844616 234.310726 
L 111.453593 234.055228 
L 111.964589 233.273182 
"/>
    <path clip-path="url(#pfc778fcbbe)" d="M 138.991363 233.517572 
L 139.137997 233.745298 
L 139.446816 233.224304 
L 140.229973 235.94147 
L 138.080457 234.104106 
L 138.682544 234.038566 
L 138.53591 233.810839 
L 138.991363 233.517572 
"/>
    <path clip-path="url(#pfc778fcbbe)" d="M 166.018137 233.650875 
L 166.031467 233.85083 
L 166.418047 233.624214 
L 165.951485 235.663755 
L 165.218317 233.704196 
L 165.631557 233.877491 
L 165.618227 233.677536 
L 166.018137 233.650875 
"/>
    <path clip-path="url(#pfc778fcbbe)" d="M 193.044911 233.673092 
L 193.036024 233.845276 
L 193.389278 233.690866 
L 192.783858 235.38604 
L 192.356177 233.637545 
L 192.691657 233.827502 
L 192.700544 233.655318 
L 193.044911 233.673092 
"/>
    <path clip-path="url(#pfc778fcbbe)" d="M 220.071685 233.584223 
L 220.151667 233.728635 
L 220.360509 233.424259 
L 220.727093 235.108325 
L 219.494037 233.904151 
L 219.862843 233.888599 
L 219.782861 233.744187 
L 220.071685 233.584223 
"/>
    <path clip-path="url(#pfc778fcbbe)" d="M 247.098459 233.384268 
L 247.378396 233.500909 
L 247.331739 232.824394 
L 249.781188 234.830609 
L 246.631897 234.504016 
L 247.145115 234.060783 
L 246.865178 233.944142 
L 247.098459 233.384268 
"/>
    <path clip-path="url(#pfc778fcbbe)" d="M 274.125233 233.073227 
L 274.716211 233.162096 
L 274.30297 231.891271 
L 279.946144 234.552894 
L 273.769757 235.43714 
L 274.538473 234.344052 
L 273.947495 234.255183 
L 274.125233 233.073227 
"/>
    <path clip-path="url(#pfc778fcbbe)" d="M 301.130453 233.008504 
L 305.36019 233.263587 
L 304.783575 231.91264 
L 311.221962 234.275179 
L 304.546315 235.84685 
L 305.281103 234.57499 
L 301.051366 234.319907 
L 301.130453 233.008504 
"/>
    <path clip-path="url(#pfc778fcbbe)" d="M 328.159608 233.007465 
L 337.71213 233.213338 
L 337.083697 231.885703 
L 343.60864 233.997464 
L 336.998774 235.826146 
L 337.683822 234.526819 
L 328.131301 234.320946 
L 328.159608 233.007465 
"/>
    <path clip-path="url(#pfc778fcbbe)" d="M 355.201666 233.007314 
L 371.195827 233.047868 
L 370.542268 231.73242 
L 377.10618 233.719748 
L 370.532274 235.673765 
L 371.192496 234.361649 
L 355.198334 234.321096 
L 355.201666 233.007314 
"/>
    <path clip-path="url(#pfc778fcbbe)" d="M 382.249592 233.007331 
L 405.797758 232.829743 
L 405.130976 231.520948 
L 411.71458 233.442033 
L 405.160699 235.462194 
L 405.807665 234.143492 
L 382.259499 234.32108 
L 382.249592 233.007331 
"/>
    <path clip-path="url(#pfc778fcbbe)" d="M 409.300479 233.007369 
L 441.513701 232.584993 
L 440.839639 231.279932 
L 447.433842 233.164318 
L 440.891314 235.220951 
L 441.530925 233.898666 
L 409.317703 234.321042 
L 409.300479 233.007369 
"/>
    <path clip-path="url(#pfc778fcbbe)" d="M 57.807351 218.256937 
L 63.217312 220.056622 
L 63.008704 218.602653 
L 68.619741 222.546088 
L 61.7646 222.342507 
L 62.80261 221.30324 
L 57.392649 219.503555 
L 57.807351 218.256937 
"/>
    <path clip-path="url(#pfc778fcbbe)" d="M 84.963619 218.300607 
L 86.100989 218.907072 
L 86.139496 217.438719 
L 91.008671 222.268373 
L 84.285055 220.916556 
L 85.482842 220.066351 
L 84.345472 219.459886 
L 84.963619 218.300607 
"/>
    <path clip-path="url(#pfc778fcbbe)" d="M 112.020132 218.600309 
L 112.300069 218.911351 
L 112.642214 218.040435 
L 114.508461 221.990657 
L 110.775968 219.720057 
L 111.677987 219.471224 
L 111.39805 219.160183 
L 112.020132 218.600309 
"/>
    <path clip-path="url(#pfc778fcbbe)" d="M 139.046906 218.844699 
L 139.082453 219.127968 
L 139.613445 218.773604 
L 139.119112 221.712942 
L 137.913828 218.986889 
L 138.515914 219.199064 
L 138.480367 218.915794 
L 139.046906 218.844699 
"/>
    <path clip-path="url(#pfc778fcbbe)" d="M 166.07368 218.978002 
L 165.975924 219.2335 
L 166.584676 219.173514 
L 164.840624 221.435227 
L 165.051688 218.586979 
L 165.464928 219.037989 
L 165.562684 218.782491 
L 166.07368 218.978002 
"/>
    <path clip-path="url(#pfc778fcbbe)" d="M 193.100454 219.000219 
L 192.980481 219.227946 
L 193.555907 219.240165 
L 191.672997 221.157512 
L 192.189548 218.520327 
L 192.525028 218.988 
L 192.645001 218.760273 
L 193.100454 219.000219 
"/>
    <path clip-path="url(#pfc778fcbbe)" d="M 220.127228 218.911351 
L 220.096124 219.111305 
L 220.527138 218.973559 
L 219.616232 220.879796 
L 219.327408 218.786934 
L 219.696214 219.049097 
L 219.727318 218.849142 
L 220.127228 218.911351 
"/>
    <path clip-path="url(#pfc778fcbbe)" d="M 247.154002 218.711396 
L 247.322853 218.883579 
L 247.498369 218.373694 
L 248.670327 220.602081 
L 246.465268 219.386799 
L 246.978486 219.221281 
L 246.809635 219.049097 
L 247.154002 218.711396 
"/>
    <path clip-path="url(#pfc778fcbbe)" d="M 274.180776 218.400354 
L 274.660668 218.544766 
L 274.469599 217.44057 
L 278.835283 220.324366 
L 273.603128 220.319922 
L 274.371844 219.50455 
L 273.891952 219.360138 
L 274.180776 218.400354 
"/>
    <path clip-path="url(#pfc778fcbbe)" d="M 301.175151 218.228778 
L 304.332122 218.637007 
L 303.849137 217.249827 
L 310.111101 220.04665 
L 303.343687 221.15864 
L 304.163639 219.939944 
L 301.006667 219.531715 
L 301.175151 218.228778 
"/>
    <path clip-path="url(#pfc778fcbbe)" d="M 328.186051 218.224609 
L 336.63764 218.747927 
L 336.063196 217.396056 
L 342.497779 219.768935 
L 335.819616 221.32988 
L 336.556447 220.059202 
L 328.104858 219.535884 
L 328.186051 218.224609 
"/>
    <path clip-path="url(#pfc778fcbbe)" d="M 355.219291 218.223637 
L 370.105123 218.660988 
L 369.487097 217.328477 
L 375.995319 219.49122 
L 369.371348 221.268135 
L 370.06654 219.974207 
L 355.180709 219.536856 
L 355.219291 218.223637 
"/>
    <path clip-path="url(#pfc778fcbbe)" d="M 382.262267 218.223399 
L 404.699812 218.487163 
L 404.058408 217.165746 
L 410.603719 219.213505 
L 404.012079 221.106832 
L 404.684369 219.800858 
L 382.246824 219.537094 
L 382.262267 218.223399 
"/>
    <path clip-path="url(#pfc778fcbbe)" d="M 409.310077 218.223354 
L 440.411936 218.270026 
L 439.757016 216.955255 
L 446.322981 218.935789 
L 439.751101 220.896609 
L 440.409965 219.58381 
L 409.308105 219.537139 
L 409.310077 218.223354 
"/>
    <path clip-path="url(#pfc778fcbbe)" d="M 57.857454 203.491948 
L 62.327282 205.396135 
L 62.23785 203.930003 
L 67.50888 208.317559 
L 60.693127 207.556038 
L 61.812374 206.604813 
L 57.342546 204.700627 
L 57.857454 203.491948 
"/>
    <path clip-path="url(#pfc778fcbbe)" d="M 85.048901 203.571961 
L 85.573228 203.966317 
L 85.837612 202.523308 
L 89.89781 208.039844 
L 83.471478 205.669267 
L 84.784516 205.01497 
L 84.26019 204.620614 
L 85.048901 203.571961 
"/>
    <path clip-path="url(#pfc778fcbbe)" d="M 112.075675 203.927437 
L 112.244526 204.294021 
L 112.808843 203.589735 
L 113.3976 207.762129 
L 110.609338 204.60284 
L 111.511358 204.631722 
L 111.342507 204.265138 
L 112.075675 203.927437 
"/>
    <path clip-path="url(#pfc778fcbbe)" d="M 139.102449 204.171826 
L 139.02691 204.510639 
L 139.780074 204.322903 
L 138.008251 207.484414 
L 137.747199 203.869672 
L 138.349285 204.359562 
L 138.424824 204.020749 
L 139.102449 204.171826 
"/>
    <path clip-path="url(#pfc778fcbbe)" d="M 166.129223 204.305129 
L 165.920381 204.61617 
L 166.751305 204.722813 
L 163.729763 207.206698 
L 164.885059 203.469762 
L 165.298299 204.198487 
L 165.507141 203.887446 
L 166.129223 204.305129 
"/>
    <path clip-path="url(#pfc778fcbbe)" d="M 193.155997 204.327347 
L 192.924938 204.610616 
L 193.722536 204.789465 
L 190.562136 206.928983 
L 192.022919 203.40311 
L 192.358399 204.148498 
L 192.589458 203.865228 
L 193.155997 204.327347 
"/>
    <path clip-path="url(#pfc778fcbbe)" d="M 220.182771 204.238478 
L 220.040581 204.493976 
L 220.693767 204.522858 
L 218.505371 206.651268 
L 219.160779 203.669717 
L 219.529584 204.209595 
L 219.671775 203.954097 
L 220.182771 204.238478 
"/>
    <path clip-path="url(#pfc778fcbbe)" d="M 247.209545 204.038523 
L 247.267309 204.266249 
L 247.664998 203.922993 
L 247.559466 206.373553 
L 246.298639 204.269582 
L 246.811856 204.381779 
L 246.754092 204.154052 
L 247.209545 204.038523 
"/>
    <path clip-path="url(#pfc778fcbbe)" d="M 274.236319 203.727482 
L 274.605124 203.927437 
L 274.636229 202.98987 
L 277.724422 206.095837 
L 273.436499 205.202705 
L 274.205215 204.665048 
L 273.836409 204.465093 
L 274.236319 203.727482 
"/>
    <path clip-path="url(#pfc778fcbbe)" d="M 301.23064 203.454428 
L 303.363234 203.918687 
L 303.000836 202.495237 
L 309.00024 205.818122 
L 302.162452 206.346394 
L 303.083773 205.202406 
L 300.951178 204.738147 
L 301.23064 203.454428 
"/>
    <path clip-path="url(#pfc778fcbbe)" d="M 328.216673 203.443267 
L 335.580949 204.246417 
L 335.070366 202.869157 
L 341.386918 205.540407 
L 334.643053 206.787282 
L 335.438512 205.552459 
L 328.074236 204.749308 
L 328.216673 203.443267 
"/>
    <path clip-path="url(#pfc778fcbbe)" d="M 355.238856 203.440545 
L 369.021629 204.257244 
L 368.443598 202.906902 
L 374.884458 205.262692 
L 368.210462 206.841359 
L 368.943917 205.56873 
L 355.161144 204.75203 
L 355.238856 203.440545 
"/>
    <path clip-path="url(#pfc778fcbbe)" d="M 382.275966 203.439744 
L 403.605386 204.135647 
L 402.991684 202.801139 
L 409.492858 204.984976 
L 402.86316 206.7404 
L 403.562545 205.448734 
L 382.233125 204.752831 
L 382.275966 203.439744 
"/>
    <path clip-path="url(#pfc778fcbbe)" d="M 409.320268 203.43949 
L 439.312116 203.949871 
L 438.677672 202.625098 
L 445.21212 204.707261 
L 438.61061 206.565885 
L 439.289762 205.263466 
L 409.297914 204.753085 
L 409.320268 203.43949 
"/>
    <path clip-path="url(#pfc778fcbbe)" d="M 57.91343 188.735033 
L 61.515793 190.690862 
L 61.565359 189.222841 
L 66.398019 194.089031 
L 59.684776 192.686612 
L 60.888932 191.845452 
L 57.28657 189.889624 
L 57.91343 188.735033 
"/>
    <path clip-path="url(#pfc778fcbbe)" d="M 85.104444 188.899088 
L 85.517684 189.348987 
L 86.004242 188.072608 
L 88.786949 193.811316 
L 83.304849 190.552049 
L 84.617887 190.175468 
L 84.204647 189.725569 
L 85.104444 188.899088 
"/>
    <path clip-path="url(#pfc778fcbbe)" d="M 112.131218 189.254564 
L 112.188983 189.676691 
L 112.975472 189.139034 
L 112.286739 193.5336 
L 110.442709 189.485623 
L 111.344728 189.79222 
L 111.286964 189.370093 
L 112.131218 189.254564 
"/>
    <path clip-path="url(#pfc778fcbbe)" d="M 139.157992 189.498953 
L 138.971367 189.893309 
L 139.946703 189.872202 
L 136.89739 193.255885 
L 137.580569 188.752455 
L 138.182656 189.52006 
L 138.369281 189.125704 
L 139.157992 189.498953 
"/>
    <path clip-path="url(#pfc778fcbbe)" d="M 166.184766 189.632257 
L 165.864838 189.998841 
L 166.917934 190.272112 
L 162.618902 192.97817 
L 164.718429 188.352545 
L 165.13167 189.358985 
L 165.451598 188.992401 
L 166.184766 189.632257 
"/>
    <path clip-path="url(#pfc778fcbbe)" d="M 193.21154 189.654474 
L 192.869395 189.993286 
L 193.889165 190.338764 
L 189.451275 192.700455 
L 191.856289 188.285893 
L 192.191769 189.308996 
L 192.533915 188.970183 
L 193.21154 189.654474 
"/>
    <path clip-path="url(#pfc778fcbbe)" d="M 220.238314 189.565605 
L 219.985038 189.876646 
L 220.860396 190.072157 
L 217.39451 192.422739 
L 218.994149 188.5525 
L 219.362955 189.370093 
L 219.616232 189.059052 
L 220.238314 189.565605 
"/>
    <path clip-path="url(#pfc778fcbbe)" d="M 247.265088 189.36565 
L 247.211766 189.648919 
L 247.831627 189.472293 
L 246.448605 192.145024 
L 246.132009 189.152365 
L 246.645227 189.542277 
L 246.698549 189.259007 
L 247.265088 189.36565 
"/>
    <path clip-path="url(#pfc778fcbbe)" d="M 274.291862 189.054609 
L 274.549581 189.310107 
L 274.802858 188.539169 
L 276.613561 191.867309 
L 273.26987 190.085488 
L 274.038585 189.825546 
L 273.780866 189.570048 
L 274.291862 189.054609 
"/>
    <path clip-path="url(#pfc778fcbbe)" d="M 301.299553 188.689451 
L 302.492126 189.088924 
L 302.286536 187.634526 
L 307.889379 191.589594 
L 301.034674 191.37179 
L 302.074839 190.334679 
L 300.882266 189.935206 
L 301.299553 188.689451 
"/>
    <path clip-path="url(#pfc778fcbbe)" d="M 328.252292 188.664182 
L 334.549574 189.702195 
L 334.115102 188.299065 
L 340.276057 191.311878 
L 333.474078 192.187945 
L 334.335899 190.998489 
L 328.038617 189.960475 
L 328.252292 188.664182 
"/>
    <path clip-path="url(#pfc778fcbbe)" d="M 355.260636 188.65824 
L 367.947437 189.834349 
L 367.414621 188.465536 
L 373.773596 191.034163 
L 367.050804 192.390066 
L 367.826165 191.142526 
L 355.139364 189.966417 
L 355.260636 188.65824 
"/>
    <path clip-path="url(#pfc778fcbbe)" d="M 382.290798 188.656437 
L 402.515223 189.774283 
L 401.931836 188.426247 
L 408.381997 190.756448 
L 401.714321 192.361598 
L 402.442718 191.086067 
L 382.218293 189.96822 
L 382.290798 188.656437 
"/>
    <path clip-path="url(#pfc778fcbbe)" d="M 409.331101 188.655804 
L 438.214551 189.624119 
L 437.602047 188.289061 
L 444.101258 190.478733 
L 437.469987 192.228206 
L 438.170531 190.937168 
L 409.287081 189.968853 
L 409.331101 188.655804 
"/>
    <path clip-path="url(#pfc778fcbbe)" d="M 57.974397 173.988615 
L 60.803759 175.951178 
L 61.012797 174.497271 
L 65.287158 179.860503 
L 58.766418 177.735802 
L 60.054966 177.030688 
L 57.225603 175.068125 
L 57.974397 173.988615 
"/>
    <path clip-path="url(#pfc778fcbbe)" d="M 85.159987 174.226215 
L 85.462141 174.731657 
L 86.170871 173.621907 
L 87.676087 179.582787 
L 83.13822 175.434832 
L 84.451258 175.335966 
L 84.149104 174.830524 
L 85.159987 174.226215 
"/>
    <path clip-path="url(#pfc778fcbbe)" d="M 112.186761 174.581691 
L 112.13344 175.059361 
L 113.142102 174.688334 
L 111.175878 179.305072 
L 110.27608 174.368406 
L 111.178099 174.952719 
L 111.231421 174.475048 
L 112.186761 174.581691 
"/>
    <path clip-path="url(#pfc778fcbbe)" d="M 139.213535 174.82608 
L 138.915824 175.275979 
L 140.113333 175.421502 
L 135.786529 179.027357 
L 137.41394 173.635237 
L 138.016027 174.680558 
L 138.313738 174.230659 
L 139.213535 174.82608 
"/>
    <path clip-path="url(#pfc778fcbbe)" d="M 166.240309 174.959384 
L 165.809295 175.381511 
L 167.084563 175.821412 
L 161.508041 178.749642 
L 164.5518 173.235327 
L 164.965041 174.519483 
L 165.396055 174.097356 
L 166.240309 174.959384 
"/>
    <path clip-path="url(#pfc778fcbbe)" d="M 193.267083 174.981601 
L 192.813852 175.375957 
L 194.055794 175.888064 
L 188.340414 178.471926 
L 191.68966 173.168676 
L 192.02514 174.469494 
L 192.478372 174.075138 
L 193.267083 174.981601 
"/>
    <path clip-path="url(#pfc778fcbbe)" d="M 220.293857 174.892732 
L 219.929494 175.259316 
L 221.027025 175.621457 
L 216.283649 178.194211 
L 218.82752 173.435282 
L 219.196326 174.530591 
L 219.560689 174.164007 
L 220.293857 174.892732 
"/>
    <path clip-path="url(#pfc778fcbbe)" d="M 247.320631 174.692777 
L 247.156223 175.03159 
L 247.998256 175.021592 
L 245.337744 177.916496 
L 245.96538 174.035147 
L 246.478598 174.702775 
L 246.643006 174.363962 
L 247.320631 174.692777 
"/>
    <path clip-path="url(#pfc778fcbbe)" d="M 274.347405 174.381736 
L 274.494038 174.692777 
L 274.969487 174.088469 
L 275.5027 177.63878 
L 273.10324 174.968271 
L 273.871956 174.986044 
L 273.725323 174.675003 
L 274.347405 174.381736 
"/>
    <path clip-path="url(#pfc778fcbbe)" d="M 301.374179 173.959609 
L 301.94294 174.242878 
L 301.940718 172.822087 
L 306.778518 177.361065 
L 300.2411 176.234652 
L 301.3764 175.3804 
L 300.80764 175.09713 
L 301.374179 173.959609 
"/>
    <path clip-path="url(#pfc778fcbbe)" d="M 328.293823 173.888451 
L 333.554301 175.108119 
L 333.211119 173.679914 
L 339.165196 177.08335 
L 332.32091 177.519423 
L 333.257564 176.387955 
L 327.997086 175.168288 
L 328.293823 173.888451 
"/>
    <path clip-path="url(#pfc778fcbbe)" d="M 355.284944 173.876992 
L 366.885281 175.389759 
L 366.403792 174.002059 
L 372.662735 176.805635 
L 365.894126 177.910325 
L 366.715392 176.692514 
L 355.115056 175.179747 
L 355.284944 173.876992 
"/>
    <path clip-path="url(#pfc778fcbbe)" d="M 382.306883 173.873565 
L 401.430232 175.402074 
L 400.880103 174.040127 
L 407.271136 176.527919 
L 400.566076 177.968955 
L 401.325556 176.711683 
L 382.202208 175.183174 
L 382.306883 173.873565 
"/>
    <path clip-path="url(#pfc778fcbbe)" d="M 409.342628 173.872333 
L 437.119608 175.292331 
L 436.530647 173.946721 
L 442.990397 176.250204 
L 436.329422 177.882938 
L 437.052533 176.604403 
L 409.275553 175.184406 
L 409.342628 173.872333 
"/>
    <path clip-path="url(#pfc778fcbbe)" d="M 58.038158 159.254997 
L 60.209729 161.19914 
L 60.596631 159.782154 
L 64.176297 165.631974 
L 57.967684 162.718638 
L 59.333413 162.177968 
L 57.161842 160.233825 
L 58.038158 159.254997 
"/>
    <path clip-path="url(#pfc778fcbbe)" d="M 85.21553 159.553343 
L 85.406598 160.114327 
L 86.3375 159.171206 
L 86.565226 165.354259 
L 82.971591 160.317615 
L 84.284629 160.496464 
L 84.093561 159.935479 
L 85.21553 159.553343 
"/>
    <path clip-path="url(#pfc778fcbbe)" d="M 112.242304 159.908818 
L 112.077897 160.442031 
L 113.308731 160.237633 
L 110.065017 165.076544 
L 110.109451 159.251188 
L 111.01147 160.113217 
L 111.175878 159.580003 
L 112.242304 159.908818 
"/>
    <path clip-path="url(#pfc778fcbbe)" d="M 139.269078 160.153208 
L 138.860281 160.658649 
L 140.279962 160.970801 
L 134.675668 164.798828 
L 137.247311 158.51802 
L 137.849398 159.841056 
L 138.258195 159.335614 
L 139.269078 160.153208 
"/>
    <path clip-path="url(#pfc778fcbbe)" d="M 166.252462 160.237268 
L 165.267181 161.105447 
L 166.6286 161.656882 
L 160.39718 164.521113 
L 164.022917 158.699735 
L 164.39862 160.119731 
L 165.383901 159.251553 
L 166.252462 160.237268 
"/>
    <path clip-path="url(#pfc778fcbbe)" d="M 193.282221 160.258048 
L 192.26178 161.071588 
L 193.594405 161.689368 
L 187.229553 164.243398 
L 191.137441 158.607546 
L 191.442792 160.044314 
L 192.463233 159.230774 
L 193.282221 160.258048 
"/>
    <path clip-path="url(#pfc778fcbbe)" d="M 220.3494 160.219859 
L 219.873951 160.641986 
L 221.193654 161.170756 
L 215.172788 163.965683 
L 218.660891 158.318065 
L 219.029697 159.691089 
L 219.505146 159.268962 
L 220.3494 160.219859 
"/>
    <path clip-path="url(#pfc778fcbbe)" d="M 247.376174 160.019904 
L 247.10068 160.41426 
L 248.164885 160.570891 
L 244.226883 163.687967 
L 245.798751 158.91793 
L 246.311969 159.863273 
L 246.587463 159.468917 
L 247.376174 160.019904 
"/>
    <path clip-path="url(#pfc778fcbbe)" d="M 274.402948 159.708863 
L 274.438495 160.075447 
L 275.136116 159.637768 
L 274.391839 163.410252 
L 272.936611 159.851053 
L 273.705327 160.146542 
L 273.669779 159.779958 
L 274.402948 159.708863 
"/>
    <path clip-path="url(#pfc778fcbbe)" d="M 301.429722 159.286736 
L 301.887396 159.625549 
L 302.107347 158.371386 
L 305.667657 163.132537 
L 300.074471 161.117435 
L 301.209771 160.540898 
L 300.752096 160.202085 
L 301.429722 159.286736 
"/>
    <path clip-path="url(#pfc778fcbbe)" d="M 328.342189 159.11767 
L 332.610404 160.457468 
L 332.377133 159.007252 
L 338.054335 162.854822 
L 331.196725 162.767696 
L 332.216935 161.71095 
L 327.94872 160.371151 
L 328.342189 159.11767 
"/>
    <path clip-path="url(#pfc778fcbbe)" d="M 355.312126 159.097158 
L 365.838726 160.92072 
L 365.415725 159.514088 
L 371.551874 162.577106 
L 364.742969 163.397605 
L 365.614474 162.215225 
L 355.087874 160.391663 
L 355.312126 159.097158 
"/>
    <path clip-path="url(#pfc778fcbbe)" d="M 382.324355 159.091238 
L 400.351527 161.017934 
L 399.837973 159.641778 
L 406.160275 162.299391 
L 399.419116 163.560816 
L 400.211908 162.32428 
L 382.184736 160.397584 
L 382.324355 159.091238 
"/>
    <path clip-path="url(#pfc778fcbbe)" d="M 409.354908 159.089117 
L 436.027715 160.954031 
L 435.464055 159.597627 
L 441.879536 162.021676 
L 435.189154 163.529387 
L 435.936081 162.264617 
L 409.263274 160.399704 
L 409.354908 159.089117 
"/>
    <path clip-path="url(#pfc778fcbbe)" d="M 58.100939 144.535518 
L 59.741968 146.470065 
L 60.318911 145.119258 
L 63.065436 151.403446 
L 57.31328 147.668863 
L 58.740091 147.319933 
L 57.099061 145.385386 
L 58.100939 144.535518 
"/>
    <path clip-path="url(#pfc778fcbbe)" d="M 85.271073 144.88047 
L 85.351055 145.496998 
L 86.504129 144.720506 
L 85.454365 151.12573 
L 82.804962 145.200398 
L 84.118 145.656962 
L 84.038018 145.040434 
L 85.271073 144.88047 
"/>
    <path clip-path="url(#pfc778fcbbe)" d="M 112.297847 145.235945 
L 112.022354 145.824702 
L 113.47536 145.786932 
L 108.954156 150.848015 
L 109.942822 144.133971 
L 110.844841 145.273715 
L 111.120335 144.684958 
L 112.297847 145.235945 
"/>
    <path clip-path="url(#pfc778fcbbe)" d="M 139.245445 145.406959 
L 138.065183 146.680532 
L 139.475308 147.091739 
L 133.564807 150.5703 
L 136.584457 144.412693 
L 137.101567 145.787517 
L 138.281828 144.513944 
L 139.245445 145.406959 
"/>
    <path clip-path="url(#pfc778fcbbe)" d="M 166.233585 145.469321 
L 164.281548 147.062821 
L 165.621225 147.665157 
L 159.286319 150.292585 
L 163.128803 144.61194 
L 163.450741 146.045082 
L 165.402778 144.451582 
L 166.233585 145.469321 
"/>
    <path clip-path="url(#pfc778fcbbe)" d="M 193.266309 145.486381 
L 191.245638 146.998561 
L 192.558731 147.656838 
L 186.118692 150.014869 
L 190.197239 144.501262 
L 190.458474 145.946703 
L 192.479145 144.434522 
L 193.266309 145.486381 
"/>
    <path clip-path="url(#pfc778fcbbe)" d="M 220.342085 145.469803 
L 219.060901 146.513192 
L 220.399878 147.117082 
L 214.061926 149.737154 
L 217.911002 144.060973 
L 218.231276 145.494489 
L 219.51246 144.4511 
L 220.342085 145.469803 
"/>
    <path clip-path="url(#pfc778fcbbe)" d="M 247.431717 145.347031 
L 247.045137 145.79693 
L 248.331514 146.120191 
L 243.116022 149.459439 
L 245.632122 143.800713 
L 246.14534 145.023771 
L 246.531919 144.573872 
L 247.431717 145.347031 
"/>
    <path clip-path="url(#pfc778fcbbe)" d="M 274.458491 145.03599 
L 274.382952 145.458117 
L 275.302745 145.187067 
L 273.280978 149.181724 
L 272.769982 144.733836 
L 273.538698 145.30704 
L 273.614236 144.884913 
L 274.458491 145.03599 
"/>
    <path clip-path="url(#pfc778fcbbe)" d="M 301.485265 144.613863 
L 301.831853 145.008219 
L 302.273976 143.920686 
L 304.556796 148.904008 
L 299.907842 146.000218 
L 301.043142 145.701396 
L 300.696553 145.30704 
L 301.485265 144.613863 
"/>
    <path clip-path="url(#pfc778fcbbe)" d="M 328.398106 144.354089 
L 331.73886 145.74607 
L 331.6378 144.280694 
L 336.943474 148.626293 
L 330.121893 147.91887 
L 331.233558 146.958796 
L 327.892803 145.566814 
L 328.398106 144.354089 
"/>
    <path clip-path="url(#pfc778fcbbe)" d="M 355.34255 144.319212 
L 364.812408 146.424392 
L 364.456268 144.999364 
L 370.441013 148.348578 
L 363.600971 148.8468 
L 364.527309 147.706871 
L 355.05745 145.601691 
L 355.34255 144.319212 
"/>
    <path clip-path="url(#pfc778fcbbe)" d="M 382.343357 144.30959 
L 399.280471 146.620697 
L 398.807232 145.230162 
L 405.049414 148.070863 
L 398.274363 149.135332 
L 399.102848 147.92242 
L 382.165734 145.611313 
L 382.343357 144.30959 
"/>
    <path clip-path="url(#pfc778fcbbe)" d="M 409.368001 144.306206 
L 434.93937 146.608712 
L 434.402944 145.24131 
L 440.768675 147.793147 
L 434.049485 149.166787 
L 434.82155 147.917205 
L 409.250181 145.614698 
L 409.368001 144.306206 
"/>
    <path clip-path="url(#pfc778fcbbe)" d="M 58.157739 129.829455 
L 59.388974 131.808226 
L 60.157415 130.556411 
L 61.954575 137.174917 
L 56.810979 132.638638 
L 58.273496 132.502301 
L 57.042261 130.523531 
L 58.157739 129.829455 
"/>
    <path clip-path="url(#pfc778fcbbe)" d="M 85.310736 130.206862 
L 85.273017 131.021856 
L 86.615768 130.426404 
L 84.343504 136.897202 
L 82.678624 130.244189 
L 83.960636 130.961118 
L 83.998355 130.146124 
L 85.310736 130.206862 
"/>
    <path clip-path="url(#pfc778fcbbe)" d="M 112.272372 130.514461 
L 111.448293 131.887926 
L 112.912824 132.000582 
L 107.843295 136.619487 
L 109.533138 129.97277 
L 110.321731 131.211989 
L 111.14581 129.838524 
L 112.272372 130.514461 
"/>
    <path clip-path="url(#pfc778fcbbe)" d="M 139.222722 130.646332 
L 137.141583 132.67984 
L 138.529593 133.160432 
L 132.453946 136.341772 
L 135.775079 130.341398 
L 136.223411 131.740161 
L 138.304551 129.706654 
L 139.222722 130.646332 
"/>
    <path clip-path="url(#pfc778fcbbe)" d="M 166.219062 130.696881 
L 163.259828 132.976523 
L 164.581976 133.616418 
L 158.175458 136.064056 
L 162.176696 130.494091 
L 162.458068 131.935747 
L 165.417302 129.656105 
L 166.219062 130.696881 
"/>
    <path clip-path="url(#pfc778fcbbe)" d="M 193.254181 130.711284 
L 190.202403 132.888046 
L 191.500102 133.576174 
L 185.007831 135.786341 
L 189.211378 130.367429 
L 189.439495 131.818465 
L 192.491273 129.641702 
L 193.254181 130.711284 
"/>
    <path clip-path="url(#pfc778fcbbe)" d="M 220.326179 130.698395 
L 218.047093 132.440371 
L 219.366808 133.08527 
L 212.951065 135.508626 
L 216.973371 129.953856 
L 217.249281 131.396567 
L 219.528366 129.65459 
L 220.326179 130.698395 
"/>
    <path clip-path="url(#pfc778fcbbe)" d="M 247.449898 130.637372 
L 246.621151 131.479068 
L 248.01819 131.932746 
L 242.005161 135.230911 
L 245.209709 129.167473 
L 245.684991 130.55731 
L 246.513738 129.715614 
L 247.449898 130.637372 
"/>
    <path clip-path="url(#pfc778fcbbe)" d="M 274.514034 130.363117 
L 274.327409 130.840788 
L 275.469374 130.736367 
L 272.170117 134.953195 
L 272.603353 129.616619 
L 273.372069 130.467538 
L 273.558693 129.989868 
L 274.514034 130.363117 
"/>
    <path clip-path="url(#pfc778fcbbe)" d="M 301.540808 129.94099 
L 301.77631 130.390889 
L 302.440605 129.469985 
L 303.445934 134.67548 
L 299.741213 130.883 
L 300.876513 130.861894 
L 300.64101 130.411995 
L 301.540808 129.94099 
"/>
    <path clip-path="url(#pfc778fcbbe)" d="M 328.46164 129.600702 
L 330.966682 130.976303 
L 331.023262 129.508536 
L 335.832613 134.397765 
L 329.126148 132.96328 
L 330.33431 132.127884 
L 327.829269 130.752284 
L 328.46164 129.600702 
"/>
    <path clip-path="url(#pfc778fcbbe)" d="M 355.376583 129.543779 
L 363.81231 131.89809 
L 363.532762 130.456079 
L 369.330152 134.120049 
L 362.473265 134.252362 
L 363.459145 133.163517 
L 355.023417 130.809207 
L 355.376583 129.543779 
"/>
    <path clip-path="url(#pfc778fcbbe)" d="M 382.364044 129.52879 
L 398.21873 132.209142 
L 397.790026 130.804238 
L 403.938553 133.842334 
L 397.133033 134.690453 
L 397.999733 133.504547 
L 382.145047 130.824195 
L 382.364044 129.52879 
"/>
    <path clip-path="url(#pfc778fcbbe)" d="M 409.381974 129.523656 
L 433.855162 132.255838 
L 433.34809 130.877281 
L 439.657814 133.564619 
L 432.910794 134.794304 
L 433.709396 133.561512 
L 409.236208 130.82933 
L 409.381974 129.523656 
"/>
    <path clip-path="url(#pfc778fcbbe)" d="M 58.203596 115.133343 
L 59.114589 117.254833 
L 60.06259 116.132854 
L 60.843714 122.946389 
L 56.441013 117.688002 
L 57.907397 117.773215 
L 56.996404 115.651725 
L 58.203596 115.133343 
"/>
    <path clip-path="url(#pfc778fcbbe)" d="M 85.299244 115.518521 
L 85.011223 116.992377 
L 86.426606 116.599653 
L 83.232643 122.668674 
L 82.558417 115.843732 
L 83.721826 116.740404 
L 84.009847 115.266547 
L 85.299244 115.518521 
"/>
    <path clip-path="url(#pfc778fcbbe)" d="M 112.244429 115.773219 
L 110.693938 117.953598 
L 112.1453 118.179629 
L 106.732433 122.390958 
L 108.933269 115.895519 
L 109.623261 117.192228 
L 111.173752 115.011849 
L 112.244429 115.773219 
"/>
    <path clip-path="url(#pfc778fcbbe)" d="M 139.204603 115.879419 
L 136.166017 118.631432 
L 137.534834 119.164235 
L 131.343085 122.113243 
L 134.889037 116.242925 
L 135.284084 117.657661 
L 138.32267 114.905649 
L 139.204603 115.879419 
"/>
    <path clip-path="url(#pfc778fcbbe)" d="M 166.207575 115.921572 
L 162.215332 118.860025 
L 163.523156 119.528708 
L 157.064597 121.835528 
L 161.186796 116.35448 
L 161.436545 117.801949 
L 165.428788 114.863496 
L 166.207575 115.921572 
"/>
    <path clip-path="url(#pfc778fcbbe)" d="M 193.244649 115.933998 
L 189.142065 118.751985 
L 190.427371 119.462991 
L 183.89697 121.557813 
L 188.195844 116.214209 
L 188.398222 117.669058 
L 192.500806 114.85107 
L 193.244649 115.933998 
"/>
    <path clip-path="url(#pfc778fcbbe)" d="M 220.313899 115.923598 
L 217.006404 118.331527 
L 218.31072 119.007028 
L 211.840204 121.280097 
L 215.990963 115.820646 
L 216.233152 117.269399 
L 219.540647 114.86147 
L 220.313899 115.923598 
"/>
    <path clip-path="url(#pfc778fcbbe)" d="M 247.426973 115.875593 
L 245.686983 117.47905 
L 247.060351 118.000013 
L 240.8943 121.002382 
L 244.389424 115.10166 
L 244.796674 116.512932 
L 246.536664 114.909475 
L 247.426973 115.875593 
"/>
    <path clip-path="url(#pfc778fcbbe)" d="M 274.569577 115.690245 
L 274.271866 116.223458 
L 275.636004 116.285666 
L 271.059256 120.724667 
L 272.436724 114.499402 
L 273.20544 115.628036 
L 273.50315 115.094823 
L 274.569577 115.690245 
"/>
    <path clip-path="url(#pfc778fcbbe)" d="M 301.596351 115.268117 
L 301.720767 115.773559 
L 302.607234 115.019285 
L 302.335073 120.446952 
L 299.574584 115.765783 
L 300.709884 116.022392 
L 300.585467 115.51695 
L 301.596351 115.268117 
"/>
    <path clip-path="url(#pfc778fcbbe)" d="M 328.5315 114.861048 
L 330.324424 116.163341 
L 330.565029 114.714324 
L 334.721752 120.169236 
L 328.248757 117.903239 
L 329.552333 117.226313 
L 327.759409 115.92402 
L 328.5315 114.861048 
"/>
    <path clip-path="url(#pfc778fcbbe)" d="M 355.414549 114.771666 
L 362.846029 117.339711 
L 362.654259 115.883426 
L 368.219291 119.891521 
L 361.366964 119.608634 
L 362.41693 118.581447 
L 354.985451 116.013402 
L 355.414549 114.771666 
"/>
    <path clip-path="url(#pfc778fcbbe)" d="M 382.386578 114.749047 
L 397.168341 117.782022 
L 396.78892 116.363015 
L 402.827692 119.613806 
L 395.996722 120.223937 
L 396.904275 119.068996 
L 382.122512 116.036021 
L 382.386578 114.749047 
"/>
    <path clip-path="url(#pfc778fcbbe)" d="M 409.396897 114.741536 
L 432.775776 117.894842 
L 432.300389 116.50504 
L 438.546953 119.336091 
L 431.773555 120.411029 
L 432.600165 119.196838 
L 409.221285 116.043532 
L 409.396897 114.741536 
"/>
    <path clip-path="url(#pfc778fcbbe)" d="M 58.235287 100.441486 
L 58.864338 102.833188 
L 59.967822 101.863723 
L 59.732853 108.71786 
L 56.1561 102.866258 
L 57.593764 103.167367 
L 56.964713 100.775664 
L 58.235287 100.441486 
"/>
    <path clip-path="url(#pfc778fcbbe)" d="M 85.279566 100.810709 
L 84.56601 103.017098 
L 86.018184 102.796347 
L 82.121782 108.440145 
L 82.268064 101.583542 
L 83.31597 102.61283 
L 84.029525 100.406441 
L 85.279566 100.810709 
"/>
    <path clip-path="url(#pfc778fcbbe)" d="M 112.220567 101.020765 
L 109.842756 103.971333 
L 111.277899 104.284236 
L 105.621572 108.16243 
L 108.209041 101.811098 
L 108.819804 103.146954 
L 111.197615 100.196385 
L 112.220567 101.020765 
"/>
    <path clip-path="url(#pfc778fcbbe)" d="M 139.189903 101.10838 
L 135.156738 104.548123 
L 136.509076 105.121468 
L 130.232224 107.884715 
L 133.951478 102.122636 
L 134.304206 103.548513 
L 138.33737 100.10877 
L 139.189903 101.10838 
"/>
    <path clip-path="url(#pfc778fcbbe)" d="M 166.198279 101.144331 
L 161.155637 104.721881 
L 162.451587 105.413296 
L 155.953736 107.606999 
L 160.171004 102.19876 
L 160.395443 103.650369 
L 165.438085 100.072819 
L 166.198279 101.144331 
"/>
    <path clip-path="url(#pfc778fcbbe)" d="M 193.236967 101.155236 
L 188.070294 104.597787 
L 189.345434 105.326869 
L 182.786109 107.329284 
L 187.159996 102.046905 
L 187.341815 103.504466 
L 192.508488 100.061914 
L 193.236967 101.155236 
"/>
    <path clip-path="url(#pfc778fcbbe)" d="M 220.304151 101.1466 
L 215.948451 104.197694 
L 217.240232 104.896868 
L 210.729343 107.051569 
L 214.978965 101.668714 
L 215.194695 103.121643 
L 219.550395 100.070549 
L 220.304151 101.1466 
"/>
    <path clip-path="url(#pfc778fcbbe)" d="M 247.409128 101.107488 
L 244.700969 103.426977 
L 246.054502 103.997493 
L 239.783439 106.773854 
L 243.490642 101.004013 
L 243.846349 102.42915 
L 246.554508 100.109662 
L 247.409128 101.107488 
"/>
    <path clip-path="url(#pfc778fcbbe)" d="M 274.575942 100.983226 
L 273.859831 102.014581 
L 275.313639 102.224304 
L 269.948395 106.496138 
L 272.076167 99.976399 
L 272.780674 101.26528 
L 273.496785 100.233924 
L 274.575942 100.983226 
"/>
    <path clip-path="url(#pfc778fcbbe)" d="M 301.651894 100.595245 
L 301.665224 101.156229 
L 302.773864 100.568584 
L 301.224212 106.218423 
L 299.407955 100.648566 
L 300.543255 101.18289 
L 300.529924 100.621905 
L 301.651894 100.595245 
"/>
    <path clip-path="url(#pfc778fcbbe)" d="M 328.604179 100.138383 
L 329.837886 101.342 
L 330.285142 99.942891 
L 333.610891 105.940708 
L 327.532798 102.764044 
L 328.920438 102.282384 
L 327.686731 101.078767 
L 328.604179 100.138383 
"/>
    <path clip-path="url(#pfc778fcbbe)" d="M 355.456651 100.003894 
L 361.922955 102.748454 
L 361.831576 101.282442 
L 367.10843 105.662993 
L 360.291671 104.910526 
L 361.409653 103.957816 
L 354.943349 101.213256 
L 355.456651 100.003894 
"/>
    <path clip-path="url(#pfc778fcbbe)" d="M 382.411122 99.970616 
L 396.131774 103.338127 
L 395.806968 101.905632 
L 401.716831 105.385277 
L 394.867507 105.733388 
L 395.81862 104.614046 
L 382.097969 101.246534 
L 382.411122 99.970616 
"/>
    <path clip-path="url(#pfc778fcbbe)" d="M 409.412844 99.959927 
L 431.702017 103.525139 
L 431.260875 102.124091 
L 437.436092 105.107562 
L 430.638358 106.015976 
L 431.494511 104.822434 
L 409.205338 101.257223 
L 409.412844 99.959927 
"/>
    <path clip-path="url(#pfc778fcbbe)" d="M 58.252371 85.74767 
L 58.581846 88.541049 
L 59.809642 87.734785 
L 58.621992 94.489332 
L 55.895417 88.196463 
L 57.277105 88.694941 
L 56.947629 85.901562 
L 58.252371 85.74767 
"/>
    <path clip-path="url(#pfc778fcbbe)" d="M 85.257038 86.086361 
L 83.969122 89.050925 
L 85.435853 88.971923 
L 81.010921 94.211617 
L 81.820895 87.401451 
L 82.764136 88.527435 
L 84.052052 85.562871 
L 85.257038 86.086361 
"/>
    <path clip-path="url(#pfc778fcbbe)" d="M 112.200356 86.260698 
L 108.926711 89.9486 
L 110.345323 90.329498 
L 104.510711 93.933902 
L 107.397734 87.713008 
L 107.944182 89.076436 
L 111.217826 85.388534 
L 112.200356 86.260698 
"/>
    <path clip-path="url(#pfc778fcbbe)" d="M 139.17778 86.334512 
L 134.124567 90.438791 
L 135.46275 91.044439 
L 129.121363 93.656186 
L 132.977889 87.985065 
L 133.29628 89.419 
L 138.349493 85.31472 
L 139.17778 86.334512 
"/>
    <path clip-path="url(#pfc778fcbbe)" d="M 166.190609 86.365732 
L 160.085342 90.567737 
L 161.371313 91.277541 
L 154.842875 93.378471 
L 159.136747 88.030848 
L 159.340487 89.485506 
L 165.445754 85.2835 
L 166.190609 86.365732 
"/>
    <path clip-path="url(#pfc778fcbbe)" d="M 193.230649 86.375434 
L 186.990529 90.430274 
L 188.257191 91.173987 
L 181.675248 93.100756 
L 186.109658 87.869081 
L 186.274685 89.328639 
L 192.514805 85.273798 
L 193.230649 86.375434 
"/>
    <path clip-path="url(#pfc778fcbbe)" d="M 220.296234 86.368101 
L 214.878811 90.045878 
L 216.160218 90.763887 
L 209.618482 92.823041 
L 213.946452 87.502976 
L 214.140889 88.958907 
L 219.558312 85.281131 
L 220.296234 86.368101 
"/>
    <path clip-path="url(#pfc778fcbbe)" d="M 247.394918 86.335358 
L 243.682351 89.338169 
L 245.019293 89.946552 
L 238.672578 92.545325 
L 242.540694 86.882103 
L 242.856152 88.316686 
L 246.568718 85.313874 
L 247.394918 86.335358 
"/>
    <path clip-path="url(#pfc778fcbbe)" d="M 274.547587 86.23712 
L 273.061293 88.079108 
L 274.496242 88.392893 
L 268.837534 92.26761 
L 271.428905 85.917869 
L 272.038847 87.2541 
L 273.525141 85.412112 
L 274.547587 86.23712 
"/>
    <path clip-path="url(#pfc778fcbbe)" d="M 301.707437 85.922372 
L 301.609681 86.5389 
L 302.940493 86.117883 
L 300.113351 91.989895 
L 299.241325 85.531349 
L 300.376625 86.343388 
L 300.474381 85.72686 
L 301.707437 85.922372 
"/>
    <path clip-path="url(#pfc778fcbbe)" d="M 328.673588 85.433997 
L 329.512589 86.56836 
L 330.178236 85.258988 
L 332.50003 91.712179 
L 327.009436 87.602704 
L 328.456322 87.349599 
L 327.617321 86.215235 
L 328.673588 85.433997 
"/>
    <path clip-path="url(#pfc778fcbbe)" d="M 355.502852 85.241702 
L 361.054191 88.125885 
L 361.07698 86.657204 
L 365.997569 91.434464 
L 359.25987 90.154691 
L 360.448488 89.291714 
L 354.897148 86.40753 
L 355.502852 85.241702 
"/>
    <path clip-path="url(#pfc778fcbbe)" d="M 382.43783 85.193811 
L 395.112009 88.876381 
L 394.847773 87.431486 
L 400.60597 91.156749 
L 393.748065 91.216317 
L 394.745439 90.137991 
L 382.071261 86.455421 
L 382.43783 85.193811 
"/>
    <path clip-path="url(#pfc778fcbbe)" d="M 409.429892 85.178926 
L 430.634824 89.146132 
L 430.230737 87.733951 
L 436.325231 90.879034 
L 429.505929 91.60809 
L 430.393221 90.437511 
L 409.18829 86.470306 
L 409.429892 85.178926 
"/>
    <path clip-path="url(#pfc778fcbbe)" d="M 58.256862 71.046988 
L 58.224974 74.355373 
L 59.545031 73.711173 
L 57.511131 80.260804 
L 55.603856 73.673186 
L 56.91125 74.34271 
L 56.943138 71.034326 
L 58.256862 71.046988 
"/>
    <path clip-path="url(#pfc778fcbbe)" d="M 85.234555 71.349035 
L 83.255471 75.071378 
L 84.723869 75.108124 
L 79.90006 79.983088 
L 81.24381 73.257856 
L 82.095452 74.454622 
L 84.074536 70.732279 
L 85.234555 71.349035 
"/>
    <path clip-path="url(#pfc778fcbbe)" d="M 112.183208 71.495323 
L 107.965963 75.892985 
L 109.368863 76.3282 
L 103.39985 79.705373 
L 106.524161 73.600203 
L 107.017729 74.983653 
L 111.234974 70.585991 
L 112.183208 71.495323 
"/>
    <path clip-path="url(#pfc778fcbbe)" d="M 139.167633 71.558629 
L 133.076246 76.309659 
L 134.402212 76.941606 
L 128.010502 79.427658 
L 131.978231 73.833774 
L 132.268253 75.273715 
L 138.35964 70.522685 
L 139.167633 71.558629 
"/>
    <path clip-path="url(#pfc778fcbbe)" d="M 166.184179 71.586143 
L 159.007382 76.401457 
L 160.284862 77.126431 
L 153.732014 79.149943 
L 158.08888 73.853517 
L 158.275388 75.310485 
L 165.452185 70.495171 
L 166.184179 71.586143 
"/>
    <path clip-path="url(#pfc778fcbbe)" d="M 193.225365 71.594873 
L 185.904967 76.252707 
L 187.164458 77.008501 
L 180.564387 78.872227 
L 185.048634 73.683206 
L 185.199693 75.144275 
L 192.52009 70.486441 
L 193.225365 71.594873 
"/>
    <path clip-path="url(#pfc778fcbbe)" d="M 220.289681 71.588533 
L 213.800917 75.880712 
L 215.07361 76.614056 
L 208.507621 78.594512 
L 212.899159 73.326798 
L 213.0761 74.78496 
L 219.564864 70.492781 
L 220.289681 71.588533 
"/>
    <path clip-path="url(#pfc778fcbbe)" d="M 247.383369 71.560527 
L 242.642101 75.222709 
L 243.965074 75.860899 
L 237.561717 78.316797 
L 241.555768 72.741677 
L 241.839 74.182969 
L 246.580267 70.520787 
L 247.383369 71.560527 
"/>
    <path clip-path="url(#pfc778fcbbe)" d="M 274.524243 71.480523 
L 272.173346 74.088033 
L 273.58897 74.479885 
L 267.726673 78.039082 
L 270.661694 71.840689 
L 271.197587 73.208301 
L 273.548484 70.600791 
L 274.524243 71.480523 
"/>
    <path clip-path="url(#pfc778fcbbe)" d="M 301.718213 71.235588 
L 301.384172 72.310561 
L 302.833711 72.073119 
L 299.00249 77.761366 
L 299.069887 70.903534 
L 300.129564 71.920699 
L 300.463605 70.845726 
L 301.718213 71.235588 
"/>
    <path clip-path="url(#pfc778fcbbe)" d="M 328.732186 70.745268 
L 329.3174 71.907679 
L 330.195474 70.73017 
L 331.389169 77.483651 
L 326.675085 72.502504 
L 328.143937 72.498457 
L 327.558723 71.336046 
L 328.732186 70.745268 
"/>
    <path clip-path="url(#pfc778fcbbe)" d="M 355.552711 70.486488 
L 360.251897 73.477369 
L 360.40315 72.01632 
L 364.886708 77.205936 
L 358.286884 75.341335 
L 359.546475 74.585707 
L 354.847289 71.594826 
L 355.552711 70.486488 
"/>
    <path clip-path="url(#pfc778fcbbe)" d="M 382.466834 70.419012 
L 394.112596 74.39598 
L 393.915528 72.940403 
L 399.495109 76.928221 
L 392.641798 76.67027 
L 393.688019 75.639269 
L 382.042257 71.662302 
L 382.466834 70.419012 
"/>
    <path clip-path="url(#pfc778fcbbe)" d="M 409.44812 70.398645 
L 429.575292 74.757231 
L 429.211339 73.334178 
L 435.21437 76.650505 
L 428.377164 77.186249 
L 429.297234 76.041255 
L 409.170062 71.682669 
L 409.44812 70.398645 
"/>
    <path clip-path="url(#pfc778fcbbe)" d="M 58.252001 56.336716 
L 57.772436 60.244284 
L 59.156457 59.752319 
L 56.40027 66.032275 
L 55.24445 59.272209 
L 56.468434 60.084247 
L 56.947999 56.17668 
L 58.252001 56.336716 
"/>
    <path clip-path="url(#pfc778fcbbe)" d="M 85.213454 56.601849 
L 82.454466 61.06953 
L 83.917434 61.200922 
L 78.789199 65.75456 
L 80.56398 59.130017 
L 81.336648 60.379228 
L 84.095636 55.911547 
L 85.213454 56.601849 
"/>
    <path clip-path="url(#pfc778fcbbe)" d="M 112.168575 56.726147 
L 106.973516 61.810934 
L 108.361934 62.290348 
L 102.288989 65.476845 
L 105.605027 59.473654 
L 106.054547 60.872036 
L 111.249607 55.787249 
L 112.168575 56.726147 
"/>
    <path clip-path="url(#pfc778fcbbe)" d="M 139.159028 56.781268 
L 132.016161 62.165171 
L 133.331515 62.818918 
L 126.899641 65.199129 
L 130.959163 59.6715 
L 131.225377 61.116031 
L 138.368244 55.732128 
L 139.159028 56.781268 
"/>
    <path clip-path="url(#pfc778fcbbe)" d="M 166.178712 56.805813 
L 157.923713 62.225761 
L 159.193887 62.963461 
L 152.621153 64.921414 
L 157.030708 59.668774 
L 157.202653 61.127532 
L 165.457652 55.707584 
L 166.178712 56.805813 
"/>
    <path clip-path="url(#pfc778fcbbe)" d="M 193.22088 56.813742 
L 184.815076 62.06737 
L 186.068425 62.833306 
L 179.453526 64.643699 
L 183.979509 59.491041 
L 184.11877 60.953282 
L 192.524575 55.699654 
L 193.22088 56.813742 
"/>
    <path clip-path="url(#pfc778fcbbe)" d="M 220.284171 56.80818 
L 212.716992 61.705379 
L 213.982271 62.451443 
L 207.39676 64.365984 
L 211.84088 59.142554 
L 212.003195 60.602416 
L 219.570374 55.705217 
L 220.284171 56.80818 
"/>
    <path clip-path="url(#pfc778fcbbe)" d="M 247.373816 56.78381 
L 241.586855 61.087403 
L 242.897962 61.749629 
L 236.450856 64.088268 
L 240.545977 58.58696 
L 240.802861 60.033181 
L 246.589821 55.729587 
L 247.373816 56.78381 
"/>
    <path clip-path="url(#pfc778fcbbe)" d="M 274.504973 56.717038 
L 271.227484 60.053405 
L 272.625044 60.505475 
L 266.615812 63.810553 
L 269.813385 57.743434 
L 270.290265 59.132724 
L 273.567754 55.796358 
L 274.504973 56.717038 
"/>
    <path clip-path="url(#pfc778fcbbe)" d="M 301.692241 56.5211 
L 300.872582 58.385255 
L 302.339648 58.312728 
L 297.891629 63.532838 
L 298.731658 56.726314 
L 299.669919 57.856451 
L 300.489577 55.992296 
L 301.692241 56.5211 
"/>
    <path clip-path="url(#pfc778fcbbe)" d="M 328.773814 56.065198 
L 329.183166 57.408384 
L 330.248386 56.397024 
L 330.278308 63.255123 
L 326.478227 57.546025 
L 327.926447 57.791384 
L 327.517095 56.448198 
L 328.773814 56.065198 
"/>
    <path clip-path="url(#pfc778fcbbe)" d="M 355.605192 55.73966 
L 359.527698 58.813645 
L 359.821043 57.374378 
L 363.775847 62.977407 
L 357.389894 60.476605 
L 358.717315 59.847721 
L 354.794808 56.773736 
L 355.605192 55.73966 
"/>
    <path clip-path="url(#pfc778fcbbe)" d="M 382.49822 55.646672 
L 393.137691 59.896599 
L 393.015014 58.432874 
L 398.384248 62.699692 
L 391.552969 62.093028 
L 392.650343 61.11665 
L 382.010871 56.866724 
L 382.49822 55.646672 
"/>
    <path clip-path="url(#pfc778fcbbe)" d="M 409.467604 55.619217 
L 428.524695 60.357875 
L 428.204241 58.9244 
L 434.103509 62.421977 
L 427.25316 62.749286 
L 428.207668 61.632837 
L 409.150578 56.894179 
L 409.467604 55.619217 
"/>
    <path clip-path="url(#pfc778fcbbe)" d="M 58.241055 41.616115 
L 57.220846 46.177626 
L 58.646332 45.823322 
L 55.289409 51.803747 
L 54.800001 44.963068 
L 55.938736 45.890874 
L 56.958945 41.329363 
L 58.241055 41.616115 
"/>
    <path clip-path="url(#pfc778fcbbe)" d="M 85.19423 41.847238 
L 81.588513 47.043374 
L 83.04238 47.252688 
L 77.678338 51.526032 
L 79.804276 45.005694 
L 80.509145 46.294376 
L 84.114861 41.09824 
L 85.19423 41.847238 
"/>
    <path clip-path="url(#pfc778fcbbe)" d="M 112.155997 41.954178 
L 105.957987 47.707605 
L 107.333237 48.223578 
L 101.178128 51.248316 
L 104.651804 45.334942 
L 105.064176 46.744727 
L 111.262185 40.9913 
L 112.155997 41.954178 
"/>
    <path clip-path="url(#pfc778fcbbe)" d="M 139.151646 42.002793 
L 130.94727 48.008565 
L 132.253344 48.680661 
L 125.788779 50.970601 
L 129.925284 45.500341 
L 130.17125 46.948458 
L 138.375626 40.942686 
L 139.151646 42.002793 
"/>
    <path clip-path="url(#pfc778fcbbe)" d="M 166.174008 42.024913 
L 156.835683 48.042623 
L 158.099509 48.791144 
L 151.510292 50.692886 
L 155.964551 45.478101 
L 156.12403 46.938275 
L 165.462355 40.920565 
L 166.174008 42.024913 
"/>
    <path clip-path="url(#pfc778fcbbe)" d="M 193.217027 42.032173 
L 183.721868 47.875906 
L 184.969901 48.650474 
L 178.342665 50.415171 
L 182.904102 45.293872 
L 183.033268 46.757039 
L 192.528427 40.913306 
L 193.217027 42.032173 
"/>
    <path clip-path="url(#pfc778fcbbe)" d="M 220.279475 42.027232 
L 211.628535 47.522129 
L 212.887431 48.278912 
L 206.285899 50.137455 
L 210.774219 44.951956 
L 210.92413 46.413144 
L 219.575071 40.918247 
L 220.279475 42.027232 
"/>
    <path clip-path="url(#pfc778fcbbe)" d="M 247.365791 42.005724 
L 240.520833 46.936968 
L 241.821764 47.618965 
L 235.339995 49.85974 
L 239.517926 44.421055 
L 239.752887 45.870998 
L 246.597845 40.939754 
L 247.365791 42.005724 
"/>
    <path clip-path="url(#pfc778fcbbe)" d="M 274.488929 41.948862 
L 270.242625 45.985063 
L 271.623878 46.484744 
L 265.504951 49.582025 
L 268.908488 43.628005 
L 269.337495 45.032817 
L 273.583799 40.996616 
L 274.488929 41.948862 
"/>
    <path clip-path="url(#pfc778fcbbe)" d="M 301.666403 41.789465 
L 300.206793 44.44159 
L 301.674507 44.499548 
L 296.780768 49.304309 
L 298.221544 42.599194 
L 299.055806 43.808139 
L 300.515415 41.156013 
L 301.666403 41.789465 
"/>
    <path clip-path="url(#pfc778fcbbe)" d="M 328.796417 41.384668 
L 329.025767 43.079863 
L 330.23962 42.252758 
L 329.167447 49.026594 
L 326.333846 42.781186 
L 327.723842 43.256006 
L 327.494492 41.560811 
L 328.796417 41.384668 
"/>
    <path clip-path="url(#pfc778fcbbe)" d="M 355.658505 41.002334 
L 358.889843 44.151926 
L 359.336448 42.75261 
L 362.664986 48.748879 
L 356.585416 45.575042 
L 357.972832 45.092737 
L 354.741495 41.943145 
L 355.658505 41.002334 
"/>
    <path clip-path="url(#pfc778fcbbe)" d="M 382.531998 40.877316 
L 392.192035 45.378665 
L 392.151518 43.910366 
L 397.273387 48.471164 
L 390.4868 47.482903 
L 391.637129 46.56951 
L 381.977093 42.068162 
L 382.531998 40.877316 
"/>
    <path clip-path="url(#pfc778fcbbe)" d="M 409.488418 40.840798 
L 427.4845 45.947566 
L 427.211212 44.504356 
L 432.992648 48.193448 
L 426.135251 48.296006 
L 427.125846 47.211449 
L 409.129764 42.104681 
L 409.488418 40.840798 
"/>
   </g>
   <g id="matplotlib.axis_1">
    <g id="xtick_1">
     <g id="line2d_1">
      <defs>
       <path d="M 0 0 
L 0 3.5 
" id="me3cd355387" style="stroke:#000000;stroke-width:0.8;"/>
      </defs>
      <g>
       <use style="stroke:#000000;stroke-width:0.8;" x="90.065455" xlink:href="#me3cd355387" y="307.584"/>
      </g>
     </g>
     <g id="text_1">
      <!-- 80 -->
      <defs>
       <path d="M 10.59375 35.5 
L 73.1875 35.5 
L 73.1875 27.203125 
L 10.59375 27.203125 
z
" id="DejaVuSans-8722"/>
       <path d="M 31.78125 34.625 
Q 24.75 34.625 20.71875 30.859375 
Q 16.703125 27.09375 16.703125 20.515625 
Q 16.703125 13.921875 20.71875 10.15625 
Q 24.75 6.390625 31.78125 6.390625 
Q 38.8125 6.390625 42.859375 10.171875 
Q 46.921875 13.96875 46.921875 20.515625 
Q 46.921875 27.09375 42.890625 30.859375 
Q 38.875 34.625 31.78125 34.625 
z
M 21.921875 38.8125 
Q 15.578125 40.375 12.03125 44.71875 
Q 8.5 49.078125 8.5 55.328125 
Q 8.5 64.0625 14.71875 69.140625 
Q 20.953125 74.21875 31.78125 74.21875 
Q 42.671875 74.21875 48.875 69.140625 
Q 55.078125 64.0625 55.078125 55.328125 
Q 55.078125 49.078125 51.53125 44.71875 
Q 48 40.375 41.703125 38.8125 
Q 48.828125 37.15625 52.796875 32.3125 
Q 56.78125 27.484375 56.78125 20.515625 
Q 56.78125 9.90625 50.3125 4.234375 
Q 43.84375 -1.421875 31.78125 -1.421875 
Q 19.734375 -1.421875 13.25 4.234375 
Q 6.78125 9.90625 6.78125 20.515625 
Q 6.78125 27.484375 10.78125 32.3125 
Q 14.796875 37.15625 21.921875 38.8125 
z
M 18.3125 54.390625 
Q 18.3125 48.734375 21.84375 45.5625 
Q 25.390625 42.390625 31.78125 42.390625 
Q 38.140625 42.390625 41.71875 45.5625 
Q 45.3125 48.734375 45.3125 54.390625 
Q 45.3125 60.0625 41.71875 63.234375 
Q 38.140625 66.40625 31.78125 66.40625 
Q 25.390625 66.40625 21.84375 63.234375 
Q 18.3125 60.0625 18.3125 54.390625 
z
" id="DejaVuSans-56"/>
       <path d="M 31.78125 66.40625 
Q 24.171875 66.40625 20.328125 58.90625 
Q 16.5 51.421875 16.5 36.375 
Q 16.5 21.390625 20.328125 13.890625 
Q 24.171875 6.390625 31.78125 6.390625 
Q 39.453125 6.390625 43.28125 13.890625 
Q 47.125 21.390625 47.125 36.375 
Q 47.125 51.421875 43.28125 58.90625 
Q 39.453125 66.40625 31.78125 66.40625 
z
M 31.78125 74.21875 
Q 44.046875 74.21875 50.515625 64.515625 
Q 56.984375 54.828125 56.984375 36.375 
Q 56.984375 17.96875 50.515625 8.265625 
Q 44.046875 -1.421875 31.78125 -1.421875 
Q 19.53125 -1.421875 13.0625 8.265625 
Q 6.59375 17.96875 6.59375 36.375 
Q 6.59375 54.828125 13.0625 64.515625 
Q 19.53125 74.21875 31.78125 74.21875 
z
" id="DejaVuSans-48"/>
      </defs>
      <g transform="translate(79.513111 322.182437)scale(0.1 -0.1)">
       <use xlink:href="#DejaVuSans-8722"/>
       <use x="83.789062" xlink:href="#DejaVuSans-56"/>
       <use x="147.412109" xlink:href="#DejaVuSans-48"/>
      </g>
     </g>
    </g>
    <g id="xtick_2">
     <g id="line2d_2">
      <g>
       <use style="stroke:#000000;stroke-width:0.8;" x="144.174545" xlink:href="#me3cd355387" y="307.584"/>
      </g>
     </g>
     <g id="text_2">
      <!-- 70 -->
      <defs>
       <path d="M 8.203125 72.90625 
L 55.078125 72.90625 
L 55.078125 68.703125 
L 28.609375 0 
L 18.3125 0 
L 43.21875 64.59375 
L 8.203125 64.59375 
z
" id="DejaVuSans-55"/>
      </defs>
      <g transform="translate(133.622202 322.182437)scale(0.1 -0.1)">
       <use xlink:href="#DejaVuSans-8722"/>
       <use x="83.789062" xlink:href="#DejaVuSans-55"/>
       <use x="147.412109" xlink:href="#DejaVuSans-48"/>
      </g>
     </g>
    </g>
    <g id="xtick_3">
     <g id="line2d_3">
      <g>
       <use style="stroke:#000000;stroke-width:0.8;" x="198.283636" xlink:href="#me3cd355387" y="307.584"/>
      </g>
     </g>
     <g id="text_3">
      <!-- 60 -->
      <defs>
       <path d="M 33.015625 40.375 
Q 26.375 40.375 22.484375 35.828125 
Q 18.609375 31.296875 18.609375 23.390625 
Q 18.609375 15.53125 22.484375 10.953125 
Q 26.375 6.390625 33.015625 6.390625 
Q 39.65625 6.390625 43.53125 10.953125 
Q 47.40625 15.53125 47.40625 23.390625 
Q 47.40625 31.296875 43.53125 35.828125 
Q 39.65625 40.375 33.015625 40.375 
z
M 52.59375 71.296875 
L 52.59375 62.3125 
Q 48.875 64.0625 45.09375 64.984375 
Q 41.3125 65.921875 37.59375 65.921875 
Q 27.828125 65.921875 22.671875 59.328125 
Q 17.53125 52.734375 16.796875 39.40625 
Q 19.671875 43.65625 24.015625 45.921875 
Q 28.375 48.1875 33.59375 48.1875 
Q 44.578125 48.1875 50.953125 41.515625 
Q 57.328125 34.859375 57.328125 23.390625 
Q 57.328125 12.15625 50.6875 5.359375 
Q 44.046875 -1.421875 33.015625 -1.421875 
Q 20.359375 -1.421875 13.671875 8.265625 
Q 6.984375 17.96875 6.984375 36.375 
Q 6.984375 53.65625 15.1875 63.9375 
Q 23.390625 74.21875 37.203125 74.21875 
Q 40.921875 74.21875 44.703125 73.484375 
Q 48.484375 72.75 52.59375 71.296875 
z
" id="DejaVuSans-54"/>
      </defs>
      <g transform="translate(187.731293 322.182437)scale(0.1 -0.1)">
       <use xlink:href="#DejaVuSans-8722"/>
       <use x="83.789062" xlink:href="#DejaVuSans-54"/>
       <use x="147.412109" xlink:href="#DejaVuSans-48"/>
      </g>
     </g>
    </g>
    <g id="xtick_4">
     <g id="line2d_4">
      <g>
       <use style="stroke:#000000;stroke-width:0.8;" x="252.392727" xlink:href="#me3cd355387" y="307.584"/>
      </g>
     </g>
     <g id="text_4">
      <!-- 50 -->
      <defs>
       <path d="M 10.796875 72.90625 
L 49.515625 72.90625 
L 49.515625 64.59375 
L 19.828125 64.59375 
L 19.828125 46.734375 
Q 21.96875 47.46875 24.109375 47.828125 
Q 26.265625 48.1875 28.421875 48.1875 
Q 40.625 48.1875 47.75 41.5 
Q 54.890625 34.8125 54.890625 23.390625 
Q 54.890625 11.625 47.5625 5.09375 
Q 40.234375 -1.421875 26.90625 -1.421875 
Q 22.3125 -1.421875 17.546875 -0.640625 
Q 12.796875 0.140625 7.71875 1.703125 
L 7.71875 11.625 
Q 12.109375 9.234375 16.796875 8.0625 
Q 21.484375 6.890625 26.703125 6.890625 
Q 35.15625 6.890625 40.078125 11.328125 
Q 45.015625 15.765625 45.015625 23.390625 
Q 45.015625 31 40.078125 35.4375 
Q 35.15625 39.890625 26.703125 39.890625 
Q 22.75 39.890625 18.8125 39.015625 
Q 14.890625 38.140625 10.796875 36.28125 
z
" id="DejaVuSans-53"/>
      </defs>
      <g transform="translate(241.840384 322.182437)scale(0.1 -0.1)">
       <use xlink:href="#DejaVuSans-8722"/>
       <use x="83.789062" xlink:href="#DejaVuSans-53"/>
       <use x="147.412109" xlink:href="#DejaVuSans-48"/>
      </g>
     </g>
    </g>
    <g id="xtick_5">
     <g id="line2d_5">
      <g>
       <use style="stroke:#000000;stroke-width:0.8;" x="306.501818" xlink:href="#me3cd355387" y="307.584"/>
      </g>
     </g>
     <g id="text_5">
      <!-- 40 -->
      <defs>
       <path d="M 37.796875 64.3125 
L 12.890625 25.390625 
L 37.796875 25.390625 
z
M 35.203125 72.90625 
L 47.609375 72.90625 
L 47.609375 25.390625 
L 58.015625 25.390625 
L 58.015625 17.1875 
L 47.609375 17.1875 
L 47.609375 0 
L 37.796875 0 
L 37.796875 17.1875 
L 4.890625 17.1875 
L 4.890625 26.703125 
z
" id="DejaVuSans-52"/>
      </defs>
      <g transform="translate(295.949474 322.182437)scale(0.1 -0.1)">
       <use xlink:href="#DejaVuSans-8722"/>
       <use x="83.789062" xlink:href="#DejaVuSans-52"/>
       <use x="147.412109" xlink:href="#DejaVuSans-48"/>
      </g>
     </g>
    </g>
    <g id="xtick_6">
     <g id="line2d_6">
      <g>
       <use style="stroke:#000000;stroke-width:0.8;" x="360.610909" xlink:href="#me3cd355387" y="307.584"/>
      </g>
     </g>
     <g id="text_6">
      <!-- 30 -->
      <defs>
       <path d="M 40.578125 39.3125 
Q 47.65625 37.796875 51.625 33 
Q 55.609375 28.21875 55.609375 21.1875 
Q 55.609375 10.40625 48.1875 4.484375 
Q 40.765625 -1.421875 27.09375 -1.421875 
Q 22.515625 -1.421875 17.65625 -0.515625 
Q 12.796875 0.390625 7.625 2.203125 
L 7.625 11.71875 
Q 11.71875 9.328125 16.59375 8.109375 
Q 21.484375 6.890625 26.8125 6.890625 
Q 36.078125 6.890625 40.9375 10.546875 
Q 45.796875 14.203125 45.796875 21.1875 
Q 45.796875 27.640625 41.28125 31.265625 
Q 36.765625 34.90625 28.71875 34.90625 
L 20.21875 34.90625 
L 20.21875 43.015625 
L 29.109375 43.015625 
Q 36.375 43.015625 40.234375 45.921875 
Q 44.09375 48.828125 44.09375 54.296875 
Q 44.09375 59.90625 40.109375 62.90625 
Q 36.140625 65.921875 28.71875 65.921875 
Q 24.65625 65.921875 20.015625 65.03125 
Q 15.375 64.15625 9.8125 62.3125 
L 9.8125 71.09375 
Q 15.4375 72.65625 20.34375 73.4375 
Q 25.25 74.21875 29.59375 74.21875 
Q 40.828125 74.21875 47.359375 69.109375 
Q 53.90625 64.015625 53.90625 55.328125 
Q 53.90625 49.265625 50.4375 45.09375 
Q 46.96875 40.921875 40.578125 39.3125 
z
" id="DejaVuSans-51"/>
      </defs>
      <g transform="translate(350.058565 322.182437)scale(0.1 -0.1)">
       <use xlink:href="#DejaVuSans-8722"/>
       <use x="83.789062" xlink:href="#DejaVuSans-51"/>
       <use x="147.412109" xlink:href="#DejaVuSans-48"/>
      </g>
     </g>
    </g>
    <g id="xtick_7">
     <g id="line2d_7">
      <g>
       <use style="stroke:#000000;stroke-width:0.8;" x="414.72" xlink:href="#me3cd355387" y="307.584"/>
      </g>
     </g>
     <g id="text_7">
      <!-- 20 -->
      <defs>
       <path d="M 19.1875 8.296875 
L 53.609375 8.296875 
L 53.609375 0 
L 7.328125 0 
L 7.328125 8.296875 
Q 12.9375 14.109375 22.625 23.890625 
Q 32.328125 33.6875 34.8125 36.53125 
Q 39.546875 41.84375 41.421875 45.53125 
Q 43.3125 49.21875 43.3125 52.78125 
Q 43.3125 58.59375 39.234375 62.25 
Q 35.15625 65.921875 28.609375 65.921875 
Q 23.96875 65.921875 18.8125 64.3125 
Q 13.671875 62.703125 7.8125 59.421875 
L 7.8125 69.390625 
Q 13.765625 71.78125 18.9375 73 
Q 24.125 74.21875 28.421875 74.21875 
Q 39.75 74.21875 46.484375 68.546875 
Q 53.21875 62.890625 53.21875 53.421875 
Q 53.21875 48.921875 51.53125 44.890625 
Q 49.859375 40.875 45.40625 35.40625 
Q 44.1875 33.984375 37.640625 27.21875 
Q 31.109375 20.453125 19.1875 8.296875 
z
" id="DejaVuSans-50"/>
      </defs>
      <g transform="translate(404.167656 322.182437)scale(0.1 -0.1)">
       <use xlink:href="#DejaVuSans-8722"/>
       <use x="83.789062" xlink:href="#DejaVuSans-50"/>
       <use x="147.412109" xlink:href="#DejaVuSans-48"/>
      </g>
     </g>
    </g>
   </g>
   <g id="matplotlib.axis_2">
    <g id="ytick_1">
     <g id="line2d_8">
      <defs>
       <path d="M 0 0 
L -3.5 0 
" id="m908647531a" style="stroke:#000000;stroke-width:0.8;"/>
      </defs>
      <g>
       <use style="stroke:#000000;stroke-width:0.8;" x="57.6" xlink:href="#m908647531a" y="300.192021"/>
      </g>
     </g>
     <g id="text_8">
      <!-- 15 -->
      <defs>
       <path d="M 12.40625 8.296875 
L 28.515625 8.296875 
L 28.515625 63.921875 
L 10.984375 60.40625 
L 10.984375 69.390625 
L 28.421875 72.90625 
L 38.28125 72.90625 
L 38.28125 8.296875 
L 54.390625 8.296875 
L 54.390625 0 
L 12.40625 0 
z
" id="DejaVuSans-49"/>
      </defs>
      <g transform="translate(29.495313 303.991239)scale(0.1 -0.1)">
       <use xlink:href="#DejaVuSans-8722"/>
       <use x="83.789062" xlink:href="#DejaVuSans-49"/>
       <use x="147.412109" xlink:href="#DejaVuSans-53"/>
      </g>
     </g>
    </g>
    <g id="ytick_2">
     <g id="line2d_9">
      <g>
       <use style="stroke:#000000;stroke-width:0.8;" x="57.6" xlink:href="#m908647531a" y="263.232123"/>
      </g>
     </g>
     <g id="text_9">
      <!-- 10 -->
      <g transform="translate(29.495313 267.031342)scale(0.1 -0.1)">
       <use xlink:href="#DejaVuSans-8722"/>
       <use x="83.789062" xlink:href="#DejaVuSans-49"/>
       <use x="147.412109" xlink:href="#DejaVuSans-48"/>
      </g>
     </g>
    </g>
    <g id="ytick_3">
     <g id="line2d_10">
      <g>
       <use style="stroke:#000000;stroke-width:0.8;" x="57.6" xlink:href="#m908647531a" y="226.272226"/>
      </g>
     </g>
     <g id="text_10">
      <!-- 5 -->
      <g transform="translate(35.857813 230.071445)scale(0.1 -0.1)">
       <use xlink:href="#DejaVuSans-8722"/>
       <use x="83.789062" xlink:href="#DejaVuSans-53"/>
      </g>
     </g>
    </g>
    <g id="ytick_4">
     <g id="line2d_11">
      <g>
       <use style="stroke:#000000;stroke-width:0.8;" x="57.6" xlink:href="#m908647531a" y="189.312329"/>
      </g>
     </g>
     <g id="text_11">
      <!-- 0 -->
      <g transform="translate(44.2375 193.111547)scale(0.1 -0.1)">
       <use xlink:href="#DejaVuSans-48"/>
      </g>
     </g>
    </g>
    <g id="ytick_5">
     <g id="line2d_12">
      <g>
       <use style="stroke:#000000;stroke-width:0.8;" x="57.6" xlink:href="#m908647531a" y="152.352431"/>
      </g>
     </g>
     <g id="text_12">
      <!-- 5 -->
      <g transform="translate(44.2375 156.15165)scale(0.1 -0.1)">
       <use xlink:href="#DejaVuSans-53"/>
      </g>
     </g>
    </g>
    <g id="ytick_6">
     <g id="line2d_13">
      <g>
       <use style="stroke:#000000;stroke-width:0.8;" x="57.6" xlink:href="#m908647531a" y="115.392534"/>
      </g>
     </g>
     <g id="text_13">
      <!-- 10 -->
      <g transform="translate(37.875 119.191753)scale(0.1 -0.1)">
       <use xlink:href="#DejaVuSans-49"/>
       <use x="63.623047" xlink:href="#DejaVuSans-48"/>
      </g>
     </g>
    </g>
    <g id="ytick_7">
     <g id="line2d_14">
      <g>
       <use style="stroke:#000000;stroke-width:0.8;" x="57.6" xlink:href="#m908647531a" y="78.432637"/>
      </g>
     </g>
     <g id="text_14">
      <!-- 15 -->
      <g transform="translate(37.875 82.231855)scale(0.1 -0.1)">
       <use xlink:href="#DejaVuSans-49"/>
       <use x="63.623047" xlink:href="#DejaVuSans-53"/>
      </g>
     </g>
    </g>
    <g id="ytick_8">
     <g id="line2d_15">
      <g>
       <use style="stroke:#000000;stroke-width:0.8;" x="57.6" xlink:href="#m908647531a" y="41.472739"/>
      </g>
     </g>
     <g id="text_15">
      <!-- 20 -->
      <g transform="translate(37.875 45.271958)scale(0.1 -0.1)">
       <use xlink:href="#DejaVuSans-50"/>
       <use x="63.623047" xlink:href="#DejaVuSans-48"/>
      </g>
     </g>
    </g>
   </g>
   <g id="patch_3">
    <path d="M 57.6 307.584 
L 57.6 41.472 
" style="fill:none;stroke:#000000;stroke-linecap:square;stroke-linejoin:miter;stroke-width:0.8;"/>
   </g>
   <g id="patch_4">
    <path d="M 414.72 307.584 
L 414.72 41.472 
" style="fill:none;stroke:#000000;stroke-linecap:square;stroke-linejoin:miter;stroke-width:0.8;"/>
   </g>
   <g id="patch_5">
    <path d="M 57.6 307.584 
L 414.72 307.584 
" style="fill:none;stroke:#000000;stroke-linecap:square;stroke-linejoin:miter;stroke-width:0.8;"/>
   </g>
   <g id="patch_6">
    <path d="M 57.6 41.472 
L 414.72 41.472 
" style="fill:none;stroke:#000000;stroke-linecap:square;stroke-linejoin:miter;stroke-width:0.8;"/>
   </g>
  </g>
 </g>
 <defs>
  <clipPath id="pfc778fcbbe">
   <rect height="266.112" width="357.12" x="57.6" y="41.472"/>
  </clipPath>
 </defs>
</svg>
